<?xml version="1.0" encoding="UTF-8"?>
<svg width="284px" height="135px" viewBox="0 0 284 135" version="1.1" xmlns="http://www.w3.org/2000/svg" xmlns:xlink="http://www.w3.org/1999/xlink">
	<title>Group</title>
	<g id="Mobile" stroke="none" stroke-width="1" fill="none" fill-rule="evenodd">
		<g id="Artboard-Copy" transform="translate(-18.000000, -215.000000)">
			<g id="Group" transform="translate(18.000000, 215.000000)">
				<path d="M8,87 L30,87 C34.418278,87 38,90.581722 38,95 L38,116 L38,116 L0,116 L0,95 C-5.41083001e-16,90.581722 3.581722,87 8,87 Z" id="Rectangle-Copy-27" fill="#55439D"></path>
				<path d="M49,79 L71,79 C75.418278,79 79,82.581722 79,87 L79,116 L79,116 L41,116 L41,87 C41,82.581722 44.581722,79 49,79 Z" id="Rectangle-Copy-28" fill="#55439D"></path>
				<path d="M90,70 L112,70 C116.418278,70 120,73.581722 120,78 L120,116 L120,116 L82,116 L82,78 C82,73.581722 85.581722,70 90,70 Z" id="Rectangle-Copy-29" fill="#55439D"></path>
				<path d="M131,57 L153,57 C157.418278,57 161,60.581722 161,65 L161,116 L161,116 L123,116 L123,65 C123,60.581722 126.581722,57 131,57 Z" id="Rectangle-Copy-30" fill="#55439D"></path>
				<path d="M172,42 L194,42 C198.418278,42 202,45.581722 202,50 L202,116 L202,116 L164,116 L164,50 C164,45.581722 167.581722,42 172,42 Z" id="Rectangle-Copy-31" fill="#55439D"></path>
				<path d="M213,23 L235,23 C239.418278,23 243,26.581722 243,31 L243,116 L243,116 L205,116 L205,31 C205,26.581722 208.581722,23 213,23 Z" id="Rectangle-Copy-32" fill="#55439D"></path>
				<path d="M254,0 L276,0 C280.418278,-8.11624501e-16 284,3.581722 284,8 L284,116 L284,116 L246,116 L246,8 C246,3.581722 249.581722,8.11624501e-16 254,0 Z" id="Rectangle-Copy-33" fill="#55439D"></path>
				<path d="M13.612,107 L13.612,105.68 L9.652,105.68 L11.896,103.544 C12.44,103.032 12.808,102.576 13,102.176 C13.192,101.776 13.288,101.348 13.288,100.892 C13.288,100.148 13.016,99.56 12.472,99.128 C11.928,98.696 11.2,98.48 10.288,98.48 C9.6,98.48 8.978,98.602 8.422,98.846 C7.866,99.09 7.424,99.432 7.096,99.872 L7.096,99.872 L8.188,100.712 C8.644,100.128 9.3,99.836 10.156,99.836 C10.668,99.836 11.056,99.94 11.32,100.148 C11.584,100.356 11.716,100.656 11.716,101.048 C11.716,101.312 11.65,101.578 11.518,101.846 C11.386,102.114 11.132,102.428 10.756,102.788 L10.756,102.788 L7.42,105.956 L7.42,107 L13.612,107 Z M18.112,107.12 C18.688,107.12 19.208,107.008 19.672,106.784 C20.136,106.56 20.504,106.242 20.776,105.83 C21.048,105.418 21.184,104.94 21.184,104.396 C21.184,103.884 21.06,103.432 20.812,103.04 C20.564,102.648 20.22,102.346 19.78,102.134 C19.34,101.922 18.844,101.816 18.292,101.816 C17.812,101.816 17.38,101.89 16.996,102.038 C16.612,102.186 16.296,102.404 16.048,102.692 L16.048,102.692 L16.048,102.68 C16.048,101.744 16.276,101.028 16.732,100.532 C17.188,100.036 17.82,99.788 18.628,99.788 C19.276,99.788 19.808,99.924 20.224,100.196 L20.224,100.196 L20.8,99.02 C20.52,98.844 20.19,98.71 19.81,98.618 C19.43,98.526 19.024,98.48 18.592,98.48 C17.776,98.48 17.058,98.654 16.438,99.002 C15.818,99.35 15.336,99.858 14.992,100.526 C14.648,101.194 14.476,102 14.476,102.944 C14.476,104.288 14.794,105.32 15.43,106.04 C16.066,106.76 16.96,107.12 18.112,107.12 Z M18.028,105.896 C17.484,105.896 17.058,105.762 16.75,105.494 C16.442,105.226 16.288,104.888 16.288,104.48 C16.288,104.064 16.446,103.72 16.762,103.448 C17.078,103.176 17.488,103.04 17.992,103.04 C18.504,103.04 18.912,103.168 19.216,103.424 C19.52,103.68 19.672,104.028 19.672,104.468 C19.672,104.9 19.52,105.246 19.216,105.506 C18.912,105.766 18.516,105.896 18.028,105.896 Z M23.056,107.084 C23.328,107.084 23.56,106.99 23.752,106.802 C23.944,106.614 24.04,106.376 24.04,106.088 C24.04,105.792 23.946,105.552 23.758,105.368 C23.57,105.184 23.336,105.092 23.056,105.092 C22.776,105.092 22.542,105.184 22.354,105.368 C22.166,105.552 22.072,105.792 22.072,106.088 C22.072,106.376 22.168,106.614 22.36,106.802 C22.552,106.99 22.784,107.084 23.056,107.084 Z M28.54,107.12 C29.116,107.12 29.636,107.008 30.1,106.784 C30.564,106.56 30.932,106.242 31.204,105.83 C31.476,105.418 31.612,104.94 31.612,104.396 C31.612,103.884 31.488,103.432 31.24,103.04 C30.992,102.648 30.648,102.346 30.208,102.134 C29.768,101.922 29.272,101.816 28.72,101.816 C28.24,101.816 27.808,101.89 27.424,102.038 C27.04,102.186 26.724,102.404 26.476,102.692 L26.476,102.692 L26.476,102.68 C26.476,101.744 26.704,101.028 27.16,100.532 C27.616,100.036 28.248,99.788 29.056,99.788 C29.704,99.788 30.236,99.924 30.652,100.196 L30.652,100.196 L31.228,99.02 C30.948,98.844 30.618,98.71 30.238,98.618 C29.858,98.526 29.452,98.48 29.02,98.48 C28.204,98.48 27.486,98.654 26.866,99.002 C26.246,99.35 25.764,99.858 25.42,100.526 C25.076,101.194 24.904,102 24.904,102.944 C24.904,104.288 25.222,105.32 25.858,106.04 C26.494,106.76 27.388,107.12 28.54,107.12 Z M28.456,105.896 C27.912,105.896 27.486,105.762 27.178,105.494 C26.87,105.226 26.716,104.888 26.716,104.48 C26.716,104.064 26.874,103.72 27.19,103.448 C27.506,103.176 27.916,103.04 28.42,103.04 C28.932,103.04 29.34,103.168 29.644,103.424 C29.948,103.68 30.1,104.028 30.1,104.468 C30.1,104.9 29.948,105.246 29.644,105.506 C29.34,105.766 28.944,105.896 28.456,105.896 Z" id="26.6" fill="#FFFFFF" fill-rule="nonzero"></path>
				<path d="M51.132,102.12 C51.852,102.12 52.462,102.002 52.962,101.766 C53.462,101.53 53.836,101.212 54.084,100.812 C54.332,100.412 54.456,99.968 54.456,99.48 C54.456,98.832 54.252,98.292 53.844,97.86 C53.436,97.428 52.844,97.164 52.068,97.068 L52.068,97.068 L54.108,94.644 L54.108,93.6 L48.384,93.6 L48.384,94.908 L52.2,94.908 L50.292,97.176 L50.292,98.244 L51.06,98.244 C51.676,98.244 52.134,98.354 52.434,98.574 C52.734,98.794 52.884,99.1 52.884,99.492 C52.884,99.884 52.726,100.194 52.41,100.422 C52.094,100.65 51.66,100.764 51.108,100.764 C50.644,100.764 50.194,100.69 49.758,100.542 C49.322,100.394 48.952,100.192 48.648,99.936 L48.648,99.936 L47.976,101.148 C48.368,101.452 48.842,101.69 49.398,101.862 C49.954,102.034 50.532,102.12 51.132,102.12 Z M61.5,102 L61.5,100.68 L57.54,100.68 L59.784,98.544 C60.328,98.032 60.696,97.576 60.888,97.176 C61.08,96.776 61.176,96.348 61.176,95.892 C61.176,95.148 60.904,94.56 60.36,94.128 C59.816,93.696 59.088,93.48 58.176,93.48 C57.488,93.48 56.866,93.602 56.31,93.846 C55.754,94.09 55.312,94.432 54.984,94.872 L54.984,94.872 L56.076,95.712 C56.532,95.128 57.188,94.836 58.044,94.836 C58.556,94.836 58.944,94.94 59.208,95.148 C59.472,95.356 59.604,95.656 59.604,96.048 C59.604,96.312 59.538,96.578 59.406,96.846 C59.274,97.114 59.02,97.428 58.644,97.788 L58.644,97.788 L55.308,100.956 L55.308,102 L61.5,102 Z M63.456,102.084 C63.728,102.084 63.96,101.99 64.152,101.802 C64.344,101.614 64.44,101.376 64.44,101.088 C64.44,100.792 64.346,100.552 64.158,100.368 C63.97,100.184 63.736,100.092 63.456,100.092 C63.176,100.092 62.942,100.184 62.754,100.368 C62.566,100.552 62.472,100.792 62.472,101.088 C62.472,101.376 62.568,101.614 62.76,101.802 C62.952,101.99 63.184,102.084 63.456,102.084 Z M68.34,102 L71.604,94.644 L71.604,93.6 L65.076,93.6 L65.076,96.348 L66.528,96.348 L66.528,94.92 L69.828,94.92 L66.672,102 L68.34,102 Z" id="32.7" fill="#FFFFFF" fill-rule="nonzero"></path>
				<path d="M94.946,98 L94.946,96.092 L96.434,96.092 L96.434,94.772 L94.946,94.772 L94.946,93.08 L93.482,93.08 L93.482,94.772 L90.734,94.772 L94.634,89.6 L92.966,89.6 L88.826,95.012 L88.826,96.092 L93.434,96.092 L93.434,98 L94.946,98 Z M99.842,98.12 C100.57,98.12 101.182,98 101.678,97.76 C102.174,97.52 102.546,97.196 102.794,96.788 C103.042,96.38 103.166,95.924 103.166,95.42 C103.166,94.628 102.882,94.002 102.314,93.542 C101.746,93.082 100.87,92.852 99.686,92.852 L99.686,92.852 L98.882,92.852 L99.062,90.908 L102.674,90.908 L102.674,89.6 L97.742,89.6 L97.31,94.172 L99.338,94.172 C100.162,94.172 100.744,94.282 101.084,94.502 C101.424,94.722 101.594,95.048 101.594,95.48 C101.594,95.88 101.436,96.194 101.12,96.422 C100.804,96.65 100.37,96.764 99.818,96.764 C99.354,96.764 98.904,96.69 98.468,96.542 C98.032,96.394 97.658,96.192 97.346,95.936 L97.346,95.936 L96.686,97.148 C97.07,97.452 97.542,97.69 98.102,97.862 C98.662,98.034 99.242,98.12 99.842,98.12 Z M105.002,98.084 C105.274,98.084 105.506,97.99 105.698,97.802 C105.89,97.614 105.986,97.376 105.986,97.088 C105.986,96.792 105.892,96.552 105.704,96.368 C105.516,96.184 105.282,96.092 105.002,96.092 C104.722,96.092 104.488,96.184 104.3,96.368 C104.112,96.552 104.018,96.792 104.018,97.088 C104.018,97.376 104.114,97.614 104.306,97.802 C104.498,97.99 104.73,98.084 105.002,98.084 Z M109.886,98 L113.15,90.644 L113.15,89.6 L106.622,89.6 L106.622,92.348 L108.074,92.348 L108.074,90.92 L111.374,90.92 L108.218,98 L109.886,98 Z" id="45.7" fill="#FFFFFF" fill-rule="nonzero"></path>
				<path d="M133.42,91.12 C133.996,91.12 134.516,91.008 134.98,90.784 C135.444,90.56 135.812,90.242 136.084,89.83 C136.356,89.418 136.492,88.94 136.492,88.396 C136.492,87.884 136.368,87.432 136.12,87.04 C135.872,86.648 135.528,86.346 135.088,86.134 C134.648,85.922 134.152,85.816 133.6,85.816 C133.12,85.816 132.688,85.89 132.304,86.038 C131.92,86.186 131.604,86.404 131.356,86.692 L131.356,86.692 L131.356,86.68 C131.356,85.744 131.584,85.028 132.04,84.532 C132.496,84.036 133.128,83.788 133.936,83.788 C134.584,83.788 135.116,83.924 135.532,84.196 L135.532,84.196 L136.108,83.02 C135.828,82.844 135.498,82.71 135.118,82.618 C134.738,82.526 134.332,82.48 133.9,82.48 C133.084,82.48 132.366,82.654 131.746,83.002 C131.126,83.35 130.644,83.858 130.3,84.526 C129.956,85.194 129.784,86 129.784,86.944 C129.784,88.288 130.102,89.32 130.738,90.04 C131.374,90.76 132.268,91.12 133.42,91.12 Z M133.336,89.896 C132.792,89.896 132.366,89.762 132.058,89.494 C131.75,89.226 131.596,88.888 131.596,88.48 C131.596,88.064 131.754,87.72 132.07,87.448 C132.386,87.176 132.796,87.04 133.3,87.04 C133.812,87.04 134.22,87.168 134.524,87.424 C134.828,87.68 134.98,88.028 134.98,88.468 C134.98,88.9 134.828,89.246 134.524,89.506 C134.22,89.766 133.824,89.896 133.336,89.896 Z M140.812,91.12 C141.484,91.12 142.086,90.95 142.618,90.61 C143.15,90.27 143.568,89.774 143.872,89.122 C144.176,88.47 144.328,87.696 144.328,86.8 C144.328,85.904 144.176,85.13 143.872,84.478 C143.568,83.826 143.15,83.33 142.618,82.99 C142.086,82.65 141.484,82.48 140.812,82.48 C140.14,82.48 139.54,82.65 139.012,82.99 C138.484,83.33 138.068,83.826 137.764,84.478 C137.46,85.13 137.308,85.904 137.308,86.8 C137.308,87.696 137.46,88.47 137.764,89.122 C138.068,89.774 138.484,90.27 139.012,90.61 C139.54,90.95 140.14,91.12 140.812,91.12 Z M140.812,89.764 C140.22,89.764 139.75,89.516 139.402,89.02 C139.054,88.524 138.88,87.784 138.88,86.8 C138.88,85.816 139.054,85.076 139.402,84.58 C139.75,84.084 140.22,83.836 140.812,83.836 C141.412,83.836 141.886,84.084 142.234,84.58 C142.582,85.076 142.756,85.816 142.756,86.8 C142.756,87.784 142.582,88.524 142.234,89.02 C141.886,89.516 141.412,89.764 140.812,89.764 Z M146.176,91.084 C146.448,91.084 146.68,90.99 146.872,90.802 C147.064,90.614 147.16,90.376 147.16,90.088 C147.16,89.792 147.066,89.552 146.878,89.368 C146.69,89.184 146.456,89.092 146.176,89.092 C145.896,89.092 145.662,89.184 145.474,89.368 C145.286,89.552 145.192,89.792 145.192,90.088 C145.192,90.376 145.288,90.614 145.48,90.802 C145.672,90.99 145.904,91.084 146.176,91.084 Z M154.372,91 L154.372,89.68 L150.412,89.68 L152.656,87.544 C153.2,87.032 153.568,86.576 153.76,86.176 C153.952,85.776 154.048,85.348 154.048,84.892 C154.048,84.148 153.776,83.56 153.232,83.128 C152.688,82.696 151.96,82.48 151.048,82.48 C150.36,82.48 149.738,82.602 149.182,82.846 C148.626,83.09 148.184,83.432 147.856,83.872 L147.856,83.872 L148.948,84.712 C149.404,84.128 150.06,83.836 150.916,83.836 C151.428,83.836 151.816,83.94 152.08,84.148 C152.344,84.356 152.476,84.656 152.476,85.048 C152.476,85.312 152.41,85.578 152.278,85.846 C152.146,86.114 151.892,86.428 151.516,86.788 L151.516,86.788 L148.18,89.956 L148.18,91 L154.372,91 Z" id="60.2" fill="#FFFFFF" fill-rule="nonzero"></path>
				<path d="M174.006,84.12 C174.694,84.12 175.298,84.018 175.818,83.814 C176.338,83.61 176.74,83.316 177.024,82.932 C177.308,82.548 177.45,82.1 177.45,81.588 C177.45,81.132 177.332,80.734 177.096,80.394 C176.86,80.054 176.522,79.784 176.082,79.584 C176.426,79.392 176.69,79.148 176.874,78.852 C177.058,78.556 177.15,78.212 177.15,77.82 C177.15,77.348 177.018,76.936 176.754,76.584 C176.49,76.232 176.122,75.96 175.65,75.768 C175.178,75.576 174.63,75.48 174.006,75.48 C173.39,75.48 172.846,75.576 172.374,75.768 C171.902,75.96 171.536,76.232 171.276,76.584 C171.016,76.936 170.886,77.348 170.886,77.82 C170.886,78.212 170.976,78.558 171.156,78.858 C171.336,79.158 171.594,79.4 171.93,79.584 C171.498,79.784 171.166,80.054 170.934,80.394 C170.702,80.734 170.586,81.132 170.586,81.588 C170.586,82.1 170.726,82.548 171.006,82.932 C171.286,83.316 171.684,83.61 172.2,83.814 C172.716,84.018 173.318,84.12 174.006,84.12 Z M174.006,79.068 C173.518,79.068 173.132,78.962 172.848,78.75 C172.564,78.538 172.422,78.252 172.422,77.892 C172.422,77.516 172.564,77.224 172.848,77.016 C173.132,76.808 173.518,76.704 174.006,76.704 C174.494,76.704 174.884,76.808 175.176,77.016 C175.468,77.224 175.614,77.516 175.614,77.892 C175.614,78.252 175.47,78.538 175.182,78.75 C174.894,78.962 174.502,79.068 174.006,79.068 Z M174.006,82.896 C173.43,82.896 172.978,82.776 172.65,82.536 C172.322,82.296 172.158,81.964 172.158,81.54 C172.158,81.124 172.322,80.796 172.65,80.556 C172.978,80.316 173.43,80.196 174.006,80.196 C174.582,80.196 175.038,80.316 175.374,80.556 C175.71,80.796 175.878,81.124 175.878,81.54 C175.878,81.964 175.71,82.296 175.374,82.536 C175.038,82.776 174.582,82.896 174.006,82.896 Z M181.962,84.12 C182.634,84.12 183.236,83.95 183.768,83.61 C184.3,83.27 184.718,82.774 185.022,82.122 C185.326,81.47 185.478,80.696 185.478,79.8 C185.478,78.904 185.326,78.13 185.022,77.478 C184.718,76.826 184.3,76.33 183.768,75.99 C183.236,75.65 182.634,75.48 181.962,75.48 C181.29,75.48 180.69,75.65 180.162,75.99 C179.634,76.33 179.218,76.826 178.914,77.478 C178.61,78.13 178.458,78.904 178.458,79.8 C178.458,80.696 178.61,81.47 178.914,82.122 C179.218,82.774 179.634,83.27 180.162,83.61 C180.69,83.95 181.29,84.12 181.962,84.12 Z M181.962,82.764 C181.37,82.764 180.9,82.516 180.552,82.02 C180.204,81.524 180.03,80.784 180.03,79.8 C180.03,78.816 180.204,78.076 180.552,77.58 C180.9,77.084 181.37,76.836 181.962,76.836 C182.562,76.836 183.036,77.084 183.384,77.58 C183.732,78.076 183.906,78.816 183.906,79.8 C183.906,80.784 183.732,81.524 183.384,82.02 C183.036,82.516 182.562,82.764 181.962,82.764 Z M187.326,84.084 C187.598,84.084 187.83,83.99 188.022,83.802 C188.214,83.614 188.31,83.376 188.31,83.088 C188.31,82.792 188.216,82.552 188.028,82.368 C187.84,82.184 187.606,82.092 187.326,82.092 C187.046,82.092 186.812,82.184 186.624,82.368 C186.436,82.552 186.342,82.792 186.342,83.088 C186.342,83.376 186.438,83.614 186.63,83.802 C186.822,83.99 187.054,84.084 187.326,84.084 Z M195.522,84 L195.522,82.68 L191.562,82.68 L193.806,80.544 C194.35,80.032 194.718,79.576 194.91,79.176 C195.102,78.776 195.198,78.348 195.198,77.892 C195.198,77.148 194.926,76.56 194.382,76.128 C193.838,75.696 193.11,75.48 192.198,75.48 C191.51,75.48 190.888,75.602 190.332,75.846 C189.776,76.09 189.334,76.432 189.006,76.872 L189.006,76.872 L190.098,77.712 C190.554,77.128 191.21,76.836 192.066,76.836 C192.578,76.836 192.966,76.94 193.23,77.148 C193.494,77.356 193.626,77.656 193.626,78.048 C193.626,78.312 193.56,78.578 193.428,78.846 C193.296,79.114 193.042,79.428 192.666,79.788 L192.666,79.788 L189.33,82.956 L189.33,84 L195.522,84 Z" id="80.2" fill="#FFFFFF" fill-rule="nonzero"></path>
				<path d="M211.91,74 L211.91,65.6 L208.574,65.6 L208.574,66.908 L210.35,66.908 L210.35,74 L211.91,74 Z M217.082,74.12 C217.754,74.12 218.356,73.95 218.888,73.61 C219.42,73.27 219.838,72.774 220.142,72.122 C220.446,71.47 220.598,70.696 220.598,69.8 C220.598,68.904 220.446,68.13 220.142,67.478 C219.838,66.826 219.42,66.33 218.888,65.99 C218.356,65.65 217.754,65.48 217.082,65.48 C216.41,65.48 215.81,65.65 215.282,65.99 C214.754,66.33 214.338,66.826 214.034,67.478 C213.73,68.13 213.578,68.904 213.578,69.8 C213.578,70.696 213.73,71.47 214.034,72.122 C214.338,72.774 214.754,73.27 215.282,73.61 C215.81,73.95 216.41,74.12 217.082,74.12 Z M217.082,72.764 C216.49,72.764 216.02,72.516 215.672,72.02 C215.324,71.524 215.15,70.784 215.15,69.8 C215.15,68.816 215.324,68.076 215.672,67.58 C216.02,67.084 216.49,66.836 217.082,66.836 C217.682,66.836 218.156,67.084 218.504,67.58 C218.852,68.076 219.026,68.816 219.026,69.8 C219.026,70.784 218.852,71.524 218.504,72.02 C218.156,72.516 217.682,72.764 217.082,72.764 Z M225.026,74.12 C225.714,74.12 226.318,74.018 226.838,73.814 C227.358,73.61 227.76,73.316 228.044,72.932 C228.328,72.548 228.47,72.1 228.47,71.588 C228.47,71.132 228.352,70.734 228.116,70.394 C227.88,70.054 227.542,69.784 227.102,69.584 C227.446,69.392 227.71,69.148 227.894,68.852 C228.078,68.556 228.17,68.212 228.17,67.82 C228.17,67.348 228.038,66.936 227.774,66.584 C227.51,66.232 227.142,65.96 226.67,65.768 C226.198,65.576 225.65,65.48 225.026,65.48 C224.41,65.48 223.866,65.576 223.394,65.768 C222.922,65.96 222.556,66.232 222.296,66.584 C222.036,66.936 221.906,67.348 221.906,67.82 C221.906,68.212 221.996,68.558 222.176,68.858 C222.356,69.158 222.614,69.4 222.95,69.584 C222.518,69.784 222.186,70.054 221.954,70.394 C221.722,70.734 221.606,71.132 221.606,71.588 C221.606,72.1 221.746,72.548 222.026,72.932 C222.306,73.316 222.704,73.61 223.22,73.814 C223.736,74.018 224.338,74.12 225.026,74.12 Z M225.026,69.068 C224.538,69.068 224.152,68.962 223.868,68.75 C223.584,68.538 223.442,68.252 223.442,67.892 C223.442,67.516 223.584,67.224 223.868,67.016 C224.152,66.808 224.538,66.704 225.026,66.704 C225.514,66.704 225.904,66.808 226.196,67.016 C226.488,67.224 226.634,67.516 226.634,67.892 C226.634,68.252 226.49,68.538 226.202,68.75 C225.914,68.962 225.522,69.068 225.026,69.068 Z M225.026,72.896 C224.45,72.896 223.998,72.776 223.67,72.536 C223.342,72.296 223.178,71.964 223.178,71.54 C223.178,71.124 223.342,70.796 223.67,70.556 C223.998,70.316 224.45,70.196 225.026,70.196 C225.602,70.196 226.058,70.316 226.394,70.556 C226.73,70.796 226.898,71.124 226.898,71.54 C226.898,71.964 226.73,72.296 226.394,72.536 C226.058,72.776 225.602,72.896 225.026,72.896 Z M230.534,74.084 C230.806,74.084 231.038,73.99 231.23,73.802 C231.422,73.614 231.518,73.376 231.518,73.088 C231.518,72.792 231.424,72.552 231.236,72.368 C231.048,72.184 230.814,72.092 230.534,72.092 C230.254,72.092 230.02,72.184 229.832,72.368 C229.644,72.552 229.55,72.792 229.55,73.088 C229.55,73.376 229.646,73.614 229.838,73.802 C230.03,73.99 230.262,74.084 230.534,74.084 Z M234.878,74.12 C235.694,74.12 236.412,73.946 237.032,73.598 C237.652,73.25 238.134,72.742 238.478,72.074 C238.822,71.406 238.994,70.6 238.994,69.656 C238.994,68.312 238.676,67.28 238.04,66.56 C237.404,65.84 236.51,65.48 235.358,65.48 C234.782,65.48 234.262,65.592 233.798,65.816 C233.334,66.04 232.966,66.358 232.694,66.77 C232.422,67.182 232.286,67.66 232.286,68.204 C232.286,68.716 232.41,69.168 232.658,69.56 C232.906,69.952 233.25,70.254 233.69,70.466 C234.13,70.678 234.626,70.784 235.178,70.784 C235.658,70.784 236.09,70.71 236.474,70.562 C236.858,70.414 237.174,70.196 237.422,69.908 L237.422,69.908 L237.422,69.92 C237.422,70.856 237.194,71.572 236.738,72.068 C236.282,72.564 235.65,72.812 234.842,72.812 C234.194,72.812 233.662,72.676 233.246,72.404 L233.246,72.404 L232.67,73.58 C232.95,73.756 233.28,73.89 233.66,73.982 C234.04,74.074 234.446,74.12 234.878,74.12 Z M235.478,69.56 C234.966,69.56 234.558,69.432 234.254,69.176 C233.95,68.92 233.798,68.572 233.798,68.132 C233.798,67.7 233.95,67.354 234.254,67.094 C234.558,66.834 234.954,66.704 235.442,66.704 C235.986,66.704 236.412,66.838 236.72,67.106 C237.028,67.374 237.182,67.712 237.182,68.12 C237.182,68.536 237.024,68.88 236.708,69.152 C236.392,69.424 235.982,69.56 235.478,69.56 Z" id="108.9" fill="#FFFFFF" fill-rule="nonzero"></path>
				<path d="M253.834,63 L253.834,54.6 L250.498,54.6 L250.498,55.908 L252.274,55.908 L252.274,63 L253.834,63 Z M261.586,63 L261.586,61.68 L257.626,61.68 L259.87,59.544 C260.414,59.032 260.782,58.576 260.974,58.176 C261.166,57.776 261.262,57.348 261.262,56.892 C261.262,56.148 260.99,55.56 260.446,55.128 C259.902,54.696 259.174,54.48 258.262,54.48 C257.574,54.48 256.952,54.602 256.396,54.846 C255.84,55.09 255.398,55.432 255.07,55.872 L255.07,55.872 L256.162,56.712 C256.618,56.128 257.274,55.836 258.13,55.836 C258.642,55.836 259.03,55.94 259.294,56.148 C259.558,56.356 259.69,56.656 259.69,57.048 C259.69,57.312 259.624,57.578 259.492,57.846 C259.36,58.114 259.106,58.428 258.73,58.788 L258.73,58.788 L255.394,61.956 L255.394,63 L261.586,63 Z M266.086,63.12 C266.662,63.12 267.182,63.008 267.646,62.784 C268.11,62.56 268.478,62.242 268.75,61.83 C269.022,61.418 269.158,60.94 269.158,60.396 C269.158,59.884 269.034,59.432 268.786,59.04 C268.538,58.648 268.194,58.346 267.754,58.134 C267.314,57.922 266.818,57.816 266.266,57.816 C265.786,57.816 265.354,57.89 264.97,58.038 C264.586,58.186 264.27,58.404 264.022,58.692 L264.022,58.692 L264.022,58.68 C264.022,57.744 264.25,57.028 264.706,56.532 C265.162,56.036 265.794,55.788 266.602,55.788 C267.25,55.788 267.782,55.924 268.198,56.196 L268.198,56.196 L268.774,55.02 C268.494,54.844 268.164,54.71 267.784,54.618 C267.404,54.526 266.998,54.48 266.566,54.48 C265.75,54.48 265.032,54.654 264.412,55.002 C263.792,55.35 263.31,55.858 262.966,56.526 C262.622,57.194 262.45,58 262.45,58.944 C262.45,60.288 262.768,61.32 263.404,62.04 C264.04,62.76 264.934,63.12 266.086,63.12 Z M266.002,61.896 C265.458,61.896 265.032,61.762 264.724,61.494 C264.416,61.226 264.262,60.888 264.262,60.48 C264.262,60.064 264.42,59.72 264.736,59.448 C265.052,59.176 265.462,59.04 265.966,59.04 C266.478,59.04 266.886,59.168 267.19,59.424 C267.494,59.68 267.646,60.028 267.646,60.468 C267.646,60.9 267.494,61.246 267.19,61.506 C266.886,61.766 266.49,61.896 266.002,61.896 Z M271.03,63.084 C271.302,63.084 271.534,62.99 271.726,62.802 C271.918,62.614 272.014,62.376 272.014,62.088 C272.014,61.792 271.92,61.552 271.732,61.368 C271.544,61.184 271.31,61.092 271.03,61.092 C270.75,61.092 270.516,61.184 270.328,61.368 C270.14,61.552 270.046,61.792 270.046,62.088 C270.046,62.376 270.142,62.614 270.334,62.802 C270.526,62.99 270.758,63.084 271.03,63.084 Z M279.226,63 L279.226,61.68 L275.266,61.68 L277.51,59.544 C278.054,59.032 278.422,58.576 278.614,58.176 C278.806,57.776 278.902,57.348 278.902,56.892 C278.902,56.148 278.63,55.56 278.086,55.128 C277.542,54.696 276.814,54.48 275.902,54.48 C275.214,54.48 274.592,54.602 274.036,54.846 C273.48,55.09 273.038,55.432 272.71,55.872 L272.71,55.872 L273.802,56.712 C274.258,56.128 274.914,55.836 275.77,55.836 C276.282,55.836 276.67,55.94 276.934,56.148 C277.198,56.356 277.33,56.656 277.33,57.048 C277.33,57.312 277.264,57.578 277.132,57.846 C277,58.114 276.746,58.428 276.37,58.788 L276.37,58.788 L273.034,61.956 L273.034,63 L279.226,63 Z" id="126.2" fill="#FFFFFF" fill-rule="nonzero"></path>
				<path d="M13.33,134 L13.33,133.36 L9.48,133.36 L11.86,131.02 C12.3066667,130.586667 12.61,130.203333 12.77,129.87 C12.93,129.536667 13.01,129.19 13.01,128.83 C13.01,128.243333 12.8016667,127.781667 12.385,127.445 C11.9683333,127.108333 11.4033333,126.94 10.69,126.94 C10.1566667,126.94 9.67833333,127.026667 9.255,127.2 C8.83166667,127.373333 8.48333333,127.62 8.21,127.94 L8.21,127.94 L8.72,128.38 C9.17333333,127.86 9.81,127.6 10.63,127.6 C11.1566667,127.6 11.5616667,127.715 11.845,127.945 C12.1283333,128.175 12.27,128.496667 12.27,128.91 C12.27,129.176667 12.205,129.441667 12.075,129.705 C11.945,129.968333 11.6966667,130.28 11.33,130.64 L11.33,130.64 L8.42,133.49 L8.42,134 L13.33,134 Z M16.98,134.06 C17.52,134.06 18.0016667,133.916667 18.425,133.63 C18.8483333,133.343333 19.18,132.931667 19.42,132.395 C19.66,131.858333 19.78,131.226667 19.78,130.5 C19.78,129.773333 19.66,129.141667 19.42,128.605 C19.18,128.068333 18.8483333,127.656667 18.425,127.37 C18.0016667,127.083333 17.52,126.94 16.98,126.94 C16.44,126.94 15.9583333,127.083333 15.535,127.37 C15.1116667,127.656667 14.7816667,128.068333 14.545,128.605 C14.3083333,129.141667 14.19,129.773333 14.19,130.5 C14.19,131.226667 14.3083333,131.858333 14.545,132.395 C14.7816667,132.931667 15.1116667,133.343333 15.535,133.63 C15.9583333,133.916667 16.44,134.06 16.98,134.06 Z M16.98,133.4 C16.5733333,133.4 16.215,133.286667 15.905,133.06 C15.595,132.833333 15.3533333,132.503333 15.18,132.07 C15.0066667,131.636667 14.92,131.113333 14.92,130.5 C14.92,129.886667 15.0066667,129.363333 15.18,128.93 C15.3533333,128.496667 15.595,128.166667 15.905,127.94 C16.215,127.713333 16.5733333,127.6 16.98,127.6 C17.3866667,127.6 17.745,127.713333 18.055,127.94 C18.365,128.166667 18.6066667,128.496667 18.78,128.93 C18.9533333,129.363333 19.04,129.886667 19.04,130.5 C19.04,131.113333 18.9533333,131.636667 18.78,132.07 C18.6066667,132.503333 18.365,132.833333 18.055,133.06 C17.745,133.286667 17.3866667,133.4 16.98,133.4 Z M22.73,134 L22.73,127 L20.36,127 L20.36,127.64 L22.01,127.64 L22.01,134 L22.73,134 Z M27.27,134.06 C27.7233333,134.06 28.1316667,133.971667 28.495,133.795 C28.8583333,133.618333 29.1433333,133.366667 29.35,133.04 C29.5566667,132.713333 29.66,132.336667 29.66,131.91 C29.66,131.49 29.56,131.121667 29.36,130.805 C29.16,130.488333 28.8816667,130.243333 28.525,130.07 C28.1683333,129.896667 27.76,129.81 27.3,129.81 C26.8066667,129.81 26.37,129.915 25.99,130.125 C25.61,130.335 25.3333333,130.63 25.16,131.01 C25.14,130.796667 25.13,130.606667 25.13,130.44 C25.13,129.506667 25.35,128.795 25.79,128.305 C26.23,127.815 26.8366667,127.57 27.61,127.57 C28.1833333,127.57 28.6366667,127.68 28.97,127.9 L28.97,127.9 L29.26,127.32 C28.8466667,127.066667 28.2933333,126.94 27.6,126.94 C26.96,126.94 26.4,127.078333 25.92,127.355 C25.44,127.631667 25.0666667,128.04 24.8,128.58 C24.5333333,129.12 24.4,129.78 24.4,130.56 C24.4,131.673333 24.6466667,132.535 25.14,133.145 C25.6333333,133.755 26.3433333,134.06 27.27,134.06 Z M27.24,133.45 C26.8533333,133.45 26.52,133.38 26.24,133.24 C25.96,133.1 25.7483333,132.916667 25.605,132.69 C25.4616667,132.463333 25.39,132.216667 25.39,131.95 C25.39,131.663333 25.4666667,131.403333 25.62,131.17 C25.7733333,130.936667 25.985,130.753333 26.255,130.62 C26.525,130.486667 26.8366667,130.42 27.19,130.42 C27.73,130.42 28.1583333,130.556667 28.475,130.83 C28.7916667,131.103333 28.95,131.47 28.95,131.93 C28.95,132.39 28.7916667,132.758333 28.475,133.035 C28.1583333,133.311667 27.7466667,133.45 27.24,133.45 Z" id="2016" fill="#FFFFFF" fill-rule="nonzero"></path>
				<path d="M54.185,134 L54.185,133.36 L50.335,133.36 L52.715,131.02 C53.1616667,130.586667 53.465,130.203333 53.625,129.87 C53.785,129.536667 53.865,129.19 53.865,128.83 C53.865,128.243333 53.6566667,127.781667 53.24,127.445 C52.8233333,127.108333 52.2583333,126.94 51.545,126.94 C51.0116667,126.94 50.5333333,127.026667 50.11,127.2 C49.6866667,127.373333 49.3383333,127.62 49.065,127.94 L49.065,127.94 L49.575,128.38 C50.0283333,127.86 50.665,127.6 51.485,127.6 C52.0116667,127.6 52.4166667,127.715 52.7,127.945 C52.9833333,128.175 53.125,128.496667 53.125,128.91 C53.125,129.176667 53.06,129.441667 52.93,129.705 C52.8,129.968333 52.5516667,130.28 52.185,130.64 L52.185,130.64 L49.275,133.49 L49.275,134 L54.185,134 Z M57.835,134.06 C58.375,134.06 58.8566667,133.916667 59.28,133.63 C59.7033333,133.343333 60.035,132.931667 60.275,132.395 C60.515,131.858333 60.635,131.226667 60.635,130.5 C60.635,129.773333 60.515,129.141667 60.275,128.605 C60.035,128.068333 59.7033333,127.656667 59.28,127.37 C58.8566667,127.083333 58.375,126.94 57.835,126.94 C57.295,126.94 56.8133333,127.083333 56.39,127.37 C55.9666667,127.656667 55.6366667,128.068333 55.4,128.605 C55.1633333,129.141667 55.045,129.773333 55.045,130.5 C55.045,131.226667 55.1633333,131.858333 55.4,132.395 C55.6366667,132.931667 55.9666667,133.343333 56.39,133.63 C56.8133333,133.916667 57.295,134.06 57.835,134.06 Z M57.835,133.4 C57.4283333,133.4 57.07,133.286667 56.76,133.06 C56.45,132.833333 56.2083333,132.503333 56.035,132.07 C55.8616667,131.636667 55.775,131.113333 55.775,130.5 C55.775,129.886667 55.8616667,129.363333 56.035,128.93 C56.2083333,128.496667 56.45,128.166667 56.76,127.94 C57.07,127.713333 57.4283333,127.6 57.835,127.6 C58.2416667,127.6 58.6,127.713333 58.91,127.94 C59.22,128.166667 59.4616667,128.496667 59.635,128.93 C59.8083333,129.363333 59.895,129.886667 59.895,130.5 C59.895,131.113333 59.8083333,131.636667 59.635,132.07 C59.4616667,132.503333 59.22,132.833333 58.91,133.06 C58.6,133.286667 58.2416667,133.4 57.835,133.4 Z M63.585,134 L63.585,127 L61.215,127 L61.215,127.64 L62.865,127.64 L62.865,134 L63.585,134 Z M67.915,134.06 C68.4683333,134.06 68.95,133.978333 69.36,133.815 C69.77,133.651667 70.085,133.418333 70.305,133.115 C70.525,132.811667 70.635,132.456667 70.635,132.05 C70.635,131.636667 70.5166667,131.283333 70.28,130.99 C70.0433333,130.696667 69.705,130.476667 69.265,130.33 C69.625,130.19 69.9016667,129.988333 70.095,129.725 C70.2883333,129.461667 70.385,129.15 70.385,128.79 C70.385,128.416667 70.2816667,128.09 70.075,127.81 C69.8683333,127.53 69.58,127.315 69.21,127.165 C68.84,127.015 68.4083333,126.94 67.915,126.94 C67.1683333,126.94 66.5733333,127.106667 66.13,127.44 C65.6866667,127.773333 65.465,128.223333 65.465,128.79 C65.465,129.15 65.5583333,129.461667 65.745,129.725 C65.9316667,129.988333 66.205,130.19 66.565,130.33 C66.125,130.476667 65.79,130.695 65.56,130.985 C65.33,131.275 65.215,131.63 65.215,132.05 C65.215,132.67 65.455,133.16 65.935,133.52 C66.415,133.88 67.075,134.06 67.915,134.06 Z M67.915,130.07 C67.375,130.07 66.9516667,129.956667 66.645,129.73 C66.3383333,129.503333 66.185,129.196667 66.185,128.81 C66.185,128.423333 66.34,128.116667 66.65,127.89 C66.96,127.663333 67.3816667,127.55 67.915,127.55 C68.4416667,127.55 68.8633333,127.663333 69.18,127.89 C69.4966667,128.116667 69.655,128.426667 69.655,128.82 C69.655,129.2 69.5,129.503333 69.19,129.73 C68.88,129.956667 68.455,130.07 67.915,130.07 Z M67.915,133.45 C67.295,133.45 66.8116667,133.325 66.465,133.075 C66.1183333,132.825 65.945,132.48 65.945,132.04 C65.945,131.606667 66.12,131.265 66.47,131.015 C66.82,130.765 67.3016667,130.64 67.915,130.64 C68.535,130.64 69.02,130.765 69.37,131.015 C69.72,131.265 69.895,131.606667 69.895,132.04 C69.895,132.473333 69.72,132.816667 69.37,133.07 C69.02,133.323333 68.535,133.45 67.915,133.45 Z" id="2018" fill="#FFFFFF" fill-rule="nonzero"></path>
				<path d="M94.05,134 L94.05,133.36 L90.2,133.36 L92.58,131.02 C93.0266667,130.586667 93.33,130.203333 93.49,129.87 C93.65,129.536667 93.73,129.19 93.73,128.83 C93.73,128.243333 93.5216667,127.781667 93.105,127.445 C92.6883333,127.108333 92.1233333,126.94 91.41,126.94 C90.8766667,126.94 90.3983333,127.026667 89.975,127.2 C89.5516667,127.373333 89.2033333,127.62 88.93,127.94 L88.93,127.94 L89.44,128.38 C89.8933333,127.86 90.53,127.6 91.35,127.6 C91.8766667,127.6 92.2816667,127.715 92.565,127.945 C92.8483333,128.175 92.99,128.496667 92.99,128.91 C92.99,129.176667 92.925,129.441667 92.795,129.705 C92.665,129.968333 92.4166667,130.28 92.05,130.64 L92.05,130.64 L89.14,133.49 L89.14,134 L94.05,134 Z M97.7,134.06 C98.24,134.06 98.7216667,133.916667 99.145,133.63 C99.5683333,133.343333 99.9,132.931667 100.14,132.395 C100.38,131.858333 100.5,131.226667 100.5,130.5 C100.5,129.773333 100.38,129.141667 100.14,128.605 C99.9,128.068333 99.5683333,127.656667 99.145,127.37 C98.7216667,127.083333 98.24,126.94 97.7,126.94 C97.16,126.94 96.6783333,127.083333 96.255,127.37 C95.8316667,127.656667 95.5016667,128.068333 95.265,128.605 C95.0283333,129.141667 94.91,129.773333 94.91,130.5 C94.91,131.226667 95.0283333,131.858333 95.265,132.395 C95.5016667,132.931667 95.8316667,133.343333 96.255,133.63 C96.6783333,133.916667 97.16,134.06 97.7,134.06 Z M97.7,133.4 C97.2933333,133.4 96.935,133.286667 96.625,133.06 C96.315,132.833333 96.0733333,132.503333 95.9,132.07 C95.7266667,131.636667 95.64,131.113333 95.64,130.5 C95.64,129.886667 95.7266667,129.363333 95.9,128.93 C96.0733333,128.496667 96.315,128.166667 96.625,127.94 C96.935,127.713333 97.2933333,127.6 97.7,127.6 C98.1066667,127.6 98.465,127.713333 98.775,127.94 C99.085,128.166667 99.3266667,128.496667 99.5,128.93 C99.6733333,129.363333 99.76,129.886667 99.76,130.5 C99.76,131.113333 99.6733333,131.636667 99.5,132.07 C99.3266667,132.503333 99.085,132.833333 98.775,133.06 C98.465,133.286667 98.1066667,133.4 97.7,133.4 Z M106.29,134 L106.29,133.36 L102.44,133.36 L104.82,131.02 C105.266667,130.586667 105.57,130.203333 105.73,129.87 C105.89,129.536667 105.97,129.19 105.97,128.83 C105.97,128.243333 105.761667,127.781667 105.345,127.445 C104.928333,127.108333 104.363333,126.94 103.65,126.94 C103.116667,126.94 102.638333,127.026667 102.215,127.2 C101.791667,127.373333 101.443333,127.62 101.17,127.94 L101.17,127.94 L101.68,128.38 C102.133333,127.86 102.77,127.6 103.59,127.6 C104.116667,127.6 104.521667,127.715 104.805,127.945 C105.088333,128.175 105.23,128.496667 105.23,128.91 C105.23,129.176667 105.165,129.441667 105.035,129.705 C104.905,129.968333 104.656667,130.28 104.29,130.64 L104.29,130.64 L101.38,133.49 L101.38,134 L106.29,134 Z M109.94,134.06 C110.48,134.06 110.961667,133.916667 111.385,133.63 C111.808333,133.343333 112.14,132.931667 112.38,132.395 C112.62,131.858333 112.74,131.226667 112.74,130.5 C112.74,129.773333 112.62,129.141667 112.38,128.605 C112.14,128.068333 111.808333,127.656667 111.385,127.37 C110.961667,127.083333 110.48,126.94 109.94,126.94 C109.4,126.94 108.918333,127.083333 108.495,127.37 C108.071667,127.656667 107.741667,128.068333 107.505,128.605 C107.268333,129.141667 107.15,129.773333 107.15,130.5 C107.15,131.226667 107.268333,131.858333 107.505,132.395 C107.741667,132.931667 108.071667,133.343333 108.495,133.63 C108.918333,133.916667 109.4,134.06 109.94,134.06 Z M109.94,133.4 C109.533333,133.4 109.175,133.286667 108.865,133.06 C108.555,132.833333 108.313333,132.503333 108.14,132.07 C107.966667,131.636667 107.88,131.113333 107.88,130.5 C107.88,129.886667 107.966667,129.363333 108.14,128.93 C108.313333,128.496667 108.555,128.166667 108.865,127.94 C109.175,127.713333 109.533333,127.6 109.94,127.6 C110.346667,127.6 110.705,127.713333 111.015,127.94 C111.325,128.166667 111.566667,128.496667 111.74,128.93 C111.913333,129.363333 112,129.886667 112,130.5 C112,131.113333 111.913333,131.636667 111.74,132.07 C111.566667,132.503333 111.325,132.833333 111.015,133.06 C110.705,133.286667 110.346667,133.4 109.94,133.4 Z" id="2020" fill="#FFFFFF" fill-rule="nonzero"></path>
				<path d="M135.5,134 L135.5,133.36 L131.65,133.36 L134.03,131.02 C134.476667,130.586667 134.78,130.203333 134.94,129.87 C135.1,129.536667 135.18,129.19 135.18,128.83 C135.18,128.243333 134.971667,127.781667 134.555,127.445 C134.138333,127.108333 133.573333,126.94 132.86,126.94 C132.326667,126.94 131.848333,127.026667 131.425,127.2 C131.001667,127.373333 130.653333,127.62 130.38,127.94 L130.38,127.94 L130.89,128.38 C131.343333,127.86 131.98,127.6 132.8,127.6 C133.326667,127.6 133.731667,127.715 134.015,127.945 C134.298333,128.175 134.44,128.496667 134.44,128.91 C134.44,129.176667 134.375,129.441667 134.245,129.705 C134.115,129.968333 133.866667,130.28 133.5,130.64 L133.5,130.64 L130.59,133.49 L130.59,134 L135.5,134 Z M139.15,134.06 C139.69,134.06 140.171667,133.916667 140.595,133.63 C141.018333,133.343333 141.35,132.931667 141.59,132.395 C141.83,131.858333 141.95,131.226667 141.95,130.5 C141.95,129.773333 141.83,129.141667 141.59,128.605 C141.35,128.068333 141.018333,127.656667 140.595,127.37 C140.171667,127.083333 139.69,126.94 139.15,126.94 C138.61,126.94 138.128333,127.083333 137.705,127.37 C137.281667,127.656667 136.951667,128.068333 136.715,128.605 C136.478333,129.141667 136.36,129.773333 136.36,130.5 C136.36,131.226667 136.478333,131.858333 136.715,132.395 C136.951667,132.931667 137.281667,133.343333 137.705,133.63 C138.128333,133.916667 138.61,134.06 139.15,134.06 Z M139.15,133.4 C138.743333,133.4 138.385,133.286667 138.075,133.06 C137.765,132.833333 137.523333,132.503333 137.35,132.07 C137.176667,131.636667 137.09,131.113333 137.09,130.5 C137.09,129.886667 137.176667,129.363333 137.35,128.93 C137.523333,128.496667 137.765,128.166667 138.075,127.94 C138.385,127.713333 138.743333,127.6 139.15,127.6 C139.556667,127.6 139.915,127.713333 140.225,127.94 C140.535,128.166667 140.776667,128.496667 140.95,128.93 C141.123333,129.363333 141.21,129.886667 141.21,130.5 C141.21,131.113333 141.123333,131.636667 140.95,132.07 C140.776667,132.503333 140.535,132.833333 140.225,133.06 C139.915,133.286667 139.556667,133.4 139.15,133.4 Z M147.74,134 L147.74,133.36 L143.89,133.36 L146.27,131.02 C146.716667,130.586667 147.02,130.203333 147.18,129.87 C147.34,129.536667 147.42,129.19 147.42,128.83 C147.42,128.243333 147.211667,127.781667 146.795,127.445 C146.378333,127.108333 145.813333,126.94 145.1,126.94 C144.566667,126.94 144.088333,127.026667 143.665,127.2 C143.241667,127.373333 142.893333,127.62 142.62,127.94 L142.62,127.94 L143.13,128.38 C143.583333,127.86 144.22,127.6 145.04,127.6 C145.566667,127.6 145.971667,127.715 146.255,127.945 C146.538333,128.175 146.68,128.496667 146.68,128.91 C146.68,129.176667 146.615,129.441667 146.485,129.705 C146.355,129.968333 146.106667,130.28 145.74,130.64 L145.74,130.64 L142.83,133.49 L142.83,134 L147.74,134 Z M153.42,134 L153.42,133.36 L149.57,133.36 L151.95,131.02 C152.396667,130.586667 152.7,130.203333 152.86,129.87 C153.02,129.536667 153.1,129.19 153.1,128.83 C153.1,128.243333 152.891667,127.781667 152.475,127.445 C152.058333,127.108333 151.493333,126.94 150.78,126.94 C150.246667,126.94 149.768333,127.026667 149.345,127.2 C148.921667,127.373333 148.573333,127.62 148.3,127.94 L148.3,127.94 L148.81,128.38 C149.263333,127.86 149.9,127.6 150.72,127.6 C151.246667,127.6 151.651667,127.715 151.935,127.945 C152.218333,128.175 152.36,128.496667 152.36,128.91 C152.36,129.176667 152.295,129.441667 152.165,129.705 C152.035,129.968333 151.786667,130.28 151.42,130.64 L151.42,130.64 L148.51,133.49 L148.51,134 L153.42,134 Z" id="2022" fill="#FFFFFF" fill-rule="nonzero"></path>
				<path d="M176.15,134 L176.15,133.36 L172.3,133.36 L174.68,131.02 C175.126667,130.586667 175.43,130.203333 175.59,129.87 C175.75,129.536667 175.83,129.19 175.83,128.83 C175.83,128.243333 175.621667,127.781667 175.205,127.445 C174.788333,127.108333 174.223333,126.94 173.51,126.94 C172.976667,126.94 172.498333,127.026667 172.075,127.2 C171.651667,127.373333 171.303333,127.62 171.03,127.94 L171.03,127.94 L171.54,128.38 C171.993333,127.86 172.63,127.6 173.45,127.6 C173.976667,127.6 174.381667,127.715 174.665,127.945 C174.948333,128.175 175.09,128.496667 175.09,128.91 C175.09,129.176667 175.025,129.441667 174.895,129.705 C174.765,129.968333 174.516667,130.28 174.15,130.64 L174.15,130.64 L171.24,133.49 L171.24,134 L176.15,134 Z M179.8,134.06 C180.34,134.06 180.821667,133.916667 181.245,133.63 C181.668333,133.343333 182,132.931667 182.24,132.395 C182.48,131.858333 182.6,131.226667 182.6,130.5 C182.6,129.773333 182.48,129.141667 182.24,128.605 C182,128.068333 181.668333,127.656667 181.245,127.37 C180.821667,127.083333 180.34,126.94 179.8,126.94 C179.26,126.94 178.778333,127.083333 178.355,127.37 C177.931667,127.656667 177.601667,128.068333 177.365,128.605 C177.128333,129.141667 177.01,129.773333 177.01,130.5 C177.01,131.226667 177.128333,131.858333 177.365,132.395 C177.601667,132.931667 177.931667,133.343333 178.355,133.63 C178.778333,133.916667 179.26,134.06 179.8,134.06 Z M179.8,133.4 C179.393333,133.4 179.035,133.286667 178.725,133.06 C178.415,132.833333 178.173333,132.503333 178,132.07 C177.826667,131.636667 177.74,131.113333 177.74,130.5 C177.74,129.886667 177.826667,129.363333 178,128.93 C178.173333,128.496667 178.415,128.166667 178.725,127.94 C179.035,127.713333 179.393333,127.6 179.8,127.6 C180.206667,127.6 180.565,127.713333 180.875,127.94 C181.185,128.166667 181.426667,128.496667 181.6,128.93 C181.773333,129.363333 181.86,129.886667 181.86,130.5 C181.86,131.113333 181.773333,131.636667 181.6,132.07 C181.426667,132.503333 181.185,132.833333 180.875,133.06 C180.565,133.286667 180.206667,133.4 179.8,133.4 Z M188.39,134 L188.39,133.36 L184.54,133.36 L186.92,131.02 C187.366667,130.586667 187.67,130.203333 187.83,129.87 C187.99,129.536667 188.07,129.19 188.07,128.83 C188.07,128.243333 187.861667,127.781667 187.445,127.445 C187.028333,127.108333 186.463333,126.94 185.75,126.94 C185.216667,126.94 184.738333,127.026667 184.315,127.2 C183.891667,127.373333 183.543333,127.62 183.27,127.94 L183.27,127.94 L183.78,128.38 C184.233333,127.86 184.87,127.6 185.69,127.6 C186.216667,127.6 186.621667,127.715 186.905,127.945 C187.188333,128.175 187.33,128.496667 187.33,128.91 C187.33,129.176667 187.265,129.441667 187.135,129.705 C187.005,129.968333 186.756667,130.28 186.39,130.64 L186.39,130.64 L183.48,133.49 L183.48,134 L188.39,134 Z M193.61,134 L193.61,132.16 L195.01,132.16 L195.01,131.52 L193.61,131.52 L193.61,129.9 L192.91,129.9 L192.91,131.52 L189.87,131.52 L193.45,127 L192.65,127 L188.94,131.64 L188.94,132.16 L192.89,132.16 L192.89,134 L193.61,134 Z" id="2024" fill="#FFFFFF" fill-rule="nonzero"></path>
				<path d="M217.315,134 L217.315,133.36 L213.465,133.36 L215.845,131.02 C216.291667,130.586667 216.595,130.203333 216.755,129.87 C216.915,129.536667 216.995,129.19 216.995,128.83 C216.995,128.243333 216.786667,127.781667 216.37,127.445 C215.953333,127.108333 215.388333,126.94 214.675,126.94 C214.141667,126.94 213.663333,127.026667 213.24,127.2 C212.816667,127.373333 212.468333,127.62 212.195,127.94 L212.195,127.94 L212.705,128.38 C213.158333,127.86 213.795,127.6 214.615,127.6 C215.141667,127.6 215.546667,127.715 215.83,127.945 C216.113333,128.175 216.255,128.496667 216.255,128.91 C216.255,129.176667 216.19,129.441667 216.06,129.705 C215.93,129.968333 215.681667,130.28 215.315,130.64 L215.315,130.64 L212.405,133.49 L212.405,134 L217.315,134 Z M220.965,134.06 C221.505,134.06 221.986667,133.916667 222.41,133.63 C222.833333,133.343333 223.165,132.931667 223.405,132.395 C223.645,131.858333 223.765,131.226667 223.765,130.5 C223.765,129.773333 223.645,129.141667 223.405,128.605 C223.165,128.068333 222.833333,127.656667 222.41,127.37 C221.986667,127.083333 221.505,126.94 220.965,126.94 C220.425,126.94 219.943333,127.083333 219.52,127.37 C219.096667,127.656667 218.766667,128.068333 218.53,128.605 C218.293333,129.141667 218.175,129.773333 218.175,130.5 C218.175,131.226667 218.293333,131.858333 218.53,132.395 C218.766667,132.931667 219.096667,133.343333 219.52,133.63 C219.943333,133.916667 220.425,134.06 220.965,134.06 Z M220.965,133.4 C220.558333,133.4 220.2,133.286667 219.89,133.06 C219.58,132.833333 219.338333,132.503333 219.165,132.07 C218.991667,131.636667 218.905,131.113333 218.905,130.5 C218.905,129.886667 218.991667,129.363333 219.165,128.93 C219.338333,128.496667 219.58,128.166667 219.89,127.94 C220.2,127.713333 220.558333,127.6 220.965,127.6 C221.371667,127.6 221.73,127.713333 222.04,127.94 C222.35,128.166667 222.591667,128.496667 222.765,128.93 C222.938333,129.363333 223.025,129.886667 223.025,130.5 C223.025,131.113333 222.938333,131.636667 222.765,132.07 C222.591667,132.503333 222.35,132.833333 222.04,133.06 C221.73,133.286667 221.371667,133.4 220.965,133.4 Z M229.555,134 L229.555,133.36 L225.705,133.36 L228.085,131.02 C228.531667,130.586667 228.835,130.203333 228.995,129.87 C229.155,129.536667 229.235,129.19 229.235,128.83 C229.235,128.243333 229.026667,127.781667 228.61,127.445 C228.193333,127.108333 227.628333,126.94 226.915,126.94 C226.381667,126.94 225.903333,127.026667 225.48,127.2 C225.056667,127.373333 224.708333,127.62 224.435,127.94 L224.435,127.94 L224.945,128.38 C225.398333,127.86 226.035,127.6 226.855,127.6 C227.381667,127.6 227.786667,127.715 228.07,127.945 C228.353333,128.175 228.495,128.496667 228.495,128.91 C228.495,129.176667 228.43,129.441667 228.3,129.705 C228.17,129.968333 227.921667,130.28 227.555,130.64 L227.555,130.64 L224.645,133.49 L224.645,134 L229.555,134 Z M233.285,134.06 C233.738333,134.06 234.146667,133.971667 234.51,133.795 C234.873333,133.618333 235.158333,133.366667 235.365,133.04 C235.571667,132.713333 235.675,132.336667 235.675,131.91 C235.675,131.49 235.575,131.121667 235.375,130.805 C235.175,130.488333 234.896667,130.243333 234.54,130.07 C234.183333,129.896667 233.775,129.81 233.315,129.81 C232.821667,129.81 232.385,129.915 232.005,130.125 C231.625,130.335 231.348333,130.63 231.175,131.01 C231.155,130.796667 231.145,130.606667 231.145,130.44 C231.145,129.506667 231.365,128.795 231.805,128.305 C232.245,127.815 232.851667,127.57 233.625,127.57 C234.198333,127.57 234.651667,127.68 234.985,127.9 L234.985,127.9 L235.275,127.32 C234.861667,127.066667 234.308333,126.94 233.615,126.94 C232.975,126.94 232.415,127.078333 231.935,127.355 C231.455,127.631667 231.081667,128.04 230.815,128.58 C230.548333,129.12 230.415,129.78 230.415,130.56 C230.415,131.673333 230.661667,132.535 231.155,133.145 C231.648333,133.755 232.358333,134.06 233.285,134.06 Z M233.255,133.45 C232.868333,133.45 232.535,133.38 232.255,133.24 C231.975,133.1 231.763333,132.916667 231.62,132.69 C231.476667,132.463333 231.405,132.216667 231.405,131.95 C231.405,131.663333 231.481667,131.403333 231.635,131.17 C231.788333,130.936667 232,130.753333 232.27,130.62 C232.54,130.486667 232.851667,130.42 233.205,130.42 C233.745,130.42 234.173333,130.556667 234.49,130.83 C234.806667,131.103333 234.965,131.47 234.965,131.93 C234.965,132.39 234.806667,132.758333 234.49,133.035 C234.173333,133.311667 233.761667,133.45 233.255,133.45 Z" id="2026" fill="#FFFFFF" fill-rule="nonzero"></path>
				<path d="M258.415,134 L258.415,133.36 L254.565,133.36 L256.945,131.02 C257.391667,130.586667 257.695,130.203333 257.855,129.87 C258.015,129.536667 258.095,129.19 258.095,128.83 C258.095,128.243333 257.886667,127.781667 257.47,127.445 C257.053333,127.108333 256.488333,126.94 255.775,126.94 C255.241667,126.94 254.763333,127.026667 254.34,127.2 C253.916667,127.373333 253.568333,127.62 253.295,127.94 L253.295,127.94 L253.805,128.38 C254.258333,127.86 254.895,127.6 255.715,127.6 C256.241667,127.6 256.646667,127.715 256.93,127.945 C257.213333,128.175 257.355,128.496667 257.355,128.91 C257.355,129.176667 257.29,129.441667 257.16,129.705 C257.03,129.968333 256.781667,130.28 256.415,130.64 L256.415,130.64 L253.505,133.49 L253.505,134 L258.415,134 Z M262.065,134.06 C262.605,134.06 263.086667,133.916667 263.51,133.63 C263.933333,133.343333 264.265,132.931667 264.505,132.395 C264.745,131.858333 264.865,131.226667 264.865,130.5 C264.865,129.773333 264.745,129.141667 264.505,128.605 C264.265,128.068333 263.933333,127.656667 263.51,127.37 C263.086667,127.083333 262.605,126.94 262.065,126.94 C261.525,126.94 261.043333,127.083333 260.62,127.37 C260.196667,127.656667 259.866667,128.068333 259.63,128.605 C259.393333,129.141667 259.275,129.773333 259.275,130.5 C259.275,131.226667 259.393333,131.858333 259.63,132.395 C259.866667,132.931667 260.196667,133.343333 260.62,133.63 C261.043333,133.916667 261.525,134.06 262.065,134.06 Z M262.065,133.4 C261.658333,133.4 261.3,133.286667 260.99,133.06 C260.68,132.833333 260.438333,132.503333 260.265,132.07 C260.091667,131.636667 260.005,131.113333 260.005,130.5 C260.005,129.886667 260.091667,129.363333 260.265,128.93 C260.438333,128.496667 260.68,128.166667 260.99,127.94 C261.3,127.713333 261.658333,127.6 262.065,127.6 C262.471667,127.6 262.83,127.713333 263.14,127.94 C263.45,128.166667 263.691667,128.496667 263.865,128.93 C264.038333,129.363333 264.125,129.886667 264.125,130.5 C264.125,131.113333 264.038333,131.636667 263.865,132.07 C263.691667,132.503333 263.45,132.833333 263.14,133.06 C262.83,133.286667 262.471667,133.4 262.065,133.4 Z M270.655,134 L270.655,133.36 L266.805,133.36 L269.185,131.02 C269.631667,130.586667 269.935,130.203333 270.095,129.87 C270.255,129.536667 270.335,129.19 270.335,128.83 C270.335,128.243333 270.126667,127.781667 269.71,127.445 C269.293333,127.108333 268.728333,126.94 268.015,126.94 C267.481667,126.94 267.003333,127.026667 266.58,127.2 C266.156667,127.373333 265.808333,127.62 265.535,127.94 L265.535,127.94 L266.045,128.38 C266.498333,127.86 267.135,127.6 267.955,127.6 C268.481667,127.6 268.886667,127.715 269.17,127.945 C269.453333,128.175 269.595,128.496667 269.595,128.91 C269.595,129.176667 269.53,129.441667 269.4,129.705 C269.27,129.968333 269.021667,130.28 268.655,130.64 L268.655,130.64 L265.745,133.49 L265.745,134 L270.655,134 Z M273.525,134 L276.455,127.51 L276.455,127 L271.315,127 L271.315,128.95 L272.025,128.95 L272.025,127.64 L275.625,127.64 L272.745,134 L273.525,134 Z" id="2027" fill="#FFFFFF" fill-rule="nonzero"></path>
			</g>
		</g>
	</g>
</svg>
