<?xml version="1.0" encoding="UTF-8"?>
<svg width="1536px" height="203px" viewBox="0 0 1536 203" version="1.1" xmlns="http://www.w3.org/2000/svg" xmlns:xlink="http://www.w3.org/1999/xlink">
	<title>Group</title>
	<g id="Desktop" stroke="none" stroke-width="1" fill="none" fill-rule="evenodd">
		<g id="Artboard-Copy" transform="translate(-192.000000, -366.000000)">
			<rect id="Mask-Copy-4" fill="#231D3D" x="0" y="0" width="1920" height="805"></rect>
			<g id="Group" transform="translate(192.000000, 366.000000)">
				<path d="M8,119 L98,119 C102.418278,119 106,122.581722 106,127 L106,169 L106,169 L0,169 L0,127 C-5.41083001e-16,122.581722 3.581722,119 8,119 Z" id="Rectangle" fill="#55439D"></path>
				<path d="M138,115 L228,115 C232.418278,115 236,118.581722 236,123 L236,169 L236,169 L130,169 L130,123 C130,118.581722 133.581722,115 138,115 Z" id="Rectangle-Copy-20" fill="#55439D"></path>
				<path d="M268,110 L358,110 C362.418278,110 366,113.581722 366,118 L366,169 L366,169 L260,169 L260,118 C260,113.581722 263.581722,110 268,110 Z" id="Rectangle-Copy-21" fill="#55439D"></path>
				<path d="M398,103 L488,103 C492.418278,103 496,106.581722 496,111 L496,169 L496,169 L390,169 L390,111 C390,106.581722 393.581722,103 398,103 Z" id="Rectangle-Copy-22" fill="#55439D"></path>
				<path d="M528,95 L618,95 C622.418278,95 626,98.581722 626,103 L626,169 L626,169 L520,169 L520,103 C520,98.581722 523.581722,95 528,95 Z" id="Rectangle-Copy-23" fill="#55439D"></path>
				<path d="M658,86 L748,86 C752.418278,86 756,89.581722 756,94 L756,169 L756,169 L650,169 L650,94 C650,89.581722 653.581722,86 658,86 Z" id="Rectangle-Copy-24" fill="#55439D"></path>
				<path d="M788,76 L878,76 C882.418278,76 886,79.581722 886,84 L886,169 L886,169 L780,169 L780,84 C780,79.581722 783.581722,76 788,76 Z" id="Rectangle-Copy-25" fill="#55439D"></path>
				<path d="M918,65 L1008,65 C1012.41828,65 1016,68.581722 1016,73 L1016,169 L1016,169 L910,169 L910,73 C910,68.581722 913.581722,65 918,65 Z" id="Rectangle-Copy-26" fill="#55439D"></path>
				<path d="M1048,52 L1138,52 C1142.41828,52 1146,55.581722 1146,60 L1146,169 L1146,169 L1040,169 L1040,60 C1040,55.581722 1043.58172,52 1048,52 Z" id="Rectangle-Copy-63" fill="#55439D"></path>
				<path d="M1178,37 L1268,37 C1272.41828,37 1276,40.581722 1276,45 L1276,169 L1276,169 L1170,169 L1170,45 C1170,40.581722 1173.58172,37 1178,37 Z" id="Rectangle-Copy-64" fill="#55439D"></path>
				<path d="M1308,20 L1398,20 C1402.41828,20 1406,23.581722 1406,28 L1406,169 L1406,169 L1300,169 L1300,28 C1300,23.581722 1303.58172,20 1308,20 Z" id="Rectangle-Copy-65" fill="#55439D"></path>
				<path d="M1438,0 L1528,0 C1532.41828,-8.11624501e-16 1536,3.581722 1536,8 L1536,169 L1536,169 L1430,169 L1430,8 C1430,3.581722 1433.58172,8.11624501e-16 1438,0 Z" id="Rectangle-Copy-66" fill="#55439D"></path>
				<path d="M40.039,153 L40.039,149.568 L32.213,149.568 L36.399,145.616 C37.595,144.506667 38.401,143.518667 38.817,142.652 C39.233,141.785333 39.441,140.858 39.441,139.87 C39.441,138.778 39.1593333,137.829 38.596,137.023 C38.0326667,136.217 37.244,135.593 36.23,135.151 C35.216,134.709 34.033,134.488 32.681,134.488 C31.069,134.488 29.639,134.787 28.391,135.385 C27.143,135.983 26.1636667,136.810667 25.453,137.868 L25.453,137.868 L28.521,139.844 C28.9543333,139.237333 29.4916667,138.782333 30.133,138.479 C30.7743333,138.175667 31.4936667,138.024 32.291,138.024 C33.2443333,138.024 33.968,138.219 34.462,138.609 C34.956,138.999 35.203,139.558 35.203,140.286 C35.203,140.788667 35.073,141.295667 34.813,141.807 C34.553,142.318333 34.0503333,142.929333 33.305,143.64 L33.305,143.64 L26.285,150.27 L26.285,153 L40.039,153 Z M49.867,153.312 C51.1496667,153.312 52.3153333,153.065 53.364,152.571 C54.4126667,152.077 55.2403333,151.370667 55.847,150.452 C56.4536667,149.533333 56.757,148.467333 56.757,147.254 C56.757,146.127333 56.4796667,145.135 55.925,144.277 C55.3703333,143.419 54.6163333,142.756 53.663,142.288 C52.7096667,141.82 51.6523333,141.586 50.491,141.586 C48.567,141.586 47.0676667,142.123333 45.993,143.198 C46.0623333,141.482 46.5476667,140.173333 47.449,139.272 C48.3503333,138.370667 49.5723333,137.92 51.115,137.92 C52.4843333,137.92 53.6196667,138.223333 54.521,138.83 L54.521,138.83 L56.081,135.736 C55.457,135.337333 54.6986667,135.029667 53.806,134.813 C52.9133333,134.596333 51.9816667,134.488 51.011,134.488 C49.1736667,134.488 47.5573333,134.869333 46.162,135.632 C44.7666667,136.394667 43.679,137.512667 42.899,138.986 C42.119,140.459333 41.729,142.227333 41.729,144.29 C41.729,147.184667 42.4483333,149.412 43.887,150.972 C45.3256667,152.532 47.319,153.312 49.867,153.312 Z M49.633,150.166 C48.645,150.166 47.865,149.914667 47.293,149.412 C46.721,148.909333 46.435,148.259333 46.435,147.462 C46.435,146.664667 46.7296667,146.010333 47.319,145.499 C47.9083333,144.987667 48.6623333,144.732 49.581,144.732 C50.517,144.732 51.2666667,144.979 51.83,145.473 C52.3933333,145.967 52.675,146.63 52.675,147.462 C52.675,148.294 52.3933333,148.952667 51.83,149.438 C51.2666667,149.923333 50.5343333,150.166 49.633,150.166 Z M60.943,153.208 C61.6536667,153.208 62.2516667,152.965333 62.737,152.48 C63.2223333,151.994667 63.465,151.388 63.465,150.66 C63.465,149.914667 63.2223333,149.312333 62.737,148.853 C62.2516667,148.393667 61.6536667,148.164 60.943,148.164 C60.2323333,148.164 59.6343333,148.393667 59.149,148.853 C58.6636667,149.312333 58.421,149.914667 58.421,150.66 C58.421,151.388 58.6636667,151.994667 59.149,152.48 C59.6343333,152.965333 60.2323333,153.208 60.943,153.208 Z M73.163,153.312 C74.4456667,153.312 75.6113333,153.065 76.66,152.571 C77.7086667,152.077 78.5363333,151.370667 79.143,150.452 C79.7496667,149.533333 80.053,148.467333 80.053,147.254 C80.053,146.127333 79.7756667,145.135 79.221,144.277 C78.6663333,143.419 77.9123333,142.756 76.959,142.288 C76.0056667,141.82 74.9483333,141.586 73.787,141.586 C71.863,141.586 70.3636667,142.123333 69.289,143.198 C69.3583333,141.482 69.8436667,140.173333 70.745,139.272 C71.6463333,138.370667 72.8683333,137.92 74.411,137.92 C75.7803333,137.92 76.9156667,138.223333 77.817,138.83 L77.817,138.83 L79.377,135.736 C78.753,135.337333 77.9946667,135.029667 77.102,134.813 C76.2093333,134.596333 75.2776667,134.488 74.307,134.488 C72.4696667,134.488 70.8533333,134.869333 69.458,135.632 C68.0626667,136.394667 66.975,137.512667 66.195,138.986 C65.415,140.459333 65.025,142.227333 65.025,144.29 C65.025,147.184667 65.7443333,149.412 67.183,150.972 C68.6216667,152.532 70.615,153.312 73.163,153.312 Z M72.929,150.166 C71.941,150.166 71.161,149.914667 70.589,149.412 C70.017,148.909333 69.731,148.259333 69.731,147.462 C69.731,146.664667 70.0256667,146.010333 70.615,145.499 C71.2043333,144.987667 71.9583333,144.732 72.877,144.732 C73.813,144.732 74.5626667,144.979 75.126,145.473 C75.6893333,145.967 75.971,146.63 75.971,147.462 C75.971,148.294 75.6893333,148.952667 75.126,149.438 C74.5626667,149.923333 73.8303333,150.166 72.929,150.166 Z" id="26.6" fill="#FFFFFF" fill-rule="nonzero"></path>
				<path d="M173.536,151 L173.536,147.568 L165.71,147.568 L169.896,143.616 C171.092,142.506667 171.898,141.518667 172.314,140.652 C172.73,139.785333 172.938,138.858 172.938,137.87 C172.938,136.778 172.656333,135.829 172.093,135.023 C171.529667,134.217 170.741,133.593 169.727,133.151 C168.713,132.709 167.53,132.488 166.178,132.488 C164.566,132.488 163.136,132.787 161.888,133.385 C160.64,133.983 159.660667,134.810667 158.95,135.868 L158.95,135.868 L162.018,137.844 C162.451333,137.237333 162.988667,136.782333 163.63,136.479 C164.271333,136.175667 164.990667,136.024 165.788,136.024 C166.741333,136.024 167.465,136.219 167.959,136.609 C168.453,136.999 168.7,137.558 168.7,138.286 C168.7,138.788667 168.57,139.295667 168.31,139.807 C168.05,140.318333 167.547333,140.929333 166.802,141.64 L166.802,141.64 L159.782,148.27 L159.782,151 L173.536,151 Z M180.53,151.312 C182.367333,151.312 183.988,150.930667 185.392,150.168 C186.796,149.405333 187.883667,148.287333 188.655,146.814 C189.426333,145.340667 189.812,143.572667 189.812,141.51 C189.812,138.598 189.092667,136.366333 187.654,134.815 C186.215333,133.263667 184.222,132.488 181.674,132.488 C180.391333,132.488 179.225667,132.735 178.177,133.229 C177.128333,133.723 176.300667,134.429333 175.694,135.348 C175.087333,136.266667 174.784,137.332667 174.784,138.546 C174.784,139.672667 175.061333,140.665 175.616,141.523 C176.170667,142.381 176.924667,143.044 177.878,143.512 C178.831333,143.98 179.888667,144.214 181.05,144.214 C182.974,144.214 184.482,143.668 185.574,142.576 C185.504667,144.292 185.019333,145.605 184.118,146.515 C183.216667,147.425 181.994667,147.88 180.452,147.88 C179.065333,147.88 177.93,147.576667 177.046,146.97 L177.046,146.97 L175.486,150.064 C176.11,150.462667 176.864,150.770333 177.748,150.987 C178.632,151.203667 179.559333,151.312 180.53,151.312 Z M181.986,141.068 C181.05,141.068 180.300333,140.821 179.737,140.327 C179.173667,139.833 178.892,139.17 178.892,138.338 C178.892,137.506 179.173667,136.847333 179.737,136.362 C180.300333,135.876667 181.032667,135.634 181.934,135.634 C182.922,135.634 183.697667,135.885333 184.261,136.388 C184.824333,136.890667 185.106,137.540667 185.106,138.338 C185.106,139.135333 184.815667,139.789667 184.235,140.301 C183.654333,140.812333 182.904667,141.068 181.986,141.068 Z M193.894,151.208 C194.604667,151.208 195.202667,150.965333 195.688,150.48 C196.173333,149.994667 196.416,149.388 196.416,148.66 C196.416,147.914667 196.173333,147.312333 195.688,146.853 C195.202667,146.393667 194.604667,146.164 193.894,146.164 C193.183333,146.164 192.585333,146.393667 192.1,146.853 C191.614667,147.312333 191.372,147.914667 191.372,148.66 C191.372,149.388 191.614667,149.994667 192.1,150.48 C192.585333,150.965333 193.183333,151.208 193.894,151.208 Z M204.918,151 L204.918,132.8 L197.066,132.8 L197.066,136.18 L200.706,136.18 L200.706,151 L204.918,151 Z" id="29.1" fill="#FFFFFF" fill-rule="nonzero"></path>
				<path d="M293.227,149.312 C294.873667,149.312 296.264667,149.043333 297.4,148.506 C298.535333,147.968667 299.380333,147.253667 299.935,146.361 C300.489667,145.468333 300.767,144.493333 300.767,143.436 C300.767,142.066667 300.342333,140.918333 299.493,139.991 C298.643667,139.063667 297.421667,138.47 295.827,138.21 L295.827,138.21 L299.935,133.53 L299.935,130.8 L287.195,130.8 L287.195,134.18 L294.943,134.18 L291.199,138.418 L291.199,141.2 L293.123,141.2 C295.393667,141.2 296.529,141.945333 296.529,143.436 C296.529,144.181333 296.225667,144.757667 295.619,145.165 C295.012333,145.572333 294.180333,145.776 293.123,145.776 C292.169667,145.776 291.238,145.633 290.328,145.347 C289.418,145.061 288.616333,144.658 287.923,144.138 L287.923,144.138 L286.285,147.362 C287.151667,147.986 288.204667,148.467 289.444,148.805 C290.683333,149.143 291.944333,149.312 293.227,149.312 Z M316.185,149 L316.185,145.568 L308.359,145.568 L312.545,141.616 C313.741,140.506667 314.547,139.518667 314.963,138.652 C315.379,137.785333 315.587,136.858 315.587,135.87 C315.587,134.778 315.305333,133.829 314.742,133.023 C314.178667,132.217 313.39,131.593 312.376,131.151 C311.362,130.709 310.179,130.488 308.827,130.488 C307.215,130.488 305.785,130.787 304.537,131.385 C303.289,131.983 302.309667,132.810667 301.599,133.868 L301.599,133.868 L304.667,135.844 C305.100333,135.237333 305.637667,134.782333 306.279,134.479 C306.920333,134.175667 307.639667,134.024 308.437,134.024 C309.390333,134.024 310.114,134.219 310.608,134.609 C311.102,134.999 311.349,135.558 311.349,136.286 C311.349,136.788667 311.219,137.295667 310.959,137.807 C310.699,138.318333 310.196333,138.929333 309.451,139.64 L309.451,139.64 L302.431,146.27 L302.431,149 L316.185,149 Z M320.579,149.208 C321.289667,149.208 321.887667,148.965333 322.373,148.48 C322.858333,147.994667 323.101,147.388 323.101,146.66 C323.101,145.914667 322.858333,145.312333 322.373,144.853 C321.887667,144.393667 321.289667,144.164 320.579,144.164 C319.868333,144.164 319.270333,144.393667 318.785,144.853 C318.299667,145.312333 318.057,145.914667 318.057,146.66 C318.057,147.388 318.299667,147.994667 318.785,148.48 C319.270333,148.965333 319.868333,149.208 320.579,149.208 Z M332.071,149 L338.831,133.53 L338.831,130.8 L324.245,130.8 L324.245,137.196 L327.989,137.196 L327.989,134.232 L334.021,134.232 L327.495,149 L332.071,149 Z" id="32.7" fill="#FFFFFF" fill-rule="nonzero"></path>
				<path d="M422.252,145.312 C423.898667,145.312 425.289667,145.043333 426.425,144.506 C427.560333,143.968667 428.405333,143.253667 428.96,142.361 C429.514667,141.468333 429.792,140.493333 429.792,139.436 C429.792,138.066667 429.367333,136.918333 428.518,135.991 C427.668667,135.063667 426.446667,134.47 424.852,134.21 L424.852,134.21 L428.96,129.53 L428.96,126.8 L416.22,126.8 L416.22,130.18 L423.968,130.18 L420.224,134.418 L420.224,137.2 L422.148,137.2 C424.418667,137.2 425.554,137.945333 425.554,139.436 C425.554,140.181333 425.250667,140.757667 424.644,141.165 C424.037333,141.572333 423.205333,141.776 422.148,141.776 C421.194667,141.776 420.263,141.633 419.353,141.347 C418.443,141.061 417.641333,140.658 416.948,140.138 L416.948,140.138 L415.31,143.362 C416.176667,143.986 417.229667,144.467 418.469,144.805 C419.708333,145.143 420.969333,145.312 422.252,145.312 Z M439.282,145.312 C440.807333,145.312 442.150667,145.082333 443.312,144.623 C444.473333,144.163667 445.374667,143.513667 446.016,142.673 C446.657333,141.832333 446.978,140.848667 446.978,139.722 C446.978,138.768667 446.739667,137.928 446.263,137.2 C445.786333,136.472 445.097333,135.882667 444.196,135.432 C444.889333,135.016 445.418,134.491667 445.782,133.859 C446.146,133.226333 446.328,132.502667 446.328,131.688 C446.328,130.630667 446.033333,129.712 445.444,128.932 C444.854667,128.152 444.027,127.549667 442.961,127.125 C441.895,126.700333 440.668667,126.488 439.282,126.488 C437.912667,126.488 436.699333,126.700333 435.642,127.125 C434.584667,127.549667 433.761333,128.152 433.172,128.932 C432.582667,129.712 432.288,130.630667 432.288,131.688 C432.288,132.502667 432.47,133.226333 432.834,133.859 C433.198,134.491667 433.718,135.016 434.394,135.432 C433.51,135.882667 432.829667,136.472 432.353,137.2 C431.876333,137.928 431.638,138.768667 431.638,139.722 C431.638,140.848667 431.954333,141.832333 432.587,142.673 C433.219667,143.513667 434.112333,144.163667 435.265,144.623 C436.417667,145.082333 437.756667,145.312 439.282,145.312 Z M439.282,134.106 C438.415333,134.106 437.730667,133.906667 437.228,133.508 C436.725333,133.109333 436.474,132.563333 436.474,131.87 C436.474,131.159333 436.729667,130.600333 437.241,130.193 C437.752333,129.785667 438.432667,129.582 439.282,129.582 C440.148667,129.582 440.842,129.785667 441.362,130.193 C441.882,130.600333 442.142,131.159333 442.142,131.87 C442.142,132.563333 441.882,133.109333 441.362,133.508 C440.842,133.906667 440.148667,134.106 439.282,134.106 Z M439.282,142.218 C438.242,142.218 437.418667,141.984 436.812,141.516 C436.205333,141.048 435.902,140.406667 435.902,139.592 C435.902,138.794667 436.205333,138.162 436.812,137.694 C437.418667,137.226 438.242,136.992 439.282,136.992 C440.339333,136.992 441.175667,137.226 441.791,137.694 C442.406333,138.162 442.714,138.794667 442.714,139.592 C442.714,140.389333 442.406333,141.026333 441.791,141.503 C441.175667,141.979667 440.339333,142.218 439.282,142.218 Z M451.554,145.208 C452.264667,145.208 452.862667,144.965333 453.348,144.48 C453.833333,143.994667 454.076,143.388 454.076,142.66 C454.076,141.914667 453.833333,141.312333 453.348,140.853 C452.862667,140.393667 452.264667,140.164 451.554,140.164 C450.843333,140.164 450.245333,140.393667 449.76,140.853 C449.274667,141.312333 449.032,141.914667 449.032,142.66 C449.032,143.388 449.274667,143.994667 449.76,144.48 C450.245333,144.965333 450.843333,145.208 451.554,145.208 Z M463.046,145 L469.806,129.53 L469.806,126.8 L455.22,126.8 L455.22,133.196 L458.964,133.196 L458.964,130.232 L464.996,130.232 L458.47,145 L463.046,145 Z" id="38.7" fill="#FFFFFF" fill-rule="nonzero"></path>
				<path d="M559.792,141 L559.792,137.178 L562.756,137.178 L562.756,133.746 L559.792,133.746 L559.792,130.34 L555.814,130.34 L555.814,133.746 L550.926,133.746 L558.882,122.8 L554.462,122.8 L545.882,134.344 L545.882,137.178 L555.684,137.178 L555.684,141 L559.792,141 Z M570.14,141.312 C571.804,141.312 573.203667,141.039 574.339,140.493 C575.474333,139.947 576.319333,139.219 576.874,138.309 C577.428667,137.399 577.706,136.389333 577.706,135.28 C577.706,133.564 577.095,132.194667 575.873,131.172 C574.651,130.149333 572.757333,129.638 570.192,129.638 L570.192,129.638 L568.71,129.638 L568.996,126.18 L576.588,126.18 L576.588,122.8 L565.486,122.8 L564.55,133.044 L569.204,133.044 C570.764,133.044 571.860333,133.243333 572.493,133.642 C573.125667,134.040667 573.442,134.63 573.442,135.41 C573.442,136.155333 573.138667,136.736 572.532,137.152 C571.925333,137.568 571.093333,137.776 570.036,137.776 C569.082667,137.776 568.155333,137.633 567.254,137.347 C566.352667,137.061 565.555333,136.658 564.862,136.138 L564.862,136.138 L563.198,139.362 C564.064667,139.986 565.117667,140.467 566.357,140.805 C567.596333,141.143 568.857333,141.312 570.14,141.312 Z M581.814,141.208 C582.524667,141.208 583.122667,140.965333 583.608,140.48 C584.093333,139.994667 584.336,139.388 584.336,138.66 C584.336,137.914667 584.093333,137.312333 583.608,136.853 C583.122667,136.393667 582.524667,136.164 581.814,136.164 C581.103333,136.164 580.505333,136.393667 580.02,136.853 C579.534667,137.312333 579.292,137.914667 579.292,138.66 C579.292,139.388 579.534667,139.994667 580.02,140.48 C580.505333,140.965333 581.103333,141.208 581.814,141.208 Z M593.306,141 L600.066,125.53 L600.066,122.8 L585.48,122.8 L585.48,129.196 L589.224,129.196 L589.224,126.232 L595.256,126.232 L588.73,141 L593.306,141 Z" id="45.7" fill="#FFFFFF" fill-rule="nonzero"></path>
				<path d="M683.045,137.312 C684.709,137.312 686.108667,137.039 687.244,136.493 C688.379333,135.947 689.224333,135.219 689.779,134.309 C690.333667,133.399 690.611,132.389333 690.611,131.28 C690.611,129.564 690,128.194667 688.778,127.172 C687.556,126.149333 685.662333,125.638 683.097,125.638 L683.097,125.638 L681.615,125.638 L681.901,122.18 L689.493,122.18 L689.493,118.8 L678.391,118.8 L677.455,129.044 L682.109,129.044 C683.669,129.044 684.765333,129.243333 685.398,129.642 C686.030667,130.040667 686.347,130.63 686.347,131.41 C686.347,132.155333 686.043667,132.736 685.437,133.152 C684.830333,133.568 683.998333,133.776 682.941,133.776 C681.987667,133.776 681.060333,133.633 680.159,133.347 C679.257667,133.061 678.460333,132.658 677.767,132.138 L677.767,132.138 L676.103,135.362 C676.969667,135.986 678.022667,136.467 679.262,136.805 C680.501333,137.143 681.762333,137.312 683.045,137.312 Z M705.795,137 L705.795,133.568 L697.969,133.568 L702.155,129.616 C703.351,128.506667 704.157,127.518667 704.573,126.652 C704.989,125.785333 705.197,124.858 705.197,123.87 C705.197,122.778 704.915333,121.829 704.352,121.023 C703.788667,120.217 703,119.593 701.986,119.151 C700.972,118.709 699.789,118.488 698.437,118.488 C696.825,118.488 695.395,118.787 694.147,119.385 C692.899,119.983 691.919667,120.810667 691.209,121.868 L691.209,121.868 L694.277,123.844 C694.710333,123.237333 695.247667,122.782333 695.889,122.479 C696.530333,122.175667 697.249667,122.024 698.047,122.024 C699.000333,122.024 699.724,122.219 700.218,122.609 C700.712,122.999 700.959,123.558 700.959,124.286 C700.959,124.788667 700.829,125.295667 700.569,125.807 C700.309,126.318333 699.806333,126.929333 699.061,127.64 L699.061,127.64 L692.041,134.27 L692.041,137 L705.795,137 Z M710.189,137.208 C710.899667,137.208 711.497667,136.965333 711.983,136.48 C712.468333,135.994667 712.711,135.388 712.711,134.66 C712.711,133.914667 712.468333,133.312333 711.983,132.853 C711.497667,132.393667 710.899667,132.164 710.189,132.164 C709.478333,132.164 708.880333,132.393667 708.395,132.853 C707.909667,133.312333 707.667,133.914667 707.667,134.66 C707.667,135.388 707.909667,135.994667 708.395,136.48 C708.880333,136.965333 709.478333,137.208 710.189,137.208 Z M719.861,137.312 C721.698333,137.312 723.319,136.930667 724.723,136.168 C726.127,135.405333 727.214667,134.287333 727.986,132.814 C728.757333,131.340667 729.143,129.572667 729.143,127.51 C729.143,124.598 728.423667,122.366333 726.985,120.815 C725.546333,119.263667 723.553,118.488 721.005,118.488 C719.722333,118.488 718.556667,118.735 717.508,119.229 C716.459333,119.723 715.631667,120.429333 715.025,121.348 C714.418333,122.266667 714.115,123.332667 714.115,124.546 C714.115,125.672667 714.392333,126.665 714.947,127.523 C715.501667,128.381 716.255667,129.044 717.209,129.512 C718.162333,129.98 719.219667,130.214 720.381,130.214 C722.305,130.214 723.813,129.668 724.905,128.576 C724.835667,130.292 724.350333,131.605 723.449,132.515 C722.547667,133.425 721.325667,133.88 719.783,133.88 C718.396333,133.88 717.261,133.576667 716.377,132.97 L716.377,132.97 L714.817,136.064 C715.441,136.462667 716.195,136.770333 717.079,136.987 C717.963,137.203667 718.890333,137.312 719.861,137.312 Z M721.317,127.068 C720.381,127.068 719.631333,126.821 719.068,126.327 C718.504667,125.833 718.223,125.17 718.223,124.338 C718.223,123.506 718.504667,122.847333 719.068,122.362 C719.631333,121.876667 720.363667,121.634 721.265,121.634 C722.253,121.634 723.028667,121.885333 723.592,122.388 C724.155333,122.890667 724.437,123.540667 724.437,124.338 C724.437,125.135333 724.146667,125.789667 723.566,126.301 C722.985333,126.812333 722.235667,127.068 721.317,127.068 Z" id="52.9" fill="#FFFFFF" fill-rule="nonzero"></path>
				<path d="M814.007,132.312 C815.289667,132.312 816.455333,132.065 817.504,131.571 C818.552667,131.077 819.380333,130.370667 819.987,129.452 C820.593667,128.533333 820.897,127.467333 820.897,126.254 C820.897,125.127333 820.619667,124.135 820.065,123.277 C819.510333,122.419 818.756333,121.756 817.803,121.288 C816.849667,120.82 815.792333,120.586 814.631,120.586 C812.707,120.586 811.207667,121.123333 810.133,122.198 C810.202333,120.482 810.687667,119.173333 811.589,118.272 C812.490333,117.370667 813.712333,116.92 815.255,116.92 C816.624333,116.92 817.759667,117.223333 818.661,117.83 L818.661,117.83 L820.221,114.736 C819.597,114.337333 818.838667,114.029667 817.946,113.813 C817.053333,113.596333 816.121667,113.488 815.151,113.488 C813.313667,113.488 811.697333,113.869333 810.302,114.632 C808.906667,115.394667 807.819,116.512667 807.039,117.986 C806.259,119.459333 805.869,121.227333 805.869,123.29 C805.869,126.184667 806.588333,128.412 808.027,129.972 C809.465667,131.532 811.459,132.312 814.007,132.312 Z M813.773,129.166 C812.785,129.166 812.005,128.914667 811.433,128.412 C810.861,127.909333 810.575,127.259333 810.575,126.462 C810.575,125.664667 810.869667,125.010333 811.459,124.499 C812.048333,123.987667 812.802333,123.732 813.721,123.732 C814.657,123.732 815.406667,123.979 815.97,124.473 C816.533333,124.967 816.815,125.63 816.815,126.462 C816.815,127.294 816.533333,127.952667 815.97,128.438 C815.406667,128.923333 814.674333,129.166 813.773,129.166 Z M830.231,132.312 C831.739,132.312 833.082333,131.939333 834.261,131.194 C835.439667,130.448667 836.362667,129.369667 837.03,127.957 C837.697333,126.544333 838.031,124.858667 838.031,122.9 C838.031,120.941333 837.697333,119.255667 837.03,117.843 C836.362667,116.430333 835.439667,115.351333 834.261,114.606 C833.082333,113.860667 831.739,113.488 830.231,113.488 C828.723,113.488 827.379667,113.860667 826.201,114.606 C825.022333,115.351333 824.099333,116.430333 823.432,117.843 C822.764667,119.255667 822.431,120.941333 822.431,122.9 C822.431,124.858667 822.764667,126.544333 823.432,127.957 C824.099333,129.369667 825.022333,130.448667 826.201,131.194 C827.379667,131.939333 828.723,132.312 830.231,132.312 Z M830.231,128.75 C829.139,128.75 828.276667,128.273333 827.644,127.32 C827.011333,126.366667 826.695,124.893333 826.695,122.9 C826.695,120.906667 827.011333,119.433333 827.644,118.48 C828.276667,117.526667 829.139,117.05 830.231,117.05 C831.340333,117.05 832.211333,117.526667 832.844,118.48 C833.476667,119.433333 833.793,120.906667 833.793,122.9 C833.793,124.893333 833.476667,126.366667 832.844,127.32 C832.211333,128.273333 831.340333,128.75 830.231,128.75 Z M842.139,132.208 C842.849667,132.208 843.447667,131.965333 843.933,131.48 C844.418333,130.994667 844.661,130.388 844.661,129.66 C844.661,128.914667 844.418333,128.312333 843.933,127.853 C843.447667,127.393667 842.849667,127.164 842.139,127.164 C841.428333,127.164 840.830333,127.393667 840.345,127.853 C839.859667,128.312333 839.617,128.914667 839.617,129.66 C839.617,130.388 839.859667,130.994667 840.345,131.48 C840.830333,131.965333 841.428333,132.208 842.139,132.208 Z M860.417,132 L860.417,128.568 L852.591,128.568 L856.777,124.616 C857.973,123.506667 858.779,122.518667 859.195,121.652 C859.611,120.785333 859.819,119.858 859.819,118.87 C859.819,117.778 859.537333,116.829 858.974,116.023 C858.410667,115.217 857.622,114.593 856.608,114.151 C855.594,113.709 854.411,113.488 853.059,113.488 C851.447,113.488 850.017,113.787 848.769,114.385 C847.521,114.983 846.541667,115.810667 845.831,116.868 L845.831,116.868 L848.899,118.844 C849.332333,118.237333 849.869667,117.782333 850.511,117.479 C851.152333,117.175667 851.871667,117.024 852.669,117.024 C853.622333,117.024 854.346,117.219 854.84,117.609 C855.334,117.999 855.581,118.558 855.581,119.286 C855.581,119.788667 855.451,120.295667 855.191,120.807 C854.931,121.318333 854.428333,121.929333 853.683,122.64 L853.683,122.64 L846.663,129.27 L846.663,132 L860.417,132 Z" id="60.2" fill="#FFFFFF" fill-rule="nonzero"></path>
				<path d="M943.396,126.312 C944.678667,126.312 945.844333,126.065 946.893,125.571 C947.941667,125.077 948.769333,124.370667 949.376,123.452 C949.982667,122.533333 950.286,121.467333 950.286,120.254 C950.286,119.127333 950.008667,118.135 949.454,117.277 C948.899333,116.419 948.145333,115.756 947.192,115.288 C946.238667,114.82 945.181333,114.586 944.02,114.586 C942.096,114.586 940.596667,115.123333 939.522,116.198 C939.591333,114.482 940.076667,113.173333 940.978,112.272 C941.879333,111.370667 943.101333,110.92 944.644,110.92 C946.013333,110.92 947.148667,111.223333 948.05,111.83 L948.05,111.83 L949.61,108.736 C948.986,108.337333 948.227667,108.029667 947.335,107.813 C946.442333,107.596333 945.510667,107.488 944.54,107.488 C942.702667,107.488 941.086333,107.869333 939.691,108.632 C938.295667,109.394667 937.208,110.512667 936.428,111.986 C935.648,113.459333 935.258,115.227333 935.258,117.29 C935.258,120.184667 935.977333,122.412 937.416,123.972 C938.854667,125.532 940.848,126.312 943.396,126.312 Z M943.162,123.166 C942.174,123.166 941.394,122.914667 940.822,122.412 C940.25,121.909333 939.964,121.259333 939.964,120.462 C939.964,119.664667 940.258667,119.010333 940.848,118.499 C941.437333,117.987667 942.191333,117.732 943.11,117.732 C944.046,117.732 944.795667,117.979 945.359,118.473 C945.922333,118.967 946.204,119.63 946.204,120.462 C946.204,121.294 945.922333,121.952667 945.359,122.438 C944.795667,122.923333 944.063333,123.166 943.162,123.166 Z M957.072,126.312 C958.909333,126.312 960.53,125.930667 961.934,125.168 C963.338,124.405333 964.425667,123.287333 965.197,121.814 C965.968333,120.340667 966.354,118.572667 966.354,116.51 C966.354,113.598 965.634667,111.366333 964.196,109.815 C962.757333,108.263667 960.764,107.488 958.216,107.488 C956.933333,107.488 955.767667,107.735 954.719,108.229 C953.670333,108.723 952.842667,109.429333 952.236,110.348 C951.629333,111.266667 951.326,112.332667 951.326,113.546 C951.326,114.672667 951.603333,115.665 952.158,116.523 C952.712667,117.381 953.466667,118.044 954.42,118.512 C955.373333,118.98 956.430667,119.214 957.592,119.214 C959.516,119.214 961.024,118.668 962.116,117.576 C962.046667,119.292 961.561333,120.605 960.66,121.515 C959.758667,122.425 958.536667,122.88 956.994,122.88 C955.607333,122.88 954.472,122.576667 953.588,121.97 L953.588,121.97 L952.028,125.064 C952.652,125.462667 953.406,125.770333 954.29,125.987 C955.174,126.203667 956.101333,126.312 957.072,126.312 Z M958.528,116.068 C957.592,116.068 956.842333,115.821 956.279,115.327 C955.715667,114.833 955.434,114.17 955.434,113.338 C955.434,112.506 955.715667,111.847333 956.279,111.362 C956.842333,110.876667 957.574667,110.634 958.476,110.634 C959.464,110.634 960.239667,110.885333 960.803,111.388 C961.366333,111.890667 961.648,112.540667 961.648,113.338 C961.648,114.135333 961.357667,114.789667 960.777,115.301 C960.196333,115.812333 959.446667,116.068 958.528,116.068 Z M970.436,126.208 C971.146667,126.208 971.744667,125.965333 972.23,125.48 C972.715333,124.994667 972.958,124.388 972.958,123.66 C972.958,122.914667 972.715333,122.312333 972.23,121.853 C971.744667,121.393667 971.146667,121.164 970.436,121.164 C969.725333,121.164 969.127333,121.393667 968.642,121.853 C968.156667,122.312333 967.914,122.914667 967.914,123.66 C967.914,124.388 968.156667,124.994667 968.642,125.48 C969.127333,125.965333 969.725333,126.208 970.436,126.208 Z M988.558,126 L988.558,122.178 L991.522,122.178 L991.522,118.746 L988.558,118.746 L988.558,115.34 L984.58,115.34 L984.58,118.746 L979.692,118.746 L987.648,107.8 L983.228,107.8 L974.648,119.344 L974.648,122.178 L984.45,122.178 L984.45,126 L988.558,126 Z" id="69.4" fill="#FFFFFF" fill-rule="nonzero"></path>
				<path d="M1073.11,120.312 C1074.63533,120.312 1075.97867,120.082333 1077.14,119.623 C1078.30133,119.163667 1079.20267,118.513667 1079.844,117.673 C1080.48533,116.832333 1080.806,115.848667 1080.806,114.722 C1080.806,113.768667 1080.56767,112.928 1080.091,112.2 C1079.61433,111.472 1078.92533,110.882667 1078.024,110.432 C1078.71733,110.016 1079.246,109.491667 1079.61,108.859 C1079.974,108.226333 1080.156,107.502667 1080.156,106.688 C1080.156,105.630667 1079.86133,104.712 1079.272,103.932 C1078.68267,103.152 1077.855,102.549667 1076.789,102.125 C1075.723,101.700333 1074.49667,101.488 1073.11,101.488 C1071.74067,101.488 1070.52733,101.700333 1069.47,102.125 C1068.41267,102.549667 1067.58933,103.152 1067,103.932 C1066.41067,104.712 1066.116,105.630667 1066.116,106.688 C1066.116,107.502667 1066.298,108.226333 1066.662,108.859 C1067.026,109.491667 1067.546,110.016 1068.222,110.432 C1067.338,110.882667 1066.65767,111.472 1066.181,112.2 C1065.70433,112.928 1065.466,113.768667 1065.466,114.722 C1065.466,115.848667 1065.78233,116.832333 1066.415,117.673 C1067.04767,118.513667 1067.94033,119.163667 1069.093,119.623 C1070.24567,120.082333 1071.58467,120.312 1073.11,120.312 Z M1073.11,109.106 C1072.24333,109.106 1071.55867,108.906667 1071.056,108.508 C1070.55333,108.109333 1070.302,107.563333 1070.302,106.87 C1070.302,106.159333 1070.55767,105.600333 1071.069,105.193 C1071.58033,104.785667 1072.26067,104.582 1073.11,104.582 C1073.97667,104.582 1074.67,104.785667 1075.19,105.193 C1075.71,105.600333 1075.97,106.159333 1075.97,106.87 C1075.97,107.563333 1075.71,108.109333 1075.19,108.508 C1074.67,108.906667 1073.97667,109.106 1073.11,109.106 Z M1073.11,117.218 C1072.07,117.218 1071.24667,116.984 1070.64,116.516 C1070.03333,116.048 1069.73,115.406667 1069.73,114.592 C1069.73,113.794667 1070.03333,113.162 1070.64,112.694 C1071.24667,112.226 1072.07,111.992 1073.11,111.992 C1074.16733,111.992 1075.00367,112.226 1075.619,112.694 C1076.23433,113.162 1076.542,113.794667 1076.542,114.592 C1076.542,115.389333 1076.23433,116.026333 1075.619,116.503 C1075.00367,116.979667 1074.16733,117.218 1073.11,117.218 Z M1090.53,120.312 C1092.038,120.312 1093.38133,119.939333 1094.56,119.194 C1095.73867,118.448667 1096.66167,117.369667 1097.329,115.957 C1097.99633,114.544333 1098.33,112.858667 1098.33,110.9 C1098.33,108.941333 1097.99633,107.255667 1097.329,105.843 C1096.66167,104.430333 1095.73867,103.351333 1094.56,102.606 C1093.38133,101.860667 1092.038,101.488 1090.53,101.488 C1089.022,101.488 1087.67867,101.860667 1086.5,102.606 C1085.32133,103.351333 1084.39833,104.430333 1083.731,105.843 C1083.06367,107.255667 1082.73,108.941333 1082.73,110.9 C1082.73,112.858667 1083.06367,114.544333 1083.731,115.957 C1084.39833,117.369667 1085.32133,118.448667 1086.5,119.194 C1087.67867,119.939333 1089.022,120.312 1090.53,120.312 Z M1090.53,116.75 C1089.438,116.75 1088.57567,116.273333 1087.943,115.32 C1087.31033,114.366667 1086.994,112.893333 1086.994,110.9 C1086.994,108.906667 1087.31033,107.433333 1087.943,106.48 C1088.57567,105.526667 1089.438,105.05 1090.53,105.05 C1091.63933,105.05 1092.51033,105.526667 1093.143,106.48 C1093.77567,107.433333 1094.092,108.906667 1094.092,110.9 C1094.092,112.893333 1093.77567,114.366667 1093.143,115.32 C1092.51033,116.273333 1091.63933,116.75 1090.53,116.75 Z M1102.438,120.208 C1103.14867,120.208 1103.74667,119.965333 1104.232,119.48 C1104.71733,118.994667 1104.96,118.388 1104.96,117.66 C1104.96,116.914667 1104.71733,116.312333 1104.232,115.853 C1103.74667,115.393667 1103.14867,115.164 1102.438,115.164 C1101.72733,115.164 1101.12933,115.393667 1100.644,115.853 C1100.15867,116.312333 1099.916,116.914667 1099.916,117.66 C1099.916,118.388 1100.15867,118.994667 1100.644,119.48 C1101.12933,119.965333 1101.72733,120.208 1102.438,120.208 Z M1120.716,120 L1120.716,116.568 L1112.89,116.568 L1117.076,112.616 C1118.272,111.506667 1119.078,110.518667 1119.494,109.652 C1119.91,108.785333 1120.118,107.858 1120.118,106.87 C1120.118,105.778 1119.83633,104.829 1119.273,104.023 C1118.70967,103.217 1117.921,102.593 1116.907,102.151 C1115.893,101.709 1114.71,101.488 1113.358,101.488 C1111.746,101.488 1110.316,101.787 1109.068,102.385 C1107.82,102.983 1106.84067,103.810667 1106.13,104.868 L1106.13,104.868 L1109.198,106.844 C1109.63133,106.237333 1110.16867,105.782333 1110.81,105.479 C1111.45133,105.175667 1112.17067,105.024 1112.968,105.024 C1113.92133,105.024 1114.645,105.219 1115.139,105.609 C1115.633,105.999 1115.88,106.558 1115.88,107.286 C1115.88,107.788667 1115.75,108.295667 1115.49,108.807 C1115.23,109.318333 1114.72733,109.929333 1113.982,110.64 L1113.982,110.64 L1106.962,117.27 L1106.962,120 L1120.716,120 Z" id="80.2" fill="#FFFFFF" fill-rule="nonzero"></path>
				<path d="M1200.562,112.312 C1202.39933,112.312 1204.02,111.930667 1205.424,111.168 C1206.828,110.405333 1207.91567,109.287333 1208.687,107.814 C1209.45833,106.340667 1209.844,104.572667 1209.844,102.51 C1209.844,99.598 1209.12467,97.3663333 1207.686,95.815 C1206.24733,94.2636667 1204.254,93.488 1201.706,93.488 C1200.42333,93.488 1199.25767,93.735 1198.209,94.229 C1197.16033,94.723 1196.33267,95.4293333 1195.726,96.348 C1195.11933,97.2666667 1194.816,98.3326667 1194.816,99.546 C1194.816,100.672667 1195.09333,101.665 1195.648,102.523 C1196.20267,103.381 1196.95667,104.044 1197.91,104.512 C1198.86333,104.98 1199.92067,105.214 1201.082,105.214 C1203.006,105.214 1204.514,104.668 1205.606,103.576 C1205.53667,105.292 1205.05133,106.605 1204.15,107.515 C1203.24867,108.425 1202.02667,108.88 1200.484,108.88 C1199.09733,108.88 1197.962,108.576667 1197.078,107.97 L1197.078,107.97 L1195.518,111.064 C1196.142,111.462667 1196.896,111.770333 1197.78,111.987 C1198.664,112.203667 1199.59133,112.312 1200.562,112.312 Z M1202.018,102.068 C1201.082,102.068 1200.33233,101.821 1199.769,101.327 C1199.20567,100.833 1198.924,100.17 1198.924,99.338 C1198.924,98.506 1199.20567,97.8473333 1199.769,97.362 C1200.33233,96.8766667 1201.06467,96.634 1201.966,96.634 C1202.954,96.634 1203.72967,96.8853333 1204.293,97.388 C1204.85633,97.8906667 1205.138,98.5406667 1205.138,99.338 C1205.138,100.135333 1204.84767,100.789667 1204.267,101.301 C1203.68633,101.812333 1202.93667,102.068 1202.018,102.068 Z M1225.574,112 L1225.574,108.178 L1228.538,108.178 L1228.538,104.746 L1225.574,104.746 L1225.574,101.34 L1221.596,101.34 L1221.596,104.746 L1216.708,104.746 L1224.664,93.8 L1220.244,93.8 L1211.664,105.344 L1211.664,108.178 L1221.466,108.178 L1221.466,112 L1225.574,112 Z M1232.698,112.208 C1233.40867,112.208 1234.00667,111.965333 1234.492,111.48 C1234.97733,110.994667 1235.22,110.388 1235.22,109.66 C1235.22,108.914667 1234.97733,108.312333 1234.492,107.853 C1234.00667,107.393667 1233.40867,107.164 1232.698,107.164 C1231.98733,107.164 1231.38933,107.393667 1230.904,107.853 C1230.41867,108.312333 1230.176,108.914667 1230.176,109.66 C1230.176,110.388 1230.41867,110.994667 1230.904,111.48 C1231.38933,111.965333 1231.98733,112.208 1232.698,112.208 Z M1250.976,112 L1250.976,108.568 L1243.15,108.568 L1247.336,104.616 C1248.532,103.506667 1249.338,102.518667 1249.754,101.652 C1250.17,100.785333 1250.378,99.858 1250.378,98.87 C1250.378,97.778 1250.09633,96.829 1249.533,96.023 C1248.96967,95.217 1248.181,94.593 1247.167,94.151 C1246.153,93.709 1244.97,93.488 1243.618,93.488 C1242.006,93.488 1240.576,93.787 1239.328,94.385 C1238.08,94.983 1237.10067,95.8106667 1236.39,96.868 L1236.39,96.868 L1239.458,98.844 C1239.89133,98.2373333 1240.42867,97.7823333 1241.07,97.479 C1241.71133,97.1756667 1242.43067,97.024 1243.228,97.024 C1244.18133,97.024 1244.905,97.219 1245.399,97.609 C1245.893,97.999 1246.14,98.558 1246.14,99.286 C1246.14,99.7886667 1246.01,100.295667 1245.75,100.807 C1245.49,101.318333 1244.98733,101.929333 1244.242,102.64 L1244.242,102.64 L1237.222,109.27 L1237.222,112 L1250.976,112 Z" id="94.2" fill="#FFFFFF" fill-rule="nonzero"></path>
				<path d="M1326.714,104 L1326.714,85.8 L1318.862,85.8 L1318.862,89.18 L1322.502,89.18 L1322.502,104 L1326.714,104 Z M1337.686,104.312 C1339.194,104.312 1340.53733,103.939333 1341.716,103.194 C1342.89467,102.448667 1343.81767,101.369667 1344.485,99.957 C1345.15233,98.5443333 1345.486,96.8586667 1345.486,94.9 C1345.486,92.9413333 1345.15233,91.2556667 1344.485,89.843 C1343.81767,88.4303333 1342.89467,87.3513333 1341.716,86.606 C1340.53733,85.8606667 1339.194,85.488 1337.686,85.488 C1336.178,85.488 1334.83467,85.8606667 1333.656,86.606 C1332.47733,87.3513333 1331.55433,88.4303333 1330.887,89.843 C1330.21967,91.2556667 1329.886,92.9413333 1329.886,94.9 C1329.886,96.8586667 1330.21967,98.5443333 1330.887,99.957 C1331.55433,101.369667 1332.47733,102.448667 1333.656,103.194 C1334.83467,103.939333 1336.178,104.312 1337.686,104.312 Z M1337.686,100.75 C1336.594,100.75 1335.73167,100.273333 1335.099,99.32 C1334.46633,98.3666667 1334.15,96.8933333 1334.15,94.9 C1334.15,92.9066667 1334.46633,91.4333333 1335.099,90.48 C1335.73167,89.5266667 1336.594,89.05 1337.686,89.05 C1338.79533,89.05 1339.66633,89.5266667 1340.299,90.48 C1340.93167,91.4333333 1341.248,92.9066667 1341.248,94.9 C1341.248,96.8933333 1340.93167,98.3666667 1340.299,99.32 C1339.66633,100.273333 1338.79533,100.75 1337.686,100.75 Z M1355.08,104.312 C1356.60533,104.312 1357.94867,104.082333 1359.11,103.623 C1360.27133,103.163667 1361.17267,102.513667 1361.814,101.673 C1362.45533,100.832333 1362.776,99.8486667 1362.776,98.722 C1362.776,97.7686667 1362.53767,96.928 1362.061,96.2 C1361.58433,95.472 1360.89533,94.8826667 1359.994,94.432 C1360.68733,94.016 1361.216,93.4916667 1361.58,92.859 C1361.944,92.2263333 1362.126,91.5026667 1362.126,90.688 C1362.126,89.6306667 1361.83133,88.712 1361.242,87.932 C1360.65267,87.152 1359.825,86.5496667 1358.759,86.125 C1357.693,85.7003333 1356.46667,85.488 1355.08,85.488 C1353.71067,85.488 1352.49733,85.7003333 1351.44,86.125 C1350.38267,86.5496667 1349.55933,87.152 1348.97,87.932 C1348.38067,88.712 1348.086,89.6306667 1348.086,90.688 C1348.086,91.5026667 1348.268,92.2263333 1348.632,92.859 C1348.996,93.4916667 1349.516,94.016 1350.192,94.432 C1349.308,94.8826667 1348.62767,95.472 1348.151,96.2 C1347.67433,96.928 1347.436,97.7686667 1347.436,98.722 C1347.436,99.8486667 1347.75233,100.832333 1348.385,101.673 C1349.01767,102.513667 1349.91033,103.163667 1351.063,103.623 C1352.21567,104.082333 1353.55467,104.312 1355.08,104.312 Z M1355.08,93.106 C1354.21333,93.106 1353.52867,92.9066667 1353.026,92.508 C1352.52333,92.1093333 1352.272,91.5633333 1352.272,90.87 C1352.272,90.1593333 1352.52767,89.6003333 1353.039,89.193 C1353.55033,88.7856667 1354.23067,88.582 1355.08,88.582 C1355.94667,88.582 1356.64,88.7856667 1357.16,89.193 C1357.68,89.6003333 1357.94,90.1593333 1357.94,90.87 C1357.94,91.5633333 1357.68,92.1093333 1357.16,92.508 C1356.64,92.9066667 1355.94667,93.106 1355.08,93.106 Z M1355.08,101.218 C1354.04,101.218 1353.21667,100.984 1352.61,100.516 C1352.00333,100.048 1351.7,99.4066667 1351.7,98.592 C1351.7,97.7946667 1352.00333,97.162 1352.61,96.694 C1353.21667,96.226 1354.04,95.992 1355.08,95.992 C1356.13733,95.992 1356.97367,96.226 1357.589,96.694 C1358.20433,97.162 1358.512,97.7946667 1358.512,98.592 C1358.512,99.3893333 1358.20433,100.026333 1357.589,100.503 C1356.97367,100.979667 1356.13733,101.218 1355.08,101.218 Z M1367.352,104.208 C1368.06267,104.208 1368.66067,103.965333 1369.146,103.48 C1369.63133,102.994667 1369.874,102.388 1369.874,101.66 C1369.874,100.914667 1369.63133,100.312333 1369.146,99.853 C1368.66067,99.3936667 1368.06267,99.164 1367.352,99.164 C1366.64133,99.164 1366.04333,99.3936667 1365.558,99.853 C1365.07267,100.312333 1364.83,100.914667 1364.83,101.66 C1364.83,102.388 1365.07267,102.994667 1365.558,103.48 C1366.04333,103.965333 1366.64133,104.208 1367.352,104.208 Z M1377.024,104.312 C1378.86133,104.312 1380.482,103.930667 1381.886,103.168 C1383.29,102.405333 1384.37767,101.287333 1385.149,99.814 C1385.92033,98.3406667 1386.306,96.5726667 1386.306,94.51 C1386.306,91.598 1385.58667,89.3663333 1384.148,87.815 C1382.70933,86.2636667 1380.716,85.488 1378.168,85.488 C1376.88533,85.488 1375.71967,85.735 1374.671,86.229 C1373.62233,86.723 1372.79467,87.4293333 1372.188,88.348 C1371.58133,89.2666667 1371.278,90.3326667 1371.278,91.546 C1371.278,92.6726667 1371.55533,93.665 1372.11,94.523 C1372.66467,95.381 1373.41867,96.044 1374.372,96.512 C1375.32533,96.98 1376.38267,97.214 1377.544,97.214 C1379.468,97.214 1380.976,96.668 1382.068,95.576 C1381.99867,97.292 1381.51333,98.605 1380.612,99.515 C1379.71067,100.425 1378.48867,100.88 1376.946,100.88 C1375.55933,100.88 1374.424,100.576667 1373.54,99.97 L1373.54,99.97 L1371.98,103.064 C1372.604,103.462667 1373.358,103.770333 1374.242,103.987 C1375.126,104.203667 1376.05333,104.312 1377.024,104.312 Z M1378.48,94.068 C1377.544,94.068 1376.79433,93.821 1376.231,93.327 C1375.66767,92.833 1375.386,92.17 1375.386,91.338 C1375.386,90.506 1375.66767,89.8473333 1376.231,89.362 C1376.79433,88.8766667 1377.52667,88.634 1378.428,88.634 C1379.416,88.634 1380.19167,88.8853333 1380.755,89.388 C1381.31833,89.8906667 1381.6,90.5406667 1381.6,91.338 C1381.6,92.1353333 1381.30967,92.7896667 1380.729,93.301 C1380.14833,93.8123333 1379.39867,94.068 1378.48,94.068 Z" id="108.9" fill="#FFFFFF" fill-rule="nonzero"></path>
				<path d="M1458.677,94 L1458.677,75.8 L1450.825,75.8 L1450.825,79.18 L1454.465,79.18 L1454.465,94 L1458.677,94 Z M1475.447,94 L1475.447,90.568 L1467.621,90.568 L1471.807,86.616 C1473.003,85.5066667 1473.809,84.5186667 1474.225,83.652 C1474.641,82.7853333 1474.849,81.858 1474.849,80.87 C1474.849,79.778 1474.56733,78.829 1474.004,78.023 C1473.44067,77.217 1472.652,76.593 1471.638,76.151 C1470.624,75.709 1469.441,75.488 1468.089,75.488 C1466.477,75.488 1465.047,75.787 1463.799,76.385 C1462.551,76.983 1461.57167,77.8106667 1460.861,78.868 L1460.861,78.868 L1463.929,80.844 C1464.36233,80.2373333 1464.89967,79.7823333 1465.541,79.479 C1466.18233,79.1756667 1466.90167,79.024 1467.699,79.024 C1468.65233,79.024 1469.376,79.219 1469.87,79.609 C1470.364,79.999 1470.611,80.558 1470.611,81.286 C1470.611,81.7886667 1470.481,82.2956667 1470.221,82.807 C1469.961,83.3183333 1469.45833,83.9293333 1468.713,84.64 L1468.713,84.64 L1461.693,91.27 L1461.693,94 L1475.447,94 Z M1485.275,94.312 C1486.55767,94.312 1487.72333,94.065 1488.772,93.571 C1489.82067,93.077 1490.64833,92.3706667 1491.255,91.452 C1491.86167,90.5333333 1492.165,89.4673333 1492.165,88.254 C1492.165,87.1273333 1491.88767,86.135 1491.333,85.277 C1490.77833,84.419 1490.02433,83.756 1489.071,83.288 C1488.11767,82.82 1487.06033,82.586 1485.899,82.586 C1483.975,82.586 1482.47567,83.1233333 1481.401,84.198 C1481.47033,82.482 1481.95567,81.1733333 1482.857,80.272 C1483.75833,79.3706667 1484.98033,78.92 1486.523,78.92 C1487.89233,78.92 1489.02767,79.2233333 1489.929,79.83 L1489.929,79.83 L1491.489,76.736 C1490.865,76.3373333 1490.10667,76.0296667 1489.214,75.813 C1488.32133,75.5963333 1487.38967,75.488 1486.419,75.488 C1484.58167,75.488 1482.96533,75.8693333 1481.57,76.632 C1480.17467,77.3946667 1479.087,78.5126667 1478.307,79.986 C1477.527,81.4593333 1477.137,83.2273333 1477.137,85.29 C1477.137,88.1846667 1477.85633,90.412 1479.295,91.972 C1480.73367,93.532 1482.727,94.312 1485.275,94.312 Z M1485.041,91.166 C1484.053,91.166 1483.273,90.9146667 1482.701,90.412 C1482.129,89.9093333 1481.843,89.2593333 1481.843,88.462 C1481.843,87.6646667 1482.13767,87.0103333 1482.727,86.499 C1483.31633,85.9876667 1484.07033,85.732 1484.989,85.732 C1485.925,85.732 1486.67467,85.979 1487.238,86.473 C1487.80133,86.967 1488.083,87.63 1488.083,88.462 C1488.083,89.294 1487.80133,89.9526667 1487.238,90.438 C1486.67467,90.9233333 1485.94233,91.166 1485.041,91.166 Z M1496.351,94.208 C1497.06167,94.208 1497.65967,93.9653333 1498.145,93.48 C1498.63033,92.9946667 1498.873,92.388 1498.873,91.66 C1498.873,90.9146667 1498.63033,90.3123333 1498.145,89.853 C1497.65967,89.3936667 1497.06167,89.164 1496.351,89.164 C1495.64033,89.164 1495.04233,89.3936667 1494.557,89.853 C1494.07167,90.3123333 1493.829,90.9146667 1493.829,91.66 C1493.829,92.388 1494.07167,92.9946667 1494.557,93.48 C1495.04233,93.9653333 1495.64033,94.208 1496.351,94.208 Z M1514.629,94 L1514.629,90.568 L1506.803,90.568 L1510.989,86.616 C1512.185,85.5066667 1512.991,84.5186667 1513.407,83.652 C1513.823,82.7853333 1514.031,81.858 1514.031,80.87 C1514.031,79.778 1513.74933,78.829 1513.186,78.023 C1512.62267,77.217 1511.834,76.593 1510.82,76.151 C1509.806,75.709 1508.623,75.488 1507.271,75.488 C1505.659,75.488 1504.229,75.787 1502.981,76.385 C1501.733,76.983 1500.75367,77.8106667 1500.043,78.868 L1500.043,78.868 L1503.111,80.844 C1503.54433,80.2373333 1504.08167,79.7823333 1504.723,79.479 C1505.36433,79.1756667 1506.08367,79.024 1506.881,79.024 C1507.83433,79.024 1508.558,79.219 1509.052,79.609 C1509.546,79.999 1509.793,80.558 1509.793,81.286 C1509.793,81.7886667 1509.663,82.2956667 1509.403,82.807 C1509.143,83.3183333 1508.64033,83.9293333 1507.895,84.64 L1507.895,84.64 L1500.875,91.27 L1500.875,94 L1514.629,94 Z" id="126.2" fill="#FFFFFF" fill-rule="nonzero"></path>
				<path d="M45.062,199 L45.062,198.104 L39.672,198.104 L43.004,194.828 C43.6293333,194.221333 44.054,193.684667 44.278,193.218 C44.502,192.751333 44.614,192.266 44.614,191.762 C44.614,190.940667 44.3223333,190.294333 43.739,189.823 C43.1556667,189.351667 42.3646667,189.116 41.366,189.116 C40.6193333,189.116 39.9496667,189.237333 39.357,189.48 C38.7643333,189.722667 38.2766667,190.068 37.894,190.516 L37.894,190.516 L38.608,191.132 C39.2426667,190.404 40.134,190.04 41.282,190.04 C42.0193333,190.04 42.5863333,190.201 42.983,190.523 C43.3796667,190.845 43.578,191.295333 43.578,191.874 C43.578,192.247333 43.487,192.618333 43.305,192.987 C43.123,193.355667 42.7753333,193.792 42.262,194.296 L42.262,194.296 L38.188,198.286 L38.188,199 L45.062,199 Z M50.172,199.084 C50.928,199.084 51.6023333,198.883333 52.195,198.482 C52.7876667,198.080667 53.252,197.504333 53.588,196.753 C53.924,196.001667 54.092,195.117333 54.092,194.1 C54.092,193.082667 53.924,192.198333 53.588,191.447 C53.252,190.695667 52.7876667,190.119333 52.195,189.718 C51.6023333,189.316667 50.928,189.116 50.172,189.116 C49.416,189.116 48.7416667,189.316667 48.149,189.718 C47.5563333,190.119333 47.0943333,190.695667 46.763,191.447 C46.4316667,192.198333 46.266,193.082667 46.266,194.1 C46.266,195.117333 46.4316667,196.001667 46.763,196.753 C47.0943333,197.504333 47.5563333,198.080667 48.149,198.482 C48.7416667,198.883333 49.416,199.084 50.172,199.084 Z M50.172,198.16 C49.6026667,198.16 49.101,198.001333 48.667,197.684 C48.233,197.366667 47.8946667,196.904667 47.652,196.298 C47.4093333,195.691333 47.288,194.958667 47.288,194.1 C47.288,193.241333 47.4093333,192.508667 47.652,191.902 C47.8946667,191.295333 48.233,190.833333 48.667,190.516 C49.101,190.198667 49.6026667,190.04 50.172,190.04 C50.7413333,190.04 51.243,190.198667 51.677,190.516 C52.111,190.833333 52.4493333,191.295333 52.692,191.902 C52.9346667,192.508667 53.056,193.241333 53.056,194.1 C53.056,194.958667 52.9346667,195.691333 52.692,196.298 C52.4493333,196.904667 52.111,197.366667 51.677,197.684 C51.243,198.001333 50.7413333,198.16 50.172,198.16 Z M58.222,199 L58.222,189.2 L54.904,189.2 L54.904,190.096 L57.214,190.096 L57.214,199 L58.222,199 Z M64.578,199.084 C65.2126667,199.084 65.7843333,198.960333 66.293,198.713 C66.8016667,198.465667 67.2006667,198.113333 67.49,197.656 C67.7793333,197.198667 67.924,196.671333 67.924,196.074 C67.924,195.486 67.784,194.970333 67.504,194.527 C67.224,194.083667 66.8343333,193.740667 66.335,193.498 C65.8356667,193.255333 65.264,193.134 64.62,193.134 C63.9293333,193.134 63.318,193.281 62.786,193.575 C62.254,193.869 61.8666667,194.282 61.624,194.814 C61.596,194.515333 61.582,194.249333 61.582,194.016 C61.582,192.709333 61.89,191.713 62.506,191.027 C63.122,190.341 63.9713333,189.998 65.054,189.998 C65.8566667,189.998 66.4913333,190.152 66.958,190.46 L66.958,190.46 L67.364,189.648 C66.7853333,189.293333 66.0106667,189.116 65.04,189.116 C64.144,189.116 63.36,189.309667 62.688,189.697 C62.016,190.084333 61.4933333,190.656 61.12,191.412 C60.7466667,192.168 60.56,193.092 60.56,194.184 C60.56,195.742667 60.9053333,196.949 61.596,197.803 C62.2866667,198.657 63.2806667,199.084 64.578,199.084 Z M64.536,198.23 C63.9946667,198.23 63.528,198.132 63.136,197.936 C62.744,197.74 62.4476667,197.483333 62.247,197.166 C62.0463333,196.848667 61.946,196.503333 61.946,196.13 C61.946,195.728667 62.0533333,195.364667 62.268,195.038 C62.4826667,194.711333 62.779,194.454667 63.157,194.268 C63.535,194.081333 63.9713333,193.988 64.466,193.988 C65.222,193.988 65.8216667,194.179333 66.265,194.562 C66.7083333,194.944667 66.93,195.458 66.93,196.102 C66.93,196.746 66.7083333,197.261667 66.265,197.649 C65.8216667,198.036333 65.2453333,198.23 64.536,198.23 Z" id="2016" fill="#FFFFFF" fill-rule="nonzero"></path>
				<path d="M175.202,199 L175.202,198.104 L169.812,198.104 L173.144,194.828 C173.769333,194.221333 174.194,193.684667 174.418,193.218 C174.642,192.751333 174.754,192.266 174.754,191.762 C174.754,190.940667 174.462333,190.294333 173.879,189.823 C173.295667,189.351667 172.504667,189.116 171.506,189.116 C170.759333,189.116 170.089667,189.237333 169.497,189.48 C168.904333,189.722667 168.416667,190.068 168.034,190.516 L168.034,190.516 L168.748,191.132 C169.382667,190.404 170.274,190.04 171.422,190.04 C172.159333,190.04 172.726333,190.201 173.123,190.523 C173.519667,190.845 173.718,191.295333 173.718,191.874 C173.718,192.247333 173.627,192.618333 173.445,192.987 C173.263,193.355667 172.915333,193.792 172.402,194.296 L172.402,194.296 L168.328,198.286 L168.328,199 L175.202,199 Z M180.312,199.084 C181.068,199.084 181.742333,198.883333 182.335,198.482 C182.927667,198.080667 183.392,197.504333 183.728,196.753 C184.064,196.001667 184.232,195.117333 184.232,194.1 C184.232,193.082667 184.064,192.198333 183.728,191.447 C183.392,190.695667 182.927667,190.119333 182.335,189.718 C181.742333,189.316667 181.068,189.116 180.312,189.116 C179.556,189.116 178.881667,189.316667 178.289,189.718 C177.696333,190.119333 177.234333,190.695667 176.903,191.447 C176.571667,192.198333 176.406,193.082667 176.406,194.1 C176.406,195.117333 176.571667,196.001667 176.903,196.753 C177.234333,197.504333 177.696333,198.080667 178.289,198.482 C178.881667,198.883333 179.556,199.084 180.312,199.084 Z M180.312,198.16 C179.742667,198.16 179.241,198.001333 178.807,197.684 C178.373,197.366667 178.034667,196.904667 177.792,196.298 C177.549333,195.691333 177.428,194.958667 177.428,194.1 C177.428,193.241333 177.549333,192.508667 177.792,191.902 C178.034667,191.295333 178.373,190.833333 178.807,190.516 C179.241,190.198667 179.742667,190.04 180.312,190.04 C180.881333,190.04 181.383,190.198667 181.817,190.516 C182.251,190.833333 182.589333,191.295333 182.832,191.902 C183.074667,192.508667 183.196,193.241333 183.196,194.1 C183.196,194.958667 183.074667,195.691333 182.832,196.298 C182.589333,196.904667 182.251,197.366667 181.817,197.684 C181.383,198.001333 180.881333,198.16 180.312,198.16 Z M188.362,199 L188.362,189.2 L185.044,189.2 L185.044,190.096 L187.354,190.096 L187.354,199 L188.362,199 Z M193.514,199 L197.616,189.914 L197.616,189.2 L190.42,189.2 L190.42,191.93 L191.414,191.93 L191.414,190.096 L196.454,190.096 L192.422,199 L193.514,199 Z" id="2017" fill="#FFFFFF" fill-rule="nonzero"></path>
				<path d="M304.859,199 L304.859,198.104 L299.469,198.104 L302.801,194.828 C303.426333,194.221333 303.851,193.684667 304.075,193.218 C304.299,192.751333 304.411,192.266 304.411,191.762 C304.411,190.940667 304.119333,190.294333 303.536,189.823 C302.952667,189.351667 302.161667,189.116 301.163,189.116 C300.416333,189.116 299.746667,189.237333 299.154,189.48 C298.561333,189.722667 298.073667,190.068 297.691,190.516 L297.691,190.516 L298.405,191.132 C299.039667,190.404 299.931,190.04 301.079,190.04 C301.816333,190.04 302.383333,190.201 302.78,190.523 C303.176667,190.845 303.375,191.295333 303.375,191.874 C303.375,192.247333 303.284,192.618333 303.102,192.987 C302.92,193.355667 302.572333,193.792 302.059,194.296 L302.059,194.296 L297.985,198.286 L297.985,199 L304.859,199 Z M309.969,199.084 C310.725,199.084 311.399333,198.883333 311.992,198.482 C312.584667,198.080667 313.049,197.504333 313.385,196.753 C313.721,196.001667 313.889,195.117333 313.889,194.1 C313.889,193.082667 313.721,192.198333 313.385,191.447 C313.049,190.695667 312.584667,190.119333 311.992,189.718 C311.399333,189.316667 310.725,189.116 309.969,189.116 C309.213,189.116 308.538667,189.316667 307.946,189.718 C307.353333,190.119333 306.891333,190.695667 306.56,191.447 C306.228667,192.198333 306.063,193.082667 306.063,194.1 C306.063,195.117333 306.228667,196.001667 306.56,196.753 C306.891333,197.504333 307.353333,198.080667 307.946,198.482 C308.538667,198.883333 309.213,199.084 309.969,199.084 Z M309.969,198.16 C309.399667,198.16 308.898,198.001333 308.464,197.684 C308.03,197.366667 307.691667,196.904667 307.449,196.298 C307.206333,195.691333 307.085,194.958667 307.085,194.1 C307.085,193.241333 307.206333,192.508667 307.449,191.902 C307.691667,191.295333 308.03,190.833333 308.464,190.516 C308.898,190.198667 309.399667,190.04 309.969,190.04 C310.538333,190.04 311.04,190.198667 311.474,190.516 C311.908,190.833333 312.246333,191.295333 312.489,191.902 C312.731667,192.508667 312.853,193.241333 312.853,194.1 C312.853,194.958667 312.731667,195.691333 312.489,196.298 C312.246333,196.904667 311.908,197.366667 311.474,197.684 C311.04,198.001333 310.538333,198.16 309.969,198.16 Z M318.019,199 L318.019,189.2 L314.701,189.2 L314.701,190.096 L317.011,190.096 L317.011,199 L318.019,199 Z M324.081,199.084 C324.855667,199.084 325.53,198.969667 326.104,198.741 C326.678,198.512333 327.119,198.185667 327.427,197.761 C327.735,197.336333 327.889,196.839333 327.889,196.27 C327.889,195.691333 327.723333,195.196667 327.392,194.786 C327.060667,194.375333 326.587,194.067333 325.971,193.862 C326.475,193.666 326.862333,193.383667 327.133,193.015 C327.403667,192.646333 327.539,192.21 327.539,191.706 C327.539,191.183333 327.394333,190.726 327.105,190.334 C326.815667,189.942 326.412,189.641 325.894,189.431 C325.376,189.221 324.771667,189.116 324.081,189.116 C323.035667,189.116 322.202667,189.349333 321.582,189.816 C320.961333,190.282667 320.651,190.912667 320.651,191.706 C320.651,192.21 320.781667,192.646333 321.043,193.015 C321.304333,193.383667 321.687,193.666 322.191,193.862 C321.575,194.067333 321.106,194.373 320.784,194.779 C320.462,195.185 320.301,195.682 320.301,196.27 C320.301,197.138 320.637,197.824 321.309,198.328 C321.981,198.832 322.905,199.084 324.081,199.084 Z M324.081,193.498 C323.325,193.498 322.732333,193.339333 322.303,193.022 C321.873667,192.704667 321.659,192.275333 321.659,191.734 C321.659,191.192667 321.876,190.763333 322.31,190.446 C322.744,190.128667 323.334333,189.97 324.081,189.97 C324.818333,189.97 325.408667,190.128667 325.852,190.446 C326.295333,190.763333 326.517,191.197333 326.517,191.748 C326.517,192.28 326.3,192.704667 325.866,193.022 C325.432,193.339333 324.837,193.498 324.081,193.498 Z M324.081,198.23 C323.213,198.23 322.536333,198.055 322.051,197.705 C321.565667,197.355 321.323,196.872 321.323,196.256 C321.323,195.649333 321.568,195.171 322.058,194.821 C322.548,194.471 323.222333,194.296 324.081,194.296 C324.949,194.296 325.628,194.471 326.118,194.821 C326.608,195.171 326.853,195.649333 326.853,196.256 C326.853,196.862667 326.608,197.343333 326.118,197.698 C325.628,198.052667 324.949,198.23 324.081,198.23 Z" id="2018" fill="#FFFFFF" fill-rule="nonzero"></path>
				<path d="M435.062,199 L435.062,198.104 L429.672,198.104 L433.004,194.828 C433.629333,194.221333 434.054,193.684667 434.278,193.218 C434.502,192.751333 434.614,192.266 434.614,191.762 C434.614,190.940667 434.322333,190.294333 433.739,189.823 C433.155667,189.351667 432.364667,189.116 431.366,189.116 C430.619333,189.116 429.949667,189.237333 429.357,189.48 C428.764333,189.722667 428.276667,190.068 427.894,190.516 L427.894,190.516 L428.608,191.132 C429.242667,190.404 430.134,190.04 431.282,190.04 C432.019333,190.04 432.586333,190.201 432.983,190.523 C433.379667,190.845 433.578,191.295333 433.578,191.874 C433.578,192.247333 433.487,192.618333 433.305,192.987 C433.123,193.355667 432.775333,193.792 432.262,194.296 L432.262,194.296 L428.188,198.286 L428.188,199 L435.062,199 Z M440.172,199.084 C440.928,199.084 441.602333,198.883333 442.195,198.482 C442.787667,198.080667 443.252,197.504333 443.588,196.753 C443.924,196.001667 444.092,195.117333 444.092,194.1 C444.092,193.082667 443.924,192.198333 443.588,191.447 C443.252,190.695667 442.787667,190.119333 442.195,189.718 C441.602333,189.316667 440.928,189.116 440.172,189.116 C439.416,189.116 438.741667,189.316667 438.149,189.718 C437.556333,190.119333 437.094333,190.695667 436.763,191.447 C436.431667,192.198333 436.266,193.082667 436.266,194.1 C436.266,195.117333 436.431667,196.001667 436.763,196.753 C437.094333,197.504333 437.556333,198.080667 438.149,198.482 C438.741667,198.883333 439.416,199.084 440.172,199.084 Z M440.172,198.16 C439.602667,198.16 439.101,198.001333 438.667,197.684 C438.233,197.366667 437.894667,196.904667 437.652,196.298 C437.409333,195.691333 437.288,194.958667 437.288,194.1 C437.288,193.241333 437.409333,192.508667 437.652,191.902 C437.894667,191.295333 438.233,190.833333 438.667,190.516 C439.101,190.198667 439.602667,190.04 440.172,190.04 C440.741333,190.04 441.243,190.198667 441.677,190.516 C442.111,190.833333 442.449333,191.295333 442.692,191.902 C442.934667,192.508667 443.056,193.241333 443.056,194.1 C443.056,194.958667 442.934667,195.691333 442.692,196.298 C442.449333,196.904667 442.111,197.366667 441.677,197.684 C441.243,198.001333 440.741333,198.16 440.172,198.16 Z M448.222,199 L448.222,189.2 L444.904,189.2 L444.904,190.096 L447.214,190.096 L447.214,199 L448.222,199 Z M453.15,199.084 C454.046,199.084 454.83,198.890333 455.502,198.503 C456.174,198.115667 456.696667,197.544 457.07,196.788 C457.443333,196.032 457.63,195.108 457.63,194.016 C457.63,192.457333 457.284667,191.251 456.594,190.397 C455.903333,189.543 454.909333,189.116 453.612,189.116 C452.977333,189.116 452.405667,189.239667 451.897,189.487 C451.388333,189.734333 450.989333,190.086667 450.7,190.544 C450.410667,191.001333 450.266,191.528667 450.266,192.126 C450.266,192.714 450.406,193.229667 450.686,193.673 C450.966,194.116333 451.355667,194.459333 451.855,194.702 C452.354333,194.944667 452.926,195.066 453.57,195.066 C454.260667,195.066 454.872,194.919 455.404,194.625 C455.936,194.331 456.323333,193.918 456.566,193.386 C456.594,193.675333 456.608,193.941333 456.608,194.184 C456.608,195.490667 456.3,196.487 455.684,197.173 C455.068,197.859 454.218667,198.202 453.136,198.202 C452.333333,198.202 451.698667,198.048 451.232,197.74 L451.232,197.74 L450.826,198.552 C451.404667,198.906667 452.179333,199.084 453.15,199.084 Z M453.724,194.212 C452.968,194.212 452.368333,194.020667 451.925,193.638 C451.481667,193.255333 451.26,192.742 451.26,192.098 C451.26,191.454 451.481667,190.938333 451.925,190.551 C452.368333,190.163667 452.944667,189.97 453.654,189.97 C454.195333,189.97 454.662,190.068 455.054,190.264 C455.446,190.46 455.742333,190.716667 455.943,191.034 C456.143667,191.351333 456.244,191.696667 456.244,192.07 C456.244,192.471333 456.136667,192.835333 455.922,193.162 C455.707333,193.488667 455.411,193.745333 455.033,193.932 C454.655,194.118667 454.218667,194.212 453.724,194.212 Z" id="2019" fill="#FFFFFF" fill-rule="nonzero"></path>
				<path d="M563.27,199 L563.27,198.104 L557.88,198.104 L561.212,194.828 C561.837333,194.221333 562.262,193.684667 562.486,193.218 C562.71,192.751333 562.822,192.266 562.822,191.762 C562.822,190.940667 562.530333,190.294333 561.947,189.823 C561.363667,189.351667 560.572667,189.116 559.574,189.116 C558.827333,189.116 558.157667,189.237333 557.565,189.48 C556.972333,189.722667 556.484667,190.068 556.102,190.516 L556.102,190.516 L556.816,191.132 C557.450667,190.404 558.342,190.04 559.49,190.04 C560.227333,190.04 560.794333,190.201 561.191,190.523 C561.587667,190.845 561.786,191.295333 561.786,191.874 C561.786,192.247333 561.695,192.618333 561.513,192.987 C561.331,193.355667 560.983333,193.792 560.47,194.296 L560.47,194.296 L556.396,198.286 L556.396,199 L563.27,199 Z M568.38,199.084 C569.136,199.084 569.810333,198.883333 570.403,198.482 C570.995667,198.080667 571.46,197.504333 571.796,196.753 C572.132,196.001667 572.3,195.117333 572.3,194.1 C572.3,193.082667 572.132,192.198333 571.796,191.447 C571.46,190.695667 570.995667,190.119333 570.403,189.718 C569.810333,189.316667 569.136,189.116 568.38,189.116 C567.624,189.116 566.949667,189.316667 566.357,189.718 C565.764333,190.119333 565.302333,190.695667 564.971,191.447 C564.639667,192.198333 564.474,193.082667 564.474,194.1 C564.474,195.117333 564.639667,196.001667 564.971,196.753 C565.302333,197.504333 565.764333,198.080667 566.357,198.482 C566.949667,198.883333 567.624,199.084 568.38,199.084 Z M568.38,198.16 C567.810667,198.16 567.309,198.001333 566.875,197.684 C566.441,197.366667 566.102667,196.904667 565.86,196.298 C565.617333,195.691333 565.496,194.958667 565.496,194.1 C565.496,193.241333 565.617333,192.508667 565.86,191.902 C566.102667,191.295333 566.441,190.833333 566.875,190.516 C567.309,190.198667 567.810667,190.04 568.38,190.04 C568.949333,190.04 569.451,190.198667 569.885,190.516 C570.319,190.833333 570.657333,191.295333 570.9,191.902 C571.142667,192.508667 571.264,193.241333 571.264,194.1 C571.264,194.958667 571.142667,195.691333 570.9,196.298 C570.657333,196.904667 570.319,197.366667 569.885,197.684 C569.451,198.001333 568.949333,198.16 568.38,198.16 Z M580.406,199 L580.406,198.104 L575.016,198.104 L578.348,194.828 C578.973333,194.221333 579.398,193.684667 579.622,193.218 C579.846,192.751333 579.958,192.266 579.958,191.762 C579.958,190.940667 579.666333,190.294333 579.083,189.823 C578.499667,189.351667 577.708667,189.116 576.71,189.116 C575.963333,189.116 575.293667,189.237333 574.701,189.48 C574.108333,189.722667 573.620667,190.068 573.238,190.516 L573.238,190.516 L573.952,191.132 C574.586667,190.404 575.478,190.04 576.626,190.04 C577.363333,190.04 577.930333,190.201 578.327,190.523 C578.723667,190.845 578.922,191.295333 578.922,191.874 C578.922,192.247333 578.831,192.618333 578.649,192.987 C578.467,193.355667 578.119333,193.792 577.606,194.296 L577.606,194.296 L573.532,198.286 L573.532,199 L580.406,199 Z M585.516,199.084 C586.272,199.084 586.946333,198.883333 587.539,198.482 C588.131667,198.080667 588.596,197.504333 588.932,196.753 C589.268,196.001667 589.436,195.117333 589.436,194.1 C589.436,193.082667 589.268,192.198333 588.932,191.447 C588.596,190.695667 588.131667,190.119333 587.539,189.718 C586.946333,189.316667 586.272,189.116 585.516,189.116 C584.76,189.116 584.085667,189.316667 583.493,189.718 C582.900333,190.119333 582.438333,190.695667 582.107,191.447 C581.775667,192.198333 581.61,193.082667 581.61,194.1 C581.61,195.117333 581.775667,196.001667 582.107,196.753 C582.438333,197.504333 582.900333,198.080667 583.493,198.482 C584.085667,198.883333 584.76,199.084 585.516,199.084 Z M585.516,198.16 C584.946667,198.16 584.445,198.001333 584.011,197.684 C583.577,197.366667 583.238667,196.904667 582.996,196.298 C582.753333,195.691333 582.632,194.958667 582.632,194.1 C582.632,193.241333 582.753333,192.508667 582.996,191.902 C583.238667,191.295333 583.577,190.833333 584.011,190.516 C584.445,190.198667 584.946667,190.04 585.516,190.04 C586.085333,190.04 586.587,190.198667 587.021,190.516 C587.455,190.833333 587.793333,191.295333 588.036,191.902 C588.278667,192.508667 588.4,193.241333 588.4,194.1 C588.4,194.958667 588.278667,195.691333 588.036,196.298 C587.793333,196.904667 587.455,197.366667 587.021,197.684 C586.587,198.001333 586.085333,198.16 585.516,198.16 Z" id="2020" fill="#FFFFFF" fill-rule="nonzero"></path>
				<path d="M695.349,199 L695.349,198.104 L689.959,198.104 L693.291,194.828 C693.916333,194.221333 694.341,193.684667 694.565,193.218 C694.789,192.751333 694.901,192.266 694.901,191.762 C694.901,190.940667 694.609333,190.294333 694.026,189.823 C693.442667,189.351667 692.651667,189.116 691.653,189.116 C690.906333,189.116 690.236667,189.237333 689.644,189.48 C689.051333,189.722667 688.563667,190.068 688.181,190.516 L688.181,190.516 L688.895,191.132 C689.529667,190.404 690.421,190.04 691.569,190.04 C692.306333,190.04 692.873333,190.201 693.27,190.523 C693.666667,190.845 693.865,191.295333 693.865,191.874 C693.865,192.247333 693.774,192.618333 693.592,192.987 C693.41,193.355667 693.062333,193.792 692.549,194.296 L692.549,194.296 L688.475,198.286 L688.475,199 L695.349,199 Z M700.459,199.084 C701.215,199.084 701.889333,198.883333 702.482,198.482 C703.074667,198.080667 703.539,197.504333 703.875,196.753 C704.211,196.001667 704.379,195.117333 704.379,194.1 C704.379,193.082667 704.211,192.198333 703.875,191.447 C703.539,190.695667 703.074667,190.119333 702.482,189.718 C701.889333,189.316667 701.215,189.116 700.459,189.116 C699.703,189.116 699.028667,189.316667 698.436,189.718 C697.843333,190.119333 697.381333,190.695667 697.05,191.447 C696.718667,192.198333 696.553,193.082667 696.553,194.1 C696.553,195.117333 696.718667,196.001667 697.05,196.753 C697.381333,197.504333 697.843333,198.080667 698.436,198.482 C699.028667,198.883333 699.703,199.084 700.459,199.084 Z M700.459,198.16 C699.889667,198.16 699.388,198.001333 698.954,197.684 C698.52,197.366667 698.181667,196.904667 697.939,196.298 C697.696333,195.691333 697.575,194.958667 697.575,194.1 C697.575,193.241333 697.696333,192.508667 697.939,191.902 C698.181667,191.295333 698.52,190.833333 698.954,190.516 C699.388,190.198667 699.889667,190.04 700.459,190.04 C701.028333,190.04 701.53,190.198667 701.964,190.516 C702.398,190.833333 702.736333,191.295333 702.979,191.902 C703.221667,192.508667 703.343,193.241333 703.343,194.1 C703.343,194.958667 703.221667,195.691333 702.979,196.298 C702.736333,196.904667 702.398,197.366667 701.964,197.684 C701.53,198.001333 701.028333,198.16 700.459,198.16 Z M712.485,199 L712.485,198.104 L707.095,198.104 L710.427,194.828 C711.052333,194.221333 711.477,193.684667 711.701,193.218 C711.925,192.751333 712.037,192.266 712.037,191.762 C712.037,190.940667 711.745333,190.294333 711.162,189.823 C710.578667,189.351667 709.787667,189.116 708.789,189.116 C708.042333,189.116 707.372667,189.237333 706.78,189.48 C706.187333,189.722667 705.699667,190.068 705.317,190.516 L705.317,190.516 L706.031,191.132 C706.665667,190.404 707.557,190.04 708.705,190.04 C709.442333,190.04 710.009333,190.201 710.406,190.523 C710.802667,190.845 711.001,191.295333 711.001,191.874 C711.001,192.247333 710.91,192.618333 710.728,192.987 C710.546,193.355667 710.198333,193.792 709.685,194.296 L709.685,194.296 L705.611,198.286 L705.611,199 L712.485,199 Z M716.461,199 L716.461,189.2 L713.143,189.2 L713.143,190.096 L715.453,190.096 L715.453,199 L716.461,199 Z" id="2021" fill="#FFFFFF" fill-rule="nonzero"></path>
				<path d="M823.9,199 L823.9,198.104 L818.51,198.104 L821.842,194.828 C822.467333,194.221333 822.892,193.684667 823.116,193.218 C823.34,192.751333 823.452,192.266 823.452,191.762 C823.452,190.940667 823.160333,190.294333 822.577,189.823 C821.993667,189.351667 821.202667,189.116 820.204,189.116 C819.457333,189.116 818.787667,189.237333 818.195,189.48 C817.602333,189.722667 817.114667,190.068 816.732,190.516 L816.732,190.516 L817.446,191.132 C818.080667,190.404 818.972,190.04 820.12,190.04 C820.857333,190.04 821.424333,190.201 821.821,190.523 C822.217667,190.845 822.416,191.295333 822.416,191.874 C822.416,192.247333 822.325,192.618333 822.143,192.987 C821.961,193.355667 821.613333,193.792 821.1,194.296 L821.1,194.296 L817.026,198.286 L817.026,199 L823.9,199 Z M829.01,199.084 C829.766,199.084 830.440333,198.883333 831.033,198.482 C831.625667,198.080667 832.09,197.504333 832.426,196.753 C832.762,196.001667 832.93,195.117333 832.93,194.1 C832.93,193.082667 832.762,192.198333 832.426,191.447 C832.09,190.695667 831.625667,190.119333 831.033,189.718 C830.440333,189.316667 829.766,189.116 829.01,189.116 C828.254,189.116 827.579667,189.316667 826.987,189.718 C826.394333,190.119333 825.932333,190.695667 825.601,191.447 C825.269667,192.198333 825.104,193.082667 825.104,194.1 C825.104,195.117333 825.269667,196.001667 825.601,196.753 C825.932333,197.504333 826.394333,198.080667 826.987,198.482 C827.579667,198.883333 828.254,199.084 829.01,199.084 Z M829.01,198.16 C828.440667,198.16 827.939,198.001333 827.505,197.684 C827.071,197.366667 826.732667,196.904667 826.49,196.298 C826.247333,195.691333 826.126,194.958667 826.126,194.1 C826.126,193.241333 826.247333,192.508667 826.49,191.902 C826.732667,191.295333 827.071,190.833333 827.505,190.516 C827.939,190.198667 828.440667,190.04 829.01,190.04 C829.579333,190.04 830.081,190.198667 830.515,190.516 C830.949,190.833333 831.287333,191.295333 831.53,191.902 C831.772667,192.508667 831.894,193.241333 831.894,194.1 C831.894,194.958667 831.772667,195.691333 831.53,196.298 C831.287333,196.904667 830.949,197.366667 830.515,197.684 C830.081,198.001333 829.579333,198.16 829.01,198.16 Z M841.036,199 L841.036,198.104 L835.646,198.104 L838.978,194.828 C839.603333,194.221333 840.028,193.684667 840.252,193.218 C840.476,192.751333 840.588,192.266 840.588,191.762 C840.588,190.940667 840.296333,190.294333 839.713,189.823 C839.129667,189.351667 838.338667,189.116 837.34,189.116 C836.593333,189.116 835.923667,189.237333 835.331,189.48 C834.738333,189.722667 834.250667,190.068 833.868,190.516 L833.868,190.516 L834.582,191.132 C835.216667,190.404 836.108,190.04 837.256,190.04 C837.993333,190.04 838.560333,190.201 838.957,190.523 C839.353667,190.845 839.552,191.295333 839.552,191.874 C839.552,192.247333 839.461,192.618333 839.279,192.987 C839.097,193.355667 838.749333,193.792 838.236,194.296 L838.236,194.296 L834.162,198.286 L834.162,199 L841.036,199 Z M848.988,199 L848.988,198.104 L843.598,198.104 L846.93,194.828 C847.555333,194.221333 847.98,193.684667 848.204,193.218 C848.428,192.751333 848.54,192.266 848.54,191.762 C848.54,190.940667 848.248333,190.294333 847.665,189.823 C847.081667,189.351667 846.290667,189.116 845.292,189.116 C844.545333,189.116 843.875667,189.237333 843.283,189.48 C842.690333,189.722667 842.202667,190.068 841.82,190.516 L841.82,190.516 L842.534,191.132 C843.168667,190.404 844.06,190.04 845.208,190.04 C845.945333,190.04 846.512333,190.201 846.909,190.523 C847.305667,190.845 847.504,191.295333 847.504,191.874 C847.504,192.247333 847.413,192.618333 847.231,192.987 C847.049,193.355667 846.701333,193.792 846.188,194.296 L846.188,194.296 L842.114,198.286 L842.114,199 L848.988,199 Z" id="2022" fill="#FFFFFF" fill-rule="nonzero"></path>
				<path d="M953.928,199 L953.928,198.104 L948.538,198.104 L951.87,194.828 C952.495333,194.221333 952.92,193.684667 953.144,193.218 C953.368,192.751333 953.48,192.266 953.48,191.762 C953.48,190.940667 953.188333,190.294333 952.605,189.823 C952.021667,189.351667 951.230667,189.116 950.232,189.116 C949.485333,189.116 948.815667,189.237333 948.223,189.48 C947.630333,189.722667 947.142667,190.068 946.76,190.516 L946.76,190.516 L947.474,191.132 C948.108667,190.404 949,190.04 950.148,190.04 C950.885333,190.04 951.452333,190.201 951.849,190.523 C952.245667,190.845 952.444,191.295333 952.444,191.874 C952.444,192.247333 952.353,192.618333 952.171,192.987 C951.989,193.355667 951.641333,193.792 951.128,194.296 L951.128,194.296 L947.054,198.286 L947.054,199 L953.928,199 Z M959.038,199.084 C959.794,199.084 960.468333,198.883333 961.061,198.482 C961.653667,198.080667 962.118,197.504333 962.454,196.753 C962.79,196.001667 962.958,195.117333 962.958,194.1 C962.958,193.082667 962.79,192.198333 962.454,191.447 C962.118,190.695667 961.653667,190.119333 961.061,189.718 C960.468333,189.316667 959.794,189.116 959.038,189.116 C958.282,189.116 957.607667,189.316667 957.015,189.718 C956.422333,190.119333 955.960333,190.695667 955.629,191.447 C955.297667,192.198333 955.132,193.082667 955.132,194.1 C955.132,195.117333 955.297667,196.001667 955.629,196.753 C955.960333,197.504333 956.422333,198.080667 957.015,198.482 C957.607667,198.883333 958.282,199.084 959.038,199.084 Z M959.038,198.16 C958.468667,198.16 957.967,198.001333 957.533,197.684 C957.099,197.366667 956.760667,196.904667 956.518,196.298 C956.275333,195.691333 956.154,194.958667 956.154,194.1 C956.154,193.241333 956.275333,192.508667 956.518,191.902 C956.760667,191.295333 957.099,190.833333 957.533,190.516 C957.967,190.198667 958.468667,190.04 959.038,190.04 C959.607333,190.04 960.109,190.198667 960.543,190.516 C960.977,190.833333 961.315333,191.295333 961.558,191.902 C961.800667,192.508667 961.922,193.241333 961.922,194.1 C961.922,194.958667 961.800667,195.691333 961.558,196.298 C961.315333,196.904667 960.977,197.366667 960.543,197.684 C960.109,198.001333 959.607333,198.16 959.038,198.16 Z M971.064,199 L971.064,198.104 L965.674,198.104 L969.006,194.828 C969.631333,194.221333 970.056,193.684667 970.28,193.218 C970.504,192.751333 970.616,192.266 970.616,191.762 C970.616,190.940667 970.324333,190.294333 969.741,189.823 C969.157667,189.351667 968.366667,189.116 967.368,189.116 C966.621333,189.116 965.951667,189.237333 965.359,189.48 C964.766333,189.722667 964.278667,190.068 963.896,190.516 L963.896,190.516 L964.61,191.132 C965.244667,190.404 966.136,190.04 967.284,190.04 C968.021333,190.04 968.588333,190.201 968.985,190.523 C969.381667,190.845 969.58,191.295333 969.58,191.874 C969.58,192.247333 969.489,192.618333 969.307,192.987 C969.125,193.355667 968.777333,193.792 968.264,194.296 L968.264,194.296 L964.19,198.286 L964.19,199 L971.064,199 Z M975.25,199.084 C976.015333,199.084 976.664,198.958 977.196,198.706 C977.728,198.454 978.129333,198.111 978.4,197.677 C978.670667,197.243 978.806,196.746 978.806,196.186 C978.806,195.383333 978.537667,194.732333 978.001,194.233 C977.464333,193.733667 976.682667,193.456 975.656,193.4 L975.656,193.4 L978.428,189.914 L978.428,189.2 L972.128,189.2 L972.128,190.096 L977.14,190.096 L974.424,193.498 L974.424,194.24 L975.124,194.24 C976.010667,194.24 976.673333,194.412667 977.112,194.758 C977.550667,195.103333 977.77,195.579333 977.77,196.186 C977.77,196.802 977.550667,197.285 977.112,197.635 C976.673333,197.985 976.052667,198.16 975.25,198.16 C974.634,198.16 974.055333,198.055 973.514,197.845 C972.972667,197.635 972.538667,197.362 972.212,197.026 L972.212,197.026 L971.722,197.824 C972.104667,198.206667 972.611,198.512333 973.241,198.741 C973.871,198.969667 974.540667,199.084 975.25,199.084 Z" id="2023" fill="#FFFFFF" fill-rule="nonzero"></path>
				<path d="M1083.41,199 L1083.41,198.104 L1078.02,198.104 L1081.352,194.828 C1081.97733,194.221333 1082.402,193.684667 1082.626,193.218 C1082.85,192.751333 1082.962,192.266 1082.962,191.762 C1082.962,190.940667 1082.67033,190.294333 1082.087,189.823 C1081.50367,189.351667 1080.71267,189.116 1079.714,189.116 C1078.96733,189.116 1078.29767,189.237333 1077.705,189.48 C1077.11233,189.722667 1076.62467,190.068 1076.242,190.516 L1076.242,190.516 L1076.956,191.132 C1077.59067,190.404 1078.482,190.04 1079.63,190.04 C1080.36733,190.04 1080.93433,190.201 1081.331,190.523 C1081.72767,190.845 1081.926,191.295333 1081.926,191.874 C1081.926,192.247333 1081.835,192.618333 1081.653,192.987 C1081.471,193.355667 1081.12333,193.792 1080.61,194.296 L1080.61,194.296 L1076.536,198.286 L1076.536,199 L1083.41,199 Z M1088.52,199.084 C1089.276,199.084 1089.95033,198.883333 1090.543,198.482 C1091.13567,198.080667 1091.6,197.504333 1091.936,196.753 C1092.272,196.001667 1092.44,195.117333 1092.44,194.1 C1092.44,193.082667 1092.272,192.198333 1091.936,191.447 C1091.6,190.695667 1091.13567,190.119333 1090.543,189.718 C1089.95033,189.316667 1089.276,189.116 1088.52,189.116 C1087.764,189.116 1087.08967,189.316667 1086.497,189.718 C1085.90433,190.119333 1085.44233,190.695667 1085.111,191.447 C1084.77967,192.198333 1084.614,193.082667 1084.614,194.1 C1084.614,195.117333 1084.77967,196.001667 1085.111,196.753 C1085.44233,197.504333 1085.90433,198.080667 1086.497,198.482 C1087.08967,198.883333 1087.764,199.084 1088.52,199.084 Z M1088.52,198.16 C1087.95067,198.16 1087.449,198.001333 1087.015,197.684 C1086.581,197.366667 1086.24267,196.904667 1086,196.298 C1085.75733,195.691333 1085.636,194.958667 1085.636,194.1 C1085.636,193.241333 1085.75733,192.508667 1086,191.902 C1086.24267,191.295333 1086.581,190.833333 1087.015,190.516 C1087.449,190.198667 1087.95067,190.04 1088.52,190.04 C1089.08933,190.04 1089.591,190.198667 1090.025,190.516 C1090.459,190.833333 1090.79733,191.295333 1091.04,191.902 C1091.28267,192.508667 1091.404,193.241333 1091.404,194.1 C1091.404,194.958667 1091.28267,195.691333 1091.04,196.298 C1090.79733,196.904667 1090.459,197.366667 1090.025,197.684 C1089.591,198.001333 1089.08933,198.16 1088.52,198.16 Z M1100.546,199 L1100.546,198.104 L1095.156,198.104 L1098.488,194.828 C1099.11333,194.221333 1099.538,193.684667 1099.762,193.218 C1099.986,192.751333 1100.098,192.266 1100.098,191.762 C1100.098,190.940667 1099.80633,190.294333 1099.223,189.823 C1098.63967,189.351667 1097.84867,189.116 1096.85,189.116 C1096.10333,189.116 1095.43367,189.237333 1094.841,189.48 C1094.24833,189.722667 1093.76067,190.068 1093.378,190.516 L1093.378,190.516 L1094.092,191.132 C1094.72667,190.404 1095.618,190.04 1096.766,190.04 C1097.50333,190.04 1098.07033,190.201 1098.467,190.523 C1098.86367,190.845 1099.062,191.295333 1099.062,191.874 C1099.062,192.247333 1098.971,192.618333 1098.789,192.987 C1098.607,193.355667 1098.25933,193.792 1097.746,194.296 L1097.746,194.296 L1093.672,198.286 L1093.672,199 L1100.546,199 Z M1107.854,199 L1107.854,196.424 L1109.814,196.424 L1109.814,195.528 L1107.854,195.528 L1107.854,193.26 L1106.874,193.26 L1106.874,195.528 L1102.618,195.528 L1107.63,189.2 L1106.51,189.2 L1101.316,195.696 L1101.316,196.424 L1106.846,196.424 L1106.846,199 L1107.854,199 Z" id="2024" fill="#FFFFFF" fill-rule="nonzero"></path>
				<path d="M1213.914,199 L1213.914,198.104 L1208.524,198.104 L1211.856,194.828 C1212.48133,194.221333 1212.906,193.684667 1213.13,193.218 C1213.354,192.751333 1213.466,192.266 1213.466,191.762 C1213.466,190.940667 1213.17433,190.294333 1212.591,189.823 C1212.00767,189.351667 1211.21667,189.116 1210.218,189.116 C1209.47133,189.116 1208.80167,189.237333 1208.209,189.48 C1207.61633,189.722667 1207.12867,190.068 1206.746,190.516 L1206.746,190.516 L1207.46,191.132 C1208.09467,190.404 1208.986,190.04 1210.134,190.04 C1210.87133,190.04 1211.43833,190.201 1211.835,190.523 C1212.23167,190.845 1212.43,191.295333 1212.43,191.874 C1212.43,192.247333 1212.339,192.618333 1212.157,192.987 C1211.975,193.355667 1211.62733,193.792 1211.114,194.296 L1211.114,194.296 L1207.04,198.286 L1207.04,199 L1213.914,199 Z M1219.024,199.084 C1219.78,199.084 1220.45433,198.883333 1221.047,198.482 C1221.63967,198.080667 1222.104,197.504333 1222.44,196.753 C1222.776,196.001667 1222.944,195.117333 1222.944,194.1 C1222.944,193.082667 1222.776,192.198333 1222.44,191.447 C1222.104,190.695667 1221.63967,190.119333 1221.047,189.718 C1220.45433,189.316667 1219.78,189.116 1219.024,189.116 C1218.268,189.116 1217.59367,189.316667 1217.001,189.718 C1216.40833,190.119333 1215.94633,190.695667 1215.615,191.447 C1215.28367,192.198333 1215.118,193.082667 1215.118,194.1 C1215.118,195.117333 1215.28367,196.001667 1215.615,196.753 C1215.94633,197.504333 1216.40833,198.080667 1217.001,198.482 C1217.59367,198.883333 1218.268,199.084 1219.024,199.084 Z M1219.024,198.16 C1218.45467,198.16 1217.953,198.001333 1217.519,197.684 C1217.085,197.366667 1216.74667,196.904667 1216.504,196.298 C1216.26133,195.691333 1216.14,194.958667 1216.14,194.1 C1216.14,193.241333 1216.26133,192.508667 1216.504,191.902 C1216.74667,191.295333 1217.085,190.833333 1217.519,190.516 C1217.953,190.198667 1218.45467,190.04 1219.024,190.04 C1219.59333,190.04 1220.095,190.198667 1220.529,190.516 C1220.963,190.833333 1221.30133,191.295333 1221.544,191.902 C1221.78667,192.508667 1221.908,193.241333 1221.908,194.1 C1221.908,194.958667 1221.78667,195.691333 1221.544,196.298 C1221.30133,196.904667 1220.963,197.366667 1220.529,197.684 C1220.095,198.001333 1219.59333,198.16 1219.024,198.16 Z M1231.05,199 L1231.05,198.104 L1225.66,198.104 L1228.992,194.828 C1229.61733,194.221333 1230.042,193.684667 1230.266,193.218 C1230.49,192.751333 1230.602,192.266 1230.602,191.762 C1230.602,190.940667 1230.31033,190.294333 1229.727,189.823 C1229.14367,189.351667 1228.35267,189.116 1227.354,189.116 C1226.60733,189.116 1225.93767,189.237333 1225.345,189.48 C1224.75233,189.722667 1224.26467,190.068 1223.882,190.516 L1223.882,190.516 L1224.596,191.132 C1225.23067,190.404 1226.122,190.04 1227.27,190.04 C1228.00733,190.04 1228.57433,190.201 1228.971,190.523 C1229.36767,190.845 1229.566,191.295333 1229.566,191.874 C1229.566,192.247333 1229.475,192.618333 1229.293,192.987 C1229.111,193.355667 1228.76333,193.792 1228.25,194.296 L1228.25,194.296 L1224.176,198.286 L1224.176,199 L1231.05,199 Z M1235.404,199.084 C1236.17867,199.084 1236.832,198.955667 1237.364,198.699 C1237.896,198.442333 1238.295,198.09 1238.561,197.642 C1238.827,197.194 1238.96,196.685333 1238.96,196.116 C1238.96,195.201333 1238.63567,194.489667 1237.987,193.981 C1237.33833,193.472333 1236.30467,193.218 1234.886,193.218 L1234.886,193.218 L1233.626,193.218 L1233.962,190.096 L1238.442,190.096 L1238.442,189.2 L1233.08,189.2 L1232.576,194.114 L1234.662,194.114 C1235.84733,194.114 1236.68967,194.286667 1237.189,194.632 C1237.68833,194.977333 1237.938,195.486 1237.938,196.158 C1237.938,196.764667 1237.71633,197.25 1237.273,197.614 C1236.82967,197.978 1236.202,198.16 1235.39,198.16 C1234.774,198.16 1234.2,198.055 1233.668,197.845 C1233.136,197.635 1232.70667,197.362 1232.38,197.026 L1232.38,197.026 L1231.89,197.824 C1232.27267,198.206667 1232.779,198.512333 1233.409,198.741 C1234.039,198.969667 1234.704,199.084 1235.404,199.084 Z" id="2025" fill="#FFFFFF" fill-rule="nonzero"></path>
				<path d="M1343.641,199 L1343.641,198.104 L1338.251,198.104 L1341.583,194.828 C1342.20833,194.221333 1342.633,193.684667 1342.857,193.218 C1343.081,192.751333 1343.193,192.266 1343.193,191.762 C1343.193,190.940667 1342.90133,190.294333 1342.318,189.823 C1341.73467,189.351667 1340.94367,189.116 1339.945,189.116 C1339.19833,189.116 1338.52867,189.237333 1337.936,189.48 C1337.34333,189.722667 1336.85567,190.068 1336.473,190.516 L1336.473,190.516 L1337.187,191.132 C1337.82167,190.404 1338.713,190.04 1339.861,190.04 C1340.59833,190.04 1341.16533,190.201 1341.562,190.523 C1341.95867,190.845 1342.157,191.295333 1342.157,191.874 C1342.157,192.247333 1342.066,192.618333 1341.884,192.987 C1341.702,193.355667 1341.35433,193.792 1340.841,194.296 L1340.841,194.296 L1336.767,198.286 L1336.767,199 L1343.641,199 Z M1348.751,199.084 C1349.507,199.084 1350.18133,198.883333 1350.774,198.482 C1351.36667,198.080667 1351.831,197.504333 1352.167,196.753 C1352.503,196.001667 1352.671,195.117333 1352.671,194.1 C1352.671,193.082667 1352.503,192.198333 1352.167,191.447 C1351.831,190.695667 1351.36667,190.119333 1350.774,189.718 C1350.18133,189.316667 1349.507,189.116 1348.751,189.116 C1347.995,189.116 1347.32067,189.316667 1346.728,189.718 C1346.13533,190.119333 1345.67333,190.695667 1345.342,191.447 C1345.01067,192.198333 1344.845,193.082667 1344.845,194.1 C1344.845,195.117333 1345.01067,196.001667 1345.342,196.753 C1345.67333,197.504333 1346.13533,198.080667 1346.728,198.482 C1347.32067,198.883333 1347.995,199.084 1348.751,199.084 Z M1348.751,198.16 C1348.18167,198.16 1347.68,198.001333 1347.246,197.684 C1346.812,197.366667 1346.47367,196.904667 1346.231,196.298 C1345.98833,195.691333 1345.867,194.958667 1345.867,194.1 C1345.867,193.241333 1345.98833,192.508667 1346.231,191.902 C1346.47367,191.295333 1346.812,190.833333 1347.246,190.516 C1347.68,190.198667 1348.18167,190.04 1348.751,190.04 C1349.32033,190.04 1349.822,190.198667 1350.256,190.516 C1350.69,190.833333 1351.02833,191.295333 1351.271,191.902 C1351.51367,192.508667 1351.635,193.241333 1351.635,194.1 C1351.635,194.958667 1351.51367,195.691333 1351.271,196.298 C1351.02833,196.904667 1350.69,197.366667 1350.256,197.684 C1349.822,198.001333 1349.32033,198.16 1348.751,198.16 Z M1360.777,199 L1360.777,198.104 L1355.387,198.104 L1358.719,194.828 C1359.34433,194.221333 1359.769,193.684667 1359.993,193.218 C1360.217,192.751333 1360.329,192.266 1360.329,191.762 C1360.329,190.940667 1360.03733,190.294333 1359.454,189.823 C1358.87067,189.351667 1358.07967,189.116 1357.081,189.116 C1356.33433,189.116 1355.66467,189.237333 1355.072,189.48 C1354.47933,189.722667 1353.99167,190.068 1353.609,190.516 L1353.609,190.516 L1354.323,191.132 C1354.95767,190.404 1355.849,190.04 1356.997,190.04 C1357.73433,190.04 1358.30133,190.201 1358.698,190.523 C1359.09467,190.845 1359.293,191.295333 1359.293,191.874 C1359.293,192.247333 1359.202,192.618333 1359.02,192.987 C1358.838,193.355667 1358.49033,193.792 1357.977,194.296 L1357.977,194.296 L1353.903,198.286 L1353.903,199 L1360.777,199 Z M1365.999,199.084 C1366.63367,199.084 1367.20533,198.960333 1367.714,198.713 C1368.22267,198.465667 1368.62167,198.113333 1368.911,197.656 C1369.20033,197.198667 1369.345,196.671333 1369.345,196.074 C1369.345,195.486 1369.205,194.970333 1368.925,194.527 C1368.645,194.083667 1368.25533,193.740667 1367.756,193.498 C1367.25667,193.255333 1366.685,193.134 1366.041,193.134 C1365.35033,193.134 1364.739,193.281 1364.207,193.575 C1363.675,193.869 1363.28767,194.282 1363.045,194.814 C1363.017,194.515333 1363.003,194.249333 1363.003,194.016 C1363.003,192.709333 1363.311,191.713 1363.927,191.027 C1364.543,190.341 1365.39233,189.998 1366.475,189.998 C1367.27767,189.998 1367.91233,190.152 1368.379,190.46 L1368.379,190.46 L1368.785,189.648 C1368.20633,189.293333 1367.43167,189.116 1366.461,189.116 C1365.565,189.116 1364.781,189.309667 1364.109,189.697 C1363.437,190.084333 1362.91433,190.656 1362.541,191.412 C1362.16767,192.168 1361.981,193.092 1361.981,194.184 C1361.981,195.742667 1362.32633,196.949 1363.017,197.803 C1363.70767,198.657 1364.70167,199.084 1365.999,199.084 Z M1365.957,198.23 C1365.41567,198.23 1364.949,198.132 1364.557,197.936 C1364.165,197.74 1363.86867,197.483333 1363.668,197.166 C1363.46733,196.848667 1363.367,196.503333 1363.367,196.13 C1363.367,195.728667 1363.47433,195.364667 1363.689,195.038 C1363.90367,194.711333 1364.2,194.454667 1364.578,194.268 C1364.956,194.081333 1365.39233,193.988 1365.887,193.988 C1366.643,193.988 1367.24267,194.179333 1367.686,194.562 C1368.12933,194.944667 1368.351,195.458 1368.351,196.102 C1368.351,196.746 1368.12933,197.261667 1367.686,197.649 C1367.24267,198.036333 1366.66633,198.23 1365.957,198.23 Z" id="2026" fill="#FFFFFF" fill-rule="nonzero"></path>
				<path d="M1473.781,199 L1473.781,198.104 L1468.391,198.104 L1471.723,194.828 C1472.34833,194.221333 1472.773,193.684667 1472.997,193.218 C1473.221,192.751333 1473.333,192.266 1473.333,191.762 C1473.333,190.940667 1473.04133,190.294333 1472.458,189.823 C1471.87467,189.351667 1471.08367,189.116 1470.085,189.116 C1469.33833,189.116 1468.66867,189.237333 1468.076,189.48 C1467.48333,189.722667 1466.99567,190.068 1466.613,190.516 L1466.613,190.516 L1467.327,191.132 C1467.96167,190.404 1468.853,190.04 1470.001,190.04 C1470.73833,190.04 1471.30533,190.201 1471.702,190.523 C1472.09867,190.845 1472.297,191.295333 1472.297,191.874 C1472.297,192.247333 1472.206,192.618333 1472.024,192.987 C1471.842,193.355667 1471.49433,193.792 1470.981,194.296 L1470.981,194.296 L1466.907,198.286 L1466.907,199 L1473.781,199 Z M1478.891,199.084 C1479.647,199.084 1480.32133,198.883333 1480.914,198.482 C1481.50667,198.080667 1481.971,197.504333 1482.307,196.753 C1482.643,196.001667 1482.811,195.117333 1482.811,194.1 C1482.811,193.082667 1482.643,192.198333 1482.307,191.447 C1481.971,190.695667 1481.50667,190.119333 1480.914,189.718 C1480.32133,189.316667 1479.647,189.116 1478.891,189.116 C1478.135,189.116 1477.46067,189.316667 1476.868,189.718 C1476.27533,190.119333 1475.81333,190.695667 1475.482,191.447 C1475.15067,192.198333 1474.985,193.082667 1474.985,194.1 C1474.985,195.117333 1475.15067,196.001667 1475.482,196.753 C1475.81333,197.504333 1476.27533,198.080667 1476.868,198.482 C1477.46067,198.883333 1478.135,199.084 1478.891,199.084 Z M1478.891,198.16 C1478.32167,198.16 1477.82,198.001333 1477.386,197.684 C1476.952,197.366667 1476.61367,196.904667 1476.371,196.298 C1476.12833,195.691333 1476.007,194.958667 1476.007,194.1 C1476.007,193.241333 1476.12833,192.508667 1476.371,191.902 C1476.61367,191.295333 1476.952,190.833333 1477.386,190.516 C1477.82,190.198667 1478.32167,190.04 1478.891,190.04 C1479.46033,190.04 1479.962,190.198667 1480.396,190.516 C1480.83,190.833333 1481.16833,191.295333 1481.411,191.902 C1481.65367,192.508667 1481.775,193.241333 1481.775,194.1 C1481.775,194.958667 1481.65367,195.691333 1481.411,196.298 C1481.16833,196.904667 1480.83,197.366667 1480.396,197.684 C1479.962,198.001333 1479.46033,198.16 1478.891,198.16 Z M1490.917,199 L1490.917,198.104 L1485.527,198.104 L1488.859,194.828 C1489.48433,194.221333 1489.909,193.684667 1490.133,193.218 C1490.357,192.751333 1490.469,192.266 1490.469,191.762 C1490.469,190.940667 1490.17733,190.294333 1489.594,189.823 C1489.01067,189.351667 1488.21967,189.116 1487.221,189.116 C1486.47433,189.116 1485.80467,189.237333 1485.212,189.48 C1484.61933,189.722667 1484.13167,190.068 1483.749,190.516 L1483.749,190.516 L1484.463,191.132 C1485.09767,190.404 1485.989,190.04 1487.137,190.04 C1487.87433,190.04 1488.44133,190.201 1488.838,190.523 C1489.23467,190.845 1489.433,191.295333 1489.433,191.874 C1489.433,192.247333 1489.342,192.618333 1489.16,192.987 C1488.978,193.355667 1488.63033,193.792 1488.117,194.296 L1488.117,194.296 L1484.043,198.286 L1484.043,199 L1490.917,199 Z M1494.935,199 L1499.037,189.914 L1499.037,189.2 L1491.841,189.2 L1491.841,191.93 L1492.835,191.93 L1492.835,190.096 L1497.875,190.096 L1493.843,199 L1494.935,199 Z" id="2027" fill="#FFFFFF" fill-rule="nonzero"></path>
			</g>
		</g>
	</g>
</svg>
