<svg width="172" height="301" fill="none" xmlns="http://www.w3.org/2000/svg">
	<rect width="172" height="301" rx="8" fill="#55439D" />
	<path d="M57.214 113l-.018-7.542-3.708 6.21h-1.296l-3.708-6.066V113h-2.736v-12.6h2.412l4.716 7.83 4.644-7.83h2.412l.018 12.6h-2.736zm9.412-9.828c1.5 0 2.652.36 3.456 1.08.804.708 1.206 1.782 1.206 3.222V113H68.66v-1.206c-.528.9-1.512 1.35-2.952 1.35-.744 0-1.392-.126-1.944-.378-.54-.252-.954-.6-1.242-1.044a2.717 2.717 0 01-.432-1.512c0-.9.336-1.608 1.008-2.124.684-.516 1.734-.774 3.15-.774h2.232c0-.612-.186-1.08-.558-1.404-.372-.336-.93-.504-1.674-.504a4.81 4.81 0 00-1.53.252 3.904 3.904 0 00-1.26.648l-1.008-1.962c.528-.372 1.158-.66 1.89-.864a8.606 8.606 0 012.286-.306zm-.216 8.082c.48 0 .906-.108 1.278-.324.372-.228.636-.558.792-.99v-.99h-1.926c-1.152 0-1.728.378-1.728 1.134 0 .36.138.648.414.864.288.204.678.306 1.17.306zm15.075-5.634h-4.968V113h-2.79v-9.684h7.758v2.304zm5.25-2.448c1.5 0 2.652.36 3.456 1.08.804.708 1.206 1.782 1.206 3.222V113h-2.628v-1.206c-.528.9-1.512 1.35-2.952 1.35-.744 0-1.392-.126-1.944-.378-.54-.252-.954-.6-1.242-1.044a2.717 2.717 0 01-.432-1.512c0-.9.336-1.608 1.008-2.124.684-.516 1.734-.774 3.15-.774h2.232c0-.612-.186-1.08-.558-1.404-.372-.336-.93-.504-1.674-.504a4.81 4.81 0 00-1.53.252 3.904 3.904 0 00-1.26.648l-1.008-1.962c.528-.372 1.158-.66 1.89-.864a8.606 8.606 0 012.286-.306zm-.216 8.082c.48 0 .906-.108 1.278-.324.372-.228.636-.558.792-.99v-.99h-1.926c-1.152 0-1.728.378-1.728 1.134 0 .36.138.648.414.864.288.204.678.306 1.17.306zm13.511-3.294c.576.18 1.02.456 1.332.828.324.372.486.816.486 1.332 0 .612-.21 1.152-.63 1.62-.42.456-.996.81-1.728 1.062s-1.56.378-2.484.378c-.756 0-1.5-.078-2.232-.234a8.479 8.479 0 01-2.034-.702l.756-1.962c1.02.492 2.148.738 3.384.738.66 0 1.176-.096 1.548-.288.384-.204.576-.486.576-.846a.764.764 0 00-.396-.702c-.264-.168-.648-.252-1.152-.252h-1.98v-1.746h1.728c.492 0 .87-.078 1.134-.234a.749.749 0 00.396-.684c0-.312-.168-.552-.504-.72-.324-.168-.792-.252-1.404-.252-.936 0-1.956.222-3.06.666l-.684-1.944c1.344-.588 2.652-.882 3.924-.882.876 0 1.656.108 2.34.324.696.216 1.242.534 1.638.954a2 2 0 01.594 1.44c0 .456-.138.87-.414 1.242-.276.36-.654.648-1.134.864zm3.861-4.644h2.79v5.76l4.716-5.76h2.574V113h-2.79v-5.76l-4.698 5.76h-2.592v-9.684zm12.779 0h2.79v3.78h4.212v-3.78h2.808V113h-2.808v-3.618h-4.212V113h-2.79v-9.684zM63.483 264.216c-1.284 0-2.448-.276-3.492-.828a6.416 6.416 0 01-2.448-2.322c-.588-.996-.882-2.118-.882-3.366 0-1.248.294-2.364.882-3.348a6.242 6.242 0 012.448-2.322c1.044-.564 2.214-.846 3.51-.846 1.092 0 2.076.192 2.952.576a5.915 5.915 0 012.232 1.656l-1.872 1.728c-.852-.984-1.908-1.476-3.168-1.476-.78 0-1.476.174-2.088.522a3.647 3.647 0 00-1.44 1.422c-.336.612-.504 1.308-.504 2.088s.168 1.476.504 2.088a3.773 3.773 0 001.44 1.44c.612.336 1.308.504 2.088.504 1.26 0 2.316-.498 3.168-1.494l1.872 1.728a5.835 5.835 0 01-2.232 1.674c-.888.384-1.878.576-2.97.576zm11.152-3.888h-1.458V264H70.37v-9.684h2.808v3.762h1.512l2.629-3.762h2.987l-3.384 4.644L80.54 264h-3.311l-2.593-3.672zm16.571-6.012V264h-2.808v-7.38h-3.06l-.09 1.71c-.048 1.272-.168 2.328-.36 3.168-.192.84-.504 1.5-.936 1.98-.432.48-1.032.72-1.8.72-.408 0-.894-.072-1.458-.216l.144-2.304c.192.024.33.036.414.036.42 0 .732-.15.936-.45.216-.312.36-.702.432-1.17.072-.48.126-1.11.162-1.89l.144-3.888h8.28zm6.463-.144c1.5 0 2.652.36 3.456 1.08.804.708 1.206 1.782 1.206 3.222V264h-2.628v-1.206c-.528.9-1.512 1.35-2.952 1.35-.744 0-1.392-.126-1.944-.378-.54-.252-.954-.6-1.242-1.044a2.717 2.717 0 01-.432-1.512c0-.9.336-1.608 1.008-2.124.684-.516 1.734-.774 3.15-.774h2.232c0-.612-.186-1.08-.558-1.404-.372-.336-.93-.504-1.674-.504a4.81 4.81 0 00-1.53.252 3.904 3.904 0 00-1.26.648l-1.008-1.962c.528-.372 1.158-.66 1.89-.864a8.606 8.606 0 012.286-.306zm-.216 8.082c.48 0 .906-.108 1.278-.324.372-.228.636-.558.792-.99v-.99h-1.926c-1.152 0-1.728.378-1.728 1.134 0 .36.138.648.414.864.288.204.678.306 1.17.306zm18.171-.558v4.392h-2.61V264h-6.804v2.088h-2.61v-4.392h.396c.6-.012 1.014-.366 1.242-1.062.228-.696.372-1.686.432-2.97l.126-3.348h8.442v7.38h1.386zm-7.416-3.834c-.036.984-.114 1.788-.234 2.412-.108.624-.318 1.098-.63 1.422h4.086v-5.076h-3.168l-.054 1.242zM101 71.938a.939.939 0 10.001 1.877.939.939 0 00-.001-1.877z" fill="#fff" />
	<path fill-rule="evenodd" clip-rule="evenodd" d="M103.812 36.447v-1.635A2.815 2.815 0 00101 32H71a2.816 2.816 0 00-2.813 2.813v1.634a636.63 636.63 0 01-5.217 9.479c-.95 1.69-.97 1.727-.97 2.01V49.813c0 1.626.94 3.137 2.438 3.996v25.255c0 .517.42.937.937.937h41.25c.518 0 .937-.42.937-.938V53.808c1.483-.858 2.438-2.388 2.438-3.995v-1.876c0-.288-.038-.356-1.003-2.074-.837-1.49-2.372-4.222-5.185-9.416zM107.477 47h-5.801l-3.125-9.375h3.77L107.477 47zm-7.415 1.875h-5.624v.938a2.816 2.816 0 002.812 2.812 2.815 2.815 0 002.812-2.813v-.937zM94.294 47l-1.562-9.375h3.842L99.7 47h-5.405zM71 33.875a.939.939 0 00-.938.938v.937h31.876v-.938a.939.939 0 00-.938-.937H71zm21.563 15v.938a2.816 2.816 0 01-2.813 2.812 2.816 2.816 0 01-2.813-2.813v-.937h5.626zm-5.626-11.25V47h5.456l-1.562-9.375h-3.894zM79.608 47l1.562-9.375h3.894V47h-5.456zm5.456 2.813v-.938h-5.626v.938a2.816 2.816 0 002.813 2.812 2.816 2.816 0 002.813-2.813zM72.3 47l3.125-9.375h3.842L77.706 47H72.3zm5.261 2.813v-.938h-5.624v.938a2.816 2.816 0 002.812 2.812 2.816 2.816 0 002.813-2.813zM69.68 37.624h3.77L70.324 47h-5.801l5.156-9.375zm-5.804 11.25v.938c0 1.052.751 2.08 1.869 2.555.394.168.817.257 1.225.257 1.619 0 3.094-1.34 3.094-2.813v-.937h-6.188zm17.438 29.25h-9.376v-8.063h9.376v8.063zm-9.376-9.938h9.376v-8.062h-9.376v8.063zm33.751 9.938h-22.5V59.187a.938.938 0 00-.938-.937H71a.938.938 0 00-.938.938v18.937h-3.75v-23.67c.218.029.437.045.657.045 1.234 0 2.48-.489 3.421-1.341.209-.189.396-.39.564-.601a4.683 4.683 0 007.546.064 4.683 4.683 0 007.5 0 4.683 4.683 0 007.5 0 4.683 4.683 0 007.546-.064c.168.21.356.412.564.6.94.853 2.187 1.342 3.421 1.342.22 0 .439-.016.657-.045v23.67zm.499-25.727c1.159-.464 1.938-1.503 1.938-2.586v-.937h-6.187v.938c0 1.471 1.474 2.812 3.093 2.812.388 0 .777-.076 1.156-.227z" fill="#fff" />
	<path fill-rule="evenodd" clip-rule="evenodd" d="M101.938 68.188h.937a.937.937 0 110 1.874h-15a.938.938 0 010-1.874h.938v-9c0-.518.42-.938.937-.938H101c.518 0 .938.42.938.938v9zm-11.25 0h9.374v-8.063h-9.374v8.063z" fill="#fff" />
	<path d="M97.25 71.938h-7.5a.938.938 0 000 1.874h7.5a.938.938 0 000-1.874zM68.938 208.838a.945.945 0 00.662-.273.95.95 0 00.275-.664c0-.247-.1-.489-.275-.663a.946.946 0 00-.662-.275.946.946 0 00-.663.275.943.943 0 00-.275.663c0 .247.1.489.275.664a.945.945 0 00.662.273z" fill="#fff" />
	<path fill-rule="evenodd" clip-rule="evenodd" d="M109.516 195.867l-8.568-4.737a.937.937 0 10-.907 1.641l8.084 4.47v31.884H104v-29.437a.938.938 0 00-.938-.938H68.938a.938.938 0 00-.938.938v4.463a.938.938 0 101.875 0v-3.526h32.25v28.5H98.2v-9.375a1.877 1.877 0 00-1.875-1.875h-3.75V208.5a1.877 1.877 0 00-1.875-1.875h-9.375a1.877 1.877 0 00-1.875 1.875v9.375h-3.763a1.877 1.877 0 00-1.874 1.875v9.375h-3.938v-17.474a.938.938 0 00-1.875 0v17.474h-4.125v-31.884L86 185.009l7.477 4.134a.938.938 0 00.907-1.641l-7.93-4.385a.938.938 0 00-.908 0l-23.062 12.75a.937.937 0 00-.484.821v33.375c0 .517.42.937.938.937h46.124c.518 0 .938-.42.938-.937v-33.375a.937.937 0 00-.484-.821zM90.7 219.75h1.875v1.875H90.7v-1.875zm-3.763-9.375V208.5h-1.874v1.875h1.874zm-5.612-1.875h1.862v2.813c0 .517.42.937.938.937h3.75c.518 0 .938-.42.938-.937V208.5H90.7v9.375h-9.375V208.5zm0 13.125v-1.875H79.45v1.875h1.875zm-5.638 7.5v-9.375h1.888v2.813c0 .517.42.937.937.937h3.75c.517 0 .938-.42.938-.937v-2.813h1.862l.002 9.375H75.687zm11.263-9.375v9.375h9.375v-9.375H94.45v2.813c0 .517-.42.937-.938.937h-3.75a.938.938 0 01-.937-.937v-2.813H86.95z" fill="#fff" />
	<path d="M97.213 191.074a.947.947 0 00.663-.275.946.946 0 00.274-.663c0-.247-.1-.488-.275-.663a.946.946 0 00-.662-.274c-.247 0-.489.1-.663.274a.946.946 0 00-.275.663c0 .247.1.488.275.663a.946.946 0 00.663.275z" fill="#fff" />
	<path fill-rule="evenodd" clip-rule="evenodd" d="M86 196.5a3.942 3.942 0 01-3.938-3.938A3.942 3.942 0 0186 188.625a3.942 3.942 0 013.938 3.937A3.942 3.942 0 0186 196.5zm0-1.875a2.065 2.065 0 002.063-2.063A2.064 2.064 0 0086 190.5a2.064 2.064 0 00-2.063 2.062c0 1.138.925 2.063 2.063 2.063z" fill="#fff" />
	<path fill="#D8D8D8" fill-opacity=".2" d="M26 150h120v1H26z" />
</svg>
