<svg width="172" height="154" viewBox="0 0 172 154" fill="none" xmlns="http://www.w3.org/2000/svg">
	<rect width="172" height="154" rx="8" fill="#55439D"/>
	<path d="M58.9127 117.216C57.6287 117.216 56.4647 116.94 55.4207 116.388C54.3887 115.824 53.5727 115.05 52.9727 114.066C52.3847 113.07 52.0907 111.948 52.0907 110.7C52.0907 109.452 52.3847 108.336 52.9727 107.352C53.5727 106.356 54.3887 105.582 55.4207 105.03C56.4647 104.466 57.6347 104.184 58.9307 104.184C60.0227 104.184 61.0067 104.376 61.8827 104.76C62.7707 105.144 63.5147 105.696 64.1147 106.416L62.2427 108.144C61.3907 107.16 60.3347 106.668 59.0747 106.668C58.2947 106.668 57.5987 106.842 56.9867 107.19C56.3747 107.526 55.8947 108 55.5467 108.612C55.2107 109.224 55.0427 109.92 55.0427 110.7C55.0427 111.48 55.2107 112.176 55.5467 112.788C55.8947 113.4 56.3747 113.88 56.9867 114.228C57.5987 114.564 58.2947 114.732 59.0747 114.732C60.3347 114.732 61.3907 114.234 62.2427 113.238L64.1147 114.966C63.5147 115.698 62.7707 116.256 61.8827 116.64C60.9947 117.024 60.0047 117.216 58.9127 117.216ZM70.1599 117.144C69.1399 117.144 68.2219 116.934 67.4059 116.514C66.6019 116.082 65.9719 115.488 65.5159 114.732C65.0599 113.976 64.8319 113.118 64.8319 112.158C64.8319 111.198 65.0599 110.34 65.5159 109.584C65.9719 108.828 66.6019 108.24 67.4059 107.82C68.2219 107.388 69.1399 107.172 70.1599 107.172C71.1799 107.172 72.0919 107.388 72.8959 107.82C73.6999 108.24 74.3299 108.828 74.7859 109.584C75.2419 110.34 75.4699 111.198 75.4699 112.158C75.4699 113.118 75.2419 113.976 74.7859 114.732C74.3299 115.488 73.6999 116.082 72.8959 116.514C72.0919 116.934 71.1799 117.144 70.1599 117.144ZM70.1599 114.84C70.8799 114.84 71.4679 114.6 71.9239 114.12C72.3919 113.628 72.6259 112.974 72.6259 112.158C72.6259 111.342 72.3919 110.694 71.9239 110.214C71.4679 109.722 70.8799 109.476 70.1599 109.476C69.4399 109.476 68.8459 109.722 68.3779 110.214C67.9099 110.694 67.6759 111.342 67.6759 112.158C67.6759 112.974 67.9099 113.628 68.3779 114.12C68.8459 114.6 69.4399 114.84 70.1599 114.84ZM87.1028 107.316V117H84.4388V115.848C84.0668 116.268 83.6228 116.592 83.1068 116.82C82.5908 117.036 82.0328 117.144 81.4328 117.144C80.1608 117.144 79.1528 116.778 78.4088 116.046C77.6648 115.314 77.2928 114.228 77.2928 112.788V107.316H80.1008V112.374C80.1008 113.934 80.7548 114.714 82.0628 114.714C82.7348 114.714 83.2748 114.498 83.6828 114.066C84.0908 113.622 84.2948 112.968 84.2948 112.104V107.316H87.1028ZM92.3862 108.594C92.7222 108.126 93.1722 107.772 93.7362 107.532C94.3122 107.292 94.9722 107.172 95.7162 107.172V109.764C95.4042 109.74 95.1942 109.728 95.0862 109.728C94.2822 109.728 93.6522 109.956 93.1962 110.412C92.7402 110.856 92.5122 111.528 92.5122 112.428V117H89.7042V107.316H92.3862V108.594ZM97.3858 107.316H100.194V117H97.3858V107.316ZM98.7898 105.966C98.2738 105.966 97.8538 105.816 97.5298 105.516C97.2058 105.216 97.0438 104.844 97.0438 104.4C97.0438 103.956 97.2058 103.584 97.5298 103.284C97.8538 102.984 98.2738 102.834 98.7898 102.834C99.3058 102.834 99.7258 102.978 100.05 103.266C100.374 103.554 100.536 103.914 100.536 104.346C100.536 104.814 100.374 105.204 100.05 105.516C99.7258 105.816 99.3058 105.966 98.7898 105.966ZM112.286 112.194C112.286 112.23 112.268 112.482 112.232 112.95H104.906C105.038 113.55 105.35 114.024 105.842 114.372C106.334 114.72 106.946 114.894 107.678 114.894C108.182 114.894 108.626 114.822 109.01 114.678C109.406 114.522 109.772 114.282 110.108 113.958L111.602 115.578C110.69 116.622 109.358 117.144 107.606 117.144C106.514 117.144 105.548 116.934 104.708 116.514C103.868 116.082 103.22 115.488 102.764 114.732C102.308 113.976 102.08 113.118 102.08 112.158C102.08 111.21 102.302 110.358 102.746 109.602C103.202 108.834 103.82 108.24 104.6 107.82C105.392 107.388 106.274 107.172 107.246 107.172C108.194 107.172 109.052 107.376 109.82 107.784C110.588 108.192 111.188 108.78 111.62 109.548C112.064 110.304 112.286 111.186 112.286 112.194ZM107.264 109.296C106.628 109.296 106.094 109.476 105.662 109.836C105.23 110.196 104.966 110.688 104.87 111.312H109.64C109.544 110.7 109.28 110.214 108.848 109.854C108.416 109.482 107.888 109.296 107.264 109.296ZM116.837 108.594C117.173 108.126 117.623 107.772 118.187 107.532C118.763 107.292 119.423 107.172 120.167 107.172V109.764C119.855 109.74 119.645 109.728 119.537 109.728C118.733 109.728 118.103 109.956 117.647 110.412C117.191 110.856 116.963 111.528 116.963 112.428V117H114.155V107.316H116.837V108.594Z" fill="white"/>
	<path d="M65.1891 76.7942C65.7518 76.7942 66.208 76.338 66.208 75.7753C66.208 75.2125 65.7518 74.7563 65.1891 74.7563C64.6263 74.7563 64.1702 75.2125 64.1702 75.7753C64.1702 76.338 64.6263 76.7942 65.1891 76.7942Z" fill="white"/>
	<path d="M105.945 76.7942C106.508 76.7942 106.964 76.338 106.964 75.7753C106.964 75.2125 106.508 74.7563 105.945 74.7563C105.383 74.7563 104.926 75.2125 104.926 75.7753C104.926 76.338 105.383 76.7942 105.945 76.7942Z" fill="white"/>
	<path fill-rule="evenodd" clip-rule="evenodd" d="M104.926 39.0945C105.888 39.0971 106.793 39.5495 107.372 40.3172L115.523 51.1859C115.919 51.7155 116.133 52.3587 116.134 53.0199V70.6806C116.134 72.3688 114.766 73.7373 113.078 73.7373H111.702C112.459 75.8426 111.992 78.1935 110.49 79.8507H115.115C115.678 79.8507 116.134 80.3069 116.134 80.8697C116.134 81.4324 115.678 81.8886 115.115 81.8886H60.0945C59.5318 81.8886 59.0756 81.4324 59.0756 80.8697C59.0756 80.3069 59.5318 79.8507 60.0945 79.8507H60.6447C59.142 78.1935 58.6757 75.8426 59.4322 73.7373H58.0567C56.3685 73.7373 55 72.3688 55 70.6806V67.6239C55.0065 67.5763 55.0168 67.5293 55.0306 67.4833C55.0285 67.4476 55.0285 67.4119 55.0306 67.3763L56.7515 60.4915H56.0189C55.4562 60.4915 55 60.0354 55 59.4726C55 58.9099 55.4562 58.4537 56.0189 58.4537H57.261L61.846 40.1134H60.0945C59.5318 40.1134 59.0756 39.6573 59.0756 39.0945C59.0756 38.5318 59.5318 38.0756 60.0945 38.0756H62.3555L62.7956 36.315C63.136 34.9542 64.359 33.9997 65.7617 34H93.7184C95.4066 34 96.7751 35.3685 96.7751 37.0567V39.0945H104.926ZM112.059 62.5294H114.097V60.4915H112.059V62.5294ZM104.926 41.1323C105.247 41.1323 105.549 41.2833 105.741 41.5399L113.893 52.4086C114.025 52.5851 114.096 52.7995 114.097 53.0199V58.4537H112.059C110.933 58.4537 110.021 59.3661 110.021 60.4915V62.5294C110.021 63.6548 110.933 64.5672 112.059 64.5672H114.097V66.605H96.7751V41.1323H104.926ZM68.2458 59.4726C68.2458 60.0354 67.7896 60.4915 67.2269 60.4915H58.8525L57.3241 66.605H94.7373V37.0567C94.7373 36.494 94.2811 36.0378 93.7184 36.0378H65.7617C65.2937 36.0375 64.8856 36.356 64.7723 36.8101L64.4565 38.0756H71.3025C71.8652 38.0756 72.3214 38.5318 72.3214 39.0945C72.3214 39.6573 71.8652 40.1134 71.3025 40.1134H63.947L59.3619 58.4537H67.2269C67.7896 58.4537 68.2458 58.9099 68.2458 59.4726ZM61.1134 75.7751C61.1134 73.5242 62.9382 71.6995 65.1891 71.6995C67.44 71.6995 69.2647 73.5242 69.2647 75.7751C69.2647 78.026 67.44 79.8507 65.1891 79.8507C64.1081 79.8507 63.0715 79.4213 62.3072 78.657C61.5428 77.8927 61.1134 76.856 61.1134 75.7751ZM70.9459 73.7373C71.7024 75.8426 71.2362 78.1935 69.7334 79.8507H101.401C99.8982 78.1935 99.4319 75.8426 100.188 73.7373H70.9459ZM101.87 75.7751C101.87 73.5242 103.694 71.6995 105.945 71.6995C108.196 71.6995 110.021 73.5242 110.021 75.7751C110.021 78.026 108.196 79.8507 105.945 79.8507C103.694 79.8507 101.87 78.026 101.87 75.7751ZM113.078 71.6995C113.64 71.6995 114.097 71.2433 114.097 70.6806V68.6428H57.0378V70.6806C57.0378 71.2433 57.494 71.6995 58.0567 71.6995H60.6447C61.7995 70.4032 63.453 69.6617 65.1891 69.6617C66.9251 69.6617 68.5786 70.4032 69.7334 71.6995H101.401C102.556 70.4032 104.209 69.6617 105.945 69.6617C107.681 69.6617 109.335 70.4032 110.49 71.6995H113.078Z" fill="white"/>
	<path fill-rule="evenodd" clip-rule="evenodd" d="M110.021 56.4157H100.851C99.7253 56.4157 98.8129 55.5033 98.8129 54.3779V45.2077C98.8129 44.0823 99.7253 43.1699 100.851 43.1699H103.398C104.039 43.1714 104.642 43.473 105.028 43.985L111.651 52.8159C111.915 53.1689 112.058 53.5978 112.059 54.0386V54.3779C112.059 55.5033 111.146 56.4157 110.021 56.4157ZM103.398 45.2077H100.851V54.3779H110.021V54.0386L103.398 45.2077Z" fill="white"/>
	<path d="M101.87 58.4536H99.8318C99.2691 58.4536 98.8129 58.9098 98.8129 59.4725C98.8129 60.0352 99.2691 60.4914 99.8318 60.4914H101.87C102.432 60.4914 102.889 60.0352 102.889 59.4725C102.889 58.9098 102.432 58.4536 101.87 58.4536Z" fill="white"/>
	<path d="M56.0189 40.1135C56.5816 40.1135 57.0378 39.6573 57.0378 39.0946C57.0378 38.5319 56.5816 38.0757 56.0189 38.0757C55.4562 38.0757 55 38.5319 55 39.0946C55 39.6573 55.4562 40.1135 56.0189 40.1135Z" fill="white"/>
	<path d="M75.3781 40.1135H80.4726C81.0354 40.1135 81.4915 39.6573 81.4915 39.0946C81.4915 38.5319 81.0354 38.0757 80.4726 38.0757H75.3781C74.8154 38.0757 74.3592 38.5319 74.3592 39.0946C74.3592 39.6573 74.8154 40.1135 75.3781 40.1135Z" fill="white"/>
	<path d="M86.5861 60.4914C87.1488 60.4914 87.605 60.0352 87.605 59.4725C87.605 58.9098 87.1488 58.4536 86.5861 58.4536C86.0233 58.4536 85.5672 58.9098 85.5672 59.4725C85.5672 60.0352 86.0233 60.4914 86.5861 60.4914Z" fill="white"/>
	<path d="M71.3025 60.4914H82.5105C83.0732 60.4914 83.5294 60.0352 83.5294 59.4725C83.5294 58.9098 83.0732 58.4536 82.5105 58.4536H71.3025C70.7398 58.4536 70.2836 58.9098 70.2836 59.4725C70.2836 60.0352 70.7398 60.4914 71.3025 60.4914Z" fill="white"/>
	<path d="M57.0378 79.8506H56.0189C55.4562 79.8506 55 80.3068 55 80.8695C55 81.4322 55.4562 81.8884 56.0189 81.8884H57.0378C57.6005 81.8884 58.0567 81.4322 58.0567 80.8695C58.0567 80.3068 57.6005 79.8506 57.0378 79.8506Z" fill="white"/>
	<path d="M82.7142 56.0085C83.0519 56.4587 83.6905 56.55 84.1407 56.2123C84.5909 55.8747 84.6821 55.236 84.3445 54.7859L75.1743 42.559C74.8367 42.1088 74.198 42.0176 73.7479 42.3552C73.2977 42.6928 73.2064 43.3315 73.5441 43.7817L82.7142 56.0085Z" fill="white"/>
	<path fill-rule="evenodd" clip-rule="evenodd" d="M77.4159 53.359C77.4159 55.0471 76.0474 56.4157 74.3592 56.4157C72.671 56.4157 71.3025 55.0471 71.3025 53.359C71.3025 51.6708 72.671 50.3022 74.3592 50.3022C76.0474 50.3022 77.4159 51.6708 77.4159 53.359ZM75.3781 53.359C75.3781 52.7962 74.9219 52.3401 74.3592 52.3401C73.7965 52.3401 73.3403 52.7962 73.3403 53.359C73.3403 53.9217 73.7965 54.3779 74.3592 54.3779C74.9219 54.3779 75.3781 53.9217 75.3781 53.359Z" fill="white"/>
	<path fill-rule="evenodd" clip-rule="evenodd" d="M83.5294 48.2648C81.8412 48.2648 80.4726 46.8963 80.4726 45.2081C80.4726 43.5199 81.8412 42.1514 83.5294 42.1514C85.2175 42.1514 86.5861 43.5199 86.5861 45.2081C86.5861 46.8963 85.2175 48.2648 83.5294 48.2648ZM84.5483 45.2081C84.5483 44.6454 84.0921 44.1892 83.5294 44.1892C82.9666 44.1892 82.5105 44.6454 82.5105 45.2081C82.5105 45.7708 82.9666 46.227 83.5294 46.227C84.0921 46.227 84.5483 45.7708 84.5483 45.2081Z" fill="white"/>
	<path d="M78.4348 63.5482C78.4348 64.1109 78.891 64.5671 79.4537 64.5671H92.6995C93.2622 64.5671 93.7184 64.1109 93.7184 63.5482C93.7184 62.9855 93.2622 62.5293 92.6995 62.5293H79.4537C78.891 62.5293 78.4348 62.9855 78.4348 63.5482Z" fill="white"/>
	<path d="M75.3781 62.5293H73.3403C72.7776 62.5293 72.3214 62.9855 72.3214 63.5482C72.3214 64.1109 72.7776 64.5671 73.3403 64.5671H75.3781C75.9408 64.5671 76.397 64.1109 76.397 63.5482C76.397 62.9855 75.9408 62.5293 75.3781 62.5293Z" fill="white"/>
</svg>
