<svg width="172" height="154" viewBox="0 0 172 154" fill="none" xmlns="http://www.w3.org/2000/svg">
	<rect width="172" height="154" rx="8" fill="#55439D"/>
	<path d="M51.5867 104.4C52.7027 104.4 53.6687 104.586 54.4847 104.958C55.3127 105.33 55.9487 105.858 56.3927 106.542C56.8367 107.226 57.0587 108.036 57.0587 108.972C57.0587 109.896 56.8367 110.706 56.3927 111.402C55.9487 112.086 55.3127 112.614 54.4847 112.986C53.6687 113.346 52.7027 113.526 51.5867 113.526H49.0487V117H46.1327V104.4H51.5867ZM51.4247 111.15C52.3007 111.15 52.9667 110.964 53.4227 110.592C53.8787 110.208 54.1067 109.668 54.1067 108.972C54.1067 108.264 53.8787 107.724 53.4227 107.352C52.9667 106.968 52.3007 106.776 51.4247 106.776H49.0487V111.15H51.4247ZM59.1183 103.644H61.9263V117H59.1183V103.644ZM68.4383 107.172C69.9383 107.172 71.0903 107.532 71.8943 108.252C72.6983 108.96 73.1003 110.034 73.1003 111.474V117H70.4723V115.794C69.9443 116.694 68.9603 117.144 67.5203 117.144C66.7763 117.144 66.1283 117.018 65.5763 116.766C65.0363 116.514 64.6223 116.166 64.3343 115.722C64.0463 115.278 63.9023 114.774 63.9023 114.21C63.9023 113.31 64.2383 112.602 64.9103 112.086C65.5943 111.57 66.6443 111.312 68.0603 111.312H70.2923C70.2923 110.7 70.1063 110.232 69.7343 109.908C69.3623 109.572 68.8043 109.404 68.0603 109.404C67.5443 109.404 67.0343 109.488 66.5303 109.656C66.0383 109.812 65.6183 110.028 65.2703 110.304L64.2623 108.342C64.7903 107.97 65.4203 107.682 66.1523 107.478C66.8963 107.274 67.6583 107.172 68.4383 107.172ZM68.2223 115.254C68.7023 115.254 69.1283 115.146 69.5003 114.93C69.8723 114.702 70.1363 114.372 70.2923 113.94V112.95H68.3663C67.2143 112.95 66.6383 113.328 66.6383 114.084C66.6383 114.444 66.7763 114.732 67.0523 114.948C67.3403 115.152 67.7303 115.254 68.2223 115.254ZM81.8877 116.532C81.6117 116.736 81.2697 116.892 80.8617 117C80.4657 117.096 80.0457 117.144 79.6017 117.144C78.4497 117.144 77.5557 116.85 76.9197 116.262C76.2957 115.674 75.9837 114.81 75.9837 113.67V109.692H74.4897V107.532H75.9837V105.174H78.7917V107.532H81.2037V109.692H78.7917V113.634C78.7917 114.042 78.8937 114.36 79.0977 114.588C79.3137 114.804 79.6137 114.912 79.9977 114.912C80.4417 114.912 80.8197 114.792 81.1317 114.552L81.8877 116.532ZM86.542 107.532H89.026V109.692H86.614V117H83.806V109.692H82.312V107.532H83.806V107.1C83.806 105.996 84.13 105.12 84.778 104.472C85.438 103.824 86.362 103.5 87.55 103.5C87.97 103.5 88.366 103.548 88.738 103.644C89.122 103.728 89.44 103.854 89.692 104.022L88.954 106.056C88.63 105.828 88.252 105.714 87.82 105.714C86.968 105.714 86.542 106.182 86.542 107.118V107.532ZM94.9099 117.144C93.8899 117.144 92.9719 116.934 92.1559 116.514C91.3519 116.082 90.7219 115.488 90.2659 114.732C89.8099 113.976 89.5819 113.118 89.5819 112.158C89.5819 111.198 89.8099 110.34 90.2659 109.584C90.7219 108.828 91.3519 108.24 92.1559 107.82C92.9719 107.388 93.8899 107.172 94.9099 107.172C95.9299 107.172 96.8419 107.388 97.6459 107.82C98.4499 108.24 99.0799 108.828 99.5359 109.584C99.9919 110.34 100.22 111.198 100.22 112.158C100.22 113.118 99.9919 113.976 99.5359 114.732C99.0799 115.488 98.4499 116.082 97.6459 116.514C96.8419 116.934 95.9299 117.144 94.9099 117.144ZM94.9099 114.84C95.6299 114.84 96.2179 114.6 96.6739 114.12C97.1419 113.628 97.3759 112.974 97.3759 112.158C97.3759 111.342 97.1419 110.694 96.6739 110.214C96.2179 109.722 95.6299 109.476 94.9099 109.476C94.1899 109.476 93.5959 109.722 93.1279 110.214C92.6599 110.694 92.4259 111.342 92.4259 112.158C92.4259 112.974 92.6599 113.628 93.1279 114.12C93.5959 114.6 94.1899 114.84 94.9099 114.84ZM104.779 108.594C105.115 108.126 105.565 107.772 106.129 107.532C106.705 107.292 107.365 107.172 108.109 107.172V109.764C107.797 109.74 107.587 109.728 107.479 109.728C106.675 109.728 106.045 109.956 105.589 110.412C105.133 110.856 104.905 111.528 104.905 112.428V117H102.097V107.316H104.779V108.594ZM122.18 107.172C123.392 107.172 124.352 107.532 125.06 108.252C125.78 108.96 126.14 110.028 126.14 111.456V117H123.332V111.888C123.332 111.12 123.17 110.55 122.846 110.178C122.534 109.794 122.084 109.602 121.496 109.602C120.836 109.602 120.314 109.818 119.93 110.25C119.546 110.67 119.354 111.3 119.354 112.14V117H116.546V111.888C116.546 110.364 115.934 109.602 114.71 109.602C114.062 109.602 113.546 109.818 113.162 110.25C112.778 110.67 112.586 111.3 112.586 112.14V117H109.778V107.316H112.46V108.432C112.82 108.024 113.258 107.712 113.774 107.496C114.302 107.28 114.878 107.172 115.502 107.172C116.186 107.172 116.804 107.31 117.356 107.586C117.908 107.85 118.352 108.24 118.688 108.756C119.084 108.252 119.582 107.862 120.182 107.586C120.794 107.31 121.46 107.172 122.18 107.172Z" fill="white"/>
	<path d="M79.9922 39.3092C79.9264 39.3092 79.8593 39.3032 79.7943 39.2901C79.7292 39.2767 79.6653 39.2576 79.6035 39.2322C79.5424 39.2068 79.4836 39.1751 79.4285 39.1386C79.373 39.1013 79.321 39.0596 79.2742 39.0128C79.2274 38.9648 79.1849 38.9133 79.1484 38.8585C79.1119 38.8026 79.0802 38.7435 79.0548 38.6828C79.0294 38.6217 79.0092 38.5578 78.9969 38.4927C78.9838 38.4269 78.9766 38.3606 78.9766 38.2948C78.9766 38.2277 78.9838 38.1619 78.9969 38.0956C79.0092 38.0305 79.0294 37.9667 79.0548 37.9056C79.0802 37.8449 79.1119 37.7858 79.1484 37.7302C79.1849 37.6751 79.2274 37.6223 79.2742 37.5755C79.321 37.5291 79.373 37.4862 79.4285 37.4497C79.4836 37.4132 79.5424 37.3815 79.6035 37.3561C79.6653 37.3307 79.7292 37.3117 79.7943 37.2986C80.1244 37.2323 80.4747 37.3398 80.7103 37.5755C80.7571 37.6223 80.7996 37.6751 80.8361 37.7302C80.873 37.7858 80.9043 37.8449 80.9297 37.9056C80.9551 37.9667 80.9745 38.0305 80.9876 38.0956C81.0007 38.1619 81.0079 38.2277 81.0079 38.2948C81.0079 38.3606 81.0007 38.4269 80.9876 38.4927C80.9745 38.5578 80.9551 38.6217 80.9297 38.6828C80.9043 38.7435 80.873 38.8026 80.8361 38.8585C80.7996 38.9133 80.7571 38.9648 80.7103 39.0128C80.5215 39.2017 80.2592 39.3092 79.9922 39.3092Z" fill="white"/>
	<path fill-rule="evenodd" clip-rule="evenodd" d="M95.5817 32H75.6052C73.0662 32 71 34.0658 71 36.6052V79.3948C71 81.9342 73.0662 84 75.6052 84H95.5817C98.1208 84 100.187 81.9342 100.187 79.3948V36.6052C100.187 34.0658 98.1208 32 95.5817 32ZM75.6052 34.0312H95.5817C97.0008 34.0312 98.1557 35.1861 98.1557 36.6052V37.2789H84.849C84.288 37.2789 83.8334 37.7335 83.8334 38.2945C83.8334 38.8551 84.288 39.3101 84.849 39.3101H98.1557V75.6731H73.0312V39.3101H75.7084C76.2693 39.3101 76.724 38.8551 76.724 38.2945C76.724 37.7335 76.2693 37.2789 75.7084 37.2789H73.0312V36.6052C73.0312 35.1861 74.1861 34.0312 75.6052 34.0312ZM95.5817 81.9688C97.0008 81.9688 98.1557 80.8139 98.1557 79.3948V77.7043H73.0312V79.3948C73.0312 80.8139 74.1861 81.9688 75.6052 81.9688H95.5817Z" fill="white"/>
	<path fill-rule="evenodd" clip-rule="evenodd" d="M76.3066 54.9145H83.4739C84.0349 54.9145 84.4896 54.4598 84.4896 53.8988V46.7319C84.4896 46.171 84.0349 45.7163 83.4739 45.7163H76.3066C75.7457 45.7163 75.291 46.171 75.291 46.7319V53.8988C75.291 54.4598 75.7457 54.9145 76.3066 54.9145ZM82.4583 52.8832H77.3223V47.7476H82.4583V52.8832Z" fill="white"/>
	<path fill-rule="evenodd" clip-rule="evenodd" d="M87.713 54.9145H94.8803C95.4413 54.9145 95.8959 54.4598 95.8959 53.8988V46.7319C95.8959 46.171 95.4413 45.7163 94.8803 45.7163H87.713C87.152 45.7163 86.6974 46.171 86.6974 46.7319V53.8988C86.6974 54.4598 87.152 54.9145 87.713 54.9145ZM93.8647 52.8832H88.7286V47.7476H93.8647V52.8832Z" fill="white"/>
	<path fill-rule="evenodd" clip-rule="evenodd" d="M76.3066 66.2191H83.4739C84.0349 66.2191 84.4896 65.7644 84.4896 65.2034V58.0361C84.4896 57.4756 84.0349 57.0205 83.4739 57.0205H76.3066C75.7457 57.0205 75.291 57.4756 75.291 58.0361V65.2034C75.291 65.7644 75.7457 66.2191 76.3066 66.2191ZM82.4583 64.1878H77.3223V59.0518H82.4583V64.1878Z" fill="white"/>
	<path fill-rule="evenodd" clip-rule="evenodd" d="M87.713 66.2191H94.8803C95.4413 66.2191 95.8959 65.7644 95.8959 65.2034V58.0361C95.8959 57.4756 95.4413 57.0205 94.8803 57.0205H87.713C87.152 57.0205 86.6974 57.4756 86.6974 58.0361V65.2034C86.6974 65.7644 87.152 66.2191 87.713 66.2191ZM93.8647 64.1878H88.7286V59.0518H93.8647V64.1878Z" fill="white"/>
	<path d="M86.8461 80.8521H84.3408C83.7798 80.8521 83.3252 80.3974 83.3252 79.8364C83.3252 79.2755 83.7798 78.8208 84.3408 78.8208H86.8461C87.4071 78.8208 87.8618 79.2755 87.8618 79.8364C87.8618 80.3974 87.4071 80.8521 86.8461 80.8521Z" fill="white"/>
	<path d="M88.9452 70.6953H82.2421C81.6811 70.6953 81.2265 70.2407 81.2265 69.6797C81.2265 69.1187 81.6811 68.6641 82.2421 68.6641H88.9452C89.5058 68.6641 89.9608 69.1187 89.9608 69.6797C89.9608 70.2407 89.5058 70.6953 88.9452 70.6953Z" fill="white"/>
</svg>
