<svg width="94" height="18" viewBox="0 0 94 18" fill="none" xmlns="http://www.w3.org/2000/svg">
	<path d="M4.06299 0H0L0.000572736 17.3739H4.06299V0Z" fill="white" />
	<path d="M8.01911 14.8764C8.81188 15.6784 9.76812 16.3024 10.8236 16.7064C11.9925 17.1598 13.2382 17.3857 14.4929 17.3718C17.0611 17.4267 19.5333 16.4018 21.3016 14.5492L19.1664 11.5429C18.553 12.1535 17.8411 12.6578 17.0603 13.0347C16.321 13.4055 15.5056 13.6019 14.6776 13.6087C13.9479 13.6203 13.2248 13.4713 12.5598 13.1726C11.9716 12.9123 11.4549 12.515 11.0536 12.0143C10.6764 11.5319 10.3855 10.9885 10.1939 10.4078C9.99665 9.81176 9.89733 9.18795 9.89981 8.56043C9.89608 7.95672 9.98948 7.35631 10.1765 6.78193C10.3595 6.22674 10.6431 5.70955 11.0134 5.25594C11.4158 4.77552 11.9312 4.40116 12.5138 4.16603C13.2 3.88691 13.9363 3.75014 14.6776 3.76411C15.4469 3.77386 16.2064 3.93774 16.9106 4.24594C17.6403 4.54517 18.3165 4.95977 18.9131 5.47369L20.8287 2.37537C20.0099 1.58357 19.0275 0.978643 17.9497 0.602668C16.8418 0.203122 15.6721 -0.000711309 14.4935 0.000377601C13.2671 -0.0105415 12.0501 0.215446 10.9103 0.665792C9.8577 1.07585 8.90112 1.6968 8.10007 2.49004C7.31919 3.28003 6.70336 4.21594 6.2881 5.24378C5.84599 6.32588 5.62254 7.48397 5.63052 8.65193C5.61963 9.83473 5.83282 11.009 6.25898 12.1134C6.6544 13.1419 7.25286 14.0814 8.01911 14.8764Z" fill="white" />
	<path d="M33.2585 13.8412H26.4101L26.4094 10.4823H31.5172V6.94957H26.4101L26.4094 3.5327H32.678V0H22.2373L22.2303 17.3739H33.2585V13.8412Z" fill="white" />
	<path fill-rule="evenodd" clip-rule="evenodd" d="M37.0312 17.3739V10.4232L41.1522 10.4243L44.9739 17.3739H46.8985L43.227 10.7213C43.1891 10.6553 43.1551 10.591 43.1219 10.528C43.0389 10.3708 42.9603 10.222 42.8373 10.0764C43.79 9.77742 44.5493 9.18855 45.0994 8.38727C45.7 7.52866 45.9927 6.25369 45.9698 5.2138C45.9939 4.32431 45.8008 2.85118 45.3398 2.08397C44.9042 1.38293 44.2652 0.824361 43.504 0.47929C42.5149 0.118279 41.4608 -0.0416684 40.4063 0.00923367H35.2899V17.3739H37.0312ZM37.0312 1.73739H40.3396C41.0885 1.7007 41.8106 1.8226 42.5186 2.06383C43.0685 2.29732 43.5285 2.69514 43.8327 3.20018C44.1507 3.73192 44.2963 4.59632 44.2851 5.21217C44.3297 6.13168 43.9993 7.33365 43.372 8.02025C42.7372 8.66286 42.0651 8.72785 41.1522 8.68696H37.0312V1.73739Z" fill="white" />
	<path fill-rule="evenodd" clip-rule="evenodd" d="M48.6861 13.0218C49.3905 14.3436 50.4365 15.445 51.7114 16.2071C54.3777 17.7629 57.6563 17.7629 60.3225 16.2071C61.5967 15.4459 62.641 14.3442 63.342 13.0218C64.0716 11.6501 64.4449 10.112 64.4267 8.55282C64.4444 7.03636 64.0704 5.5417 63.342 4.21808C62.6317 2.92837 61.5875 1.86098 60.3225 1.13176C57.6442 -0.377254 54.3897 -0.377254 51.7114 1.13176C50.4457 1.86193 49.3997 2.92896 48.6861 4.21808C47.954 5.54046 47.5779 7.03561 47.5956 8.55282C47.5774 10.1127 47.9528 11.6513 48.6861 13.0218ZM50.1562 4.98833C50.7186 3.93866 51.5546 3.06665 52.5724 2.46793C54.7116 1.24665 57.3223 1.24665 59.4615 2.46793C60.4784 3.06615 61.3128 3.93841 61.8725 4.98833C62.457 6.08156 62.7563 7.30872 62.7417 8.55282C62.7571 9.8379 62.4584 11.1068 61.8725 12.2457C60.7277 14.456 58.4722 15.8399 56.0143 15.8399C53.5565 15.8399 51.301 14.456 50.1562 12.2457C49.5673 11.1078 49.2674 9.83841 49.2835 8.55282C49.2682 7.30819 49.5688 6.08056 50.1562 4.98833Z" fill="white" />
	<path d="M69.9336 16.1948C71.2416 16.992 72.7389 17.3997 74.2587 17.3726C76.6 17.4145 78.8564 16.4704 80.5052 14.759L79.576 13.5924C78.1612 15.002 76.273 15.7961 74.3039 15.8096C73.0707 15.8309 71.8573 15.4888 70.8068 14.8238C69.8026 14.1893 68.9914 13.2777 68.4654 12.1925C67.9211 11.0616 67.6452 9.81389 67.6604 8.55189C67.6425 7.31578 67.9189 6.09395 68.4654 4.99311C68.9921 3.94641 69.7959 3.07457 70.7839 2.47846C71.8303 1.8497 73.0244 1.52885 74.2358 1.55093C75.1529 1.55501 76.0624 1.72073 76.9251 2.0409C77.7678 2.33437 78.5487 2.78981 79.2264 3.38303L80.0869 2.17164C79.3253 1.42754 78.411 0.86922 77.4114 0.538004C76.3735 0.180959 75.2861 -0.000425619 74.1918 0.000918241C72.7103 -0.0214414 71.2501 0.364916 69.9628 1.11985C68.728 1.84618 67.7149 2.91315 67.0378 4.20043C66.3339 5.54377 65.9751 7.04992 65.9953 8.57603C65.975 10.1215 66.3254 11.6483 67.0155 13.0211C67.6829 14.3375 68.6933 15.4365 69.9336 16.1948Z" fill="white" />
	<path d="M84.5101 9.09235H87.2961L92.0208 17.3739H93.913L88.6385 8.25279L93.5918 0H91.7343L87.2961 7.5287H84.5101V0H82.8849V17.3739H84.5101V9.09235Z" fill="white" />
</svg>
