<?xml version="1.0" standalone="no"?>
<!DOCTYPE svg PUBLIC "-//W3C//DTD SVG 20010904//EN"
 "http://www.w3.org/TR/2001/REC-SVG-20010904/DTD/svg10.dtd">
<svg version="1.0" xmlns="http://www.w3.org/2000/svg"
 width="512.000000pt" height="512.000000pt" viewBox="0 0 512.000000 512.000000"
 preserveAspectRatio="xMidYMid meet">
<metadata>
Created by potrace 1.11, written by Peter Selinger 2001-2013
</metadata>
<g transform="translate(0.000000,512.000000) scale(0.100000,-0.100000)"
fill="#000000" stroke="none">
<path d="M0 2560 l0 -2560 2560 0 2560 0 0 2560 0 2560 -2560 0 -2560 0 0
-2560z m1921 1794 c132 -39 231 -120 287 -234 50 -101 54 -145 50 -543 -3
-347 -4 -364 -26 -417 -51 -125 -147 -223 -270 -272 -55 -22 -69 -23 -425 -26
-241 -2 -386 0 -420 8 -176 36 -319 177 -356 348 -17 81 -15 742 3 808 43 161
166 286 325 329 33 10 149 13 412 14 309 1 374 -1 420 -15z m2105 2 c163 -43
287 -167 330 -329 22 -82 20 -754 -2 -828 -39 -132 -120 -231 -234 -287 -101
-50 -145 -54 -543 -50 -350 3 -364 4 -419 26 -123 49 -219 147 -270 272 -22
53 -23 70 -26 423 -2 241 0 386 8 420 35 172 168 312 335 353 75 18 752 19
821 0z m-2064 -2124 c123 -49 219 -147 270 -272 22 -53 23 -70 26 -423 2 -241
0 -386 -8 -420 -36 -176 -177 -319 -348 -356 -81 -17 -742 -15 -808 3 -163 43
-287 167 -330 329 -22 82 -20 754 2 828 50 168 183 296 344 328 25 5 214 9
420 8 365 -2 376 -3 432 -25z m1736 1 c14 -11 35 -32 46 -47 20 -26 21 -43 24
-277 l3 -249 222 0 c129 0 239 -5 262 -11 111 -30 149 -158 74 -244 -17 -19
-47 -39 -67 -45 -20 -5 -139 -10 -264 -10 l-227 0 -3 -249 c-3 -235 -4 -251
-24 -278 -64 -86 -173 -96 -241 -22 -36 40 -43 93 -43 326 l0 222 -249 3
c-234 3 -251 4 -277 24 -51 38 -69 71 -69 129 0 61 21 98 76 130 31 18 55 20
277 23 l242 3 0 227 c1 236 7 280 47 324 44 50 138 60 191 21z"/>
</g>
</svg>
