<svg width="56" height="56" fill="none" xmlns="http://www.w3.org/2000/svg"><rect width="56" height="56" rx="8" fill="#55439D"/><path fill-rule="evenodd" clip-rule="evenodd" d="M36 22h-2.18c.11-.31.18-.65.18-1a2.996 2.996 0 00-5.5-1.65l-.5.67-.5-.68c-.54-.8-1.45-1.34-2.5-1.34-1.66 0-3 1.34-3 3 0 .35.07.69.18 1H20c-1.11 0-1.99.89-1.99 2L18 35c0 1.11.89 2 2 2h16c1.11 0 2-.89 2-2V24c0-1.11-.89-2-2-2zm-5-2c.55 0 1 .45 1 1s-.45 1-1 1-1-.45-1-1 .45-1 1-1zm-5 1c0-.55-.45-1-1-1s-1 .45-1 1 .45 1 1 1 1-.45 1-1zm-6 14v-2h16v2H20zm0-11v6h16v-6h-5.08L33 26.83 31.38 28 28 23.4 24.62 28 23 26.83 25.08 24H20z" fill="#fff"/></svg>