<svg width="88" height="88" viewBox="0 0 88 88" fill="none" xmlns="http://www.w3.org/2000/svg">
<path fill-rule="evenodd" clip-rule="evenodd" d="M45.5173 28.8277V36.4184C48.8855 36.5473 51.5862 39.3284 51.586 42.7285V81.6867C51.586 85.1673 48.7534 88 45.2714 88H6.31469C2.83267 88 0 85.1673 0 81.6853V42.7285C0 39.3284 2.70067 36.5489 6.06891 36.4184V28.8277C6.06891 27.9902 6.74867 27.3104 7.58622 27.3104H44C44.8375 27.3104 45.5173 27.9902 45.5173 28.8277ZM45.2731 84.9654C47.08 84.9654 48.5518 83.4952 48.5518 81.6867H48.5516V42.7285C48.5516 40.92 47.0798 39.4482 45.2714 39.4482C43.7345 39.4482 42.4827 38.1965 42.4827 36.6596V30.3449H9.10336V36.6596C9.10336 38.1965 7.85159 39.4482 6.31469 39.4482C4.50622 39.4482 3.03445 40.92 3.03445 42.7285V81.6867C3.03445 83.4936 4.50622 84.9654 6.31469 84.9654H45.2731Z" fill="#161616"/>
<path fill-rule="evenodd" clip-rule="evenodd" d="M3.0344 12.1379H48.5517C49.3893 12.1379 50.0689 12.8175 50.069 13.6551V28.8277C50.069 29.6652 49.3893 30.345 48.5517 30.345H3.0344C2.19686 30.345 1.51709 29.6652 1.51709 28.8277V13.6553C1.51709 12.8177 2.19686 12.1379 3.0344 12.1379ZM4.55171 27.3104H47.0344V15.1724H4.55171V27.3104Z" fill="#161616"/>
<path fill-rule="evenodd" clip-rule="evenodd" d="M1.51731 48.5518H19.7242C22.2336 48.5518 24.2758 50.594 24.276 53.1035V71.3104C24.276 73.82 22.2337 75.8622 19.7242 75.8622H1.51731C0.679766 75.8622 0 75.1824 0 74.3449V50.0691C0 49.2315 0.679766 48.5518 1.51731 48.5518ZM19.724 72.8277C20.56 72.8277 21.2413 72.1464 21.2413 71.3104V53.1035C21.2413 52.2675 20.56 51.5862 19.724 51.5862H3.03445V72.8277H19.724Z" fill="#161616"/>
<path fill-rule="evenodd" clip-rule="evenodd" d="M40.9653 48.5518H50.0689C50.9064 48.5518 51.5862 49.2315 51.5862 50.0689V74.3449C51.5862 75.1824 50.9064 75.8622 50.0689 75.8622H40.9653C38.4558 75.8622 36.4136 73.82 36.4136 71.3104V53.1035C36.4136 50.594 38.4558 48.5518 40.9653 48.5518ZM40.9655 72.8276H48.5517V51.5862H40.9655C40.1295 51.5862 39.4482 52.2675 39.4482 53.1035V71.3102C39.4482 72.1462 40.1295 72.8276 40.9655 72.8276Z" fill="#161616"/>
<path d="M13.6551 54.6207H1.51731C0.679766 54.6207 0 55.3005 0 56.138C0 56.9756 0.679766 57.6554 1.51731 57.6554H13.6553C14.4928 57.6554 15.1726 56.9756 15.1726 56.138C15.1726 55.3005 14.4927 54.6207 13.6551 54.6207Z" fill="#161616"/>
<path d="M10.6207 60.6896H1.51731C0.679766 60.6896 0 61.3693 0 62.2069C0 63.0444 0.679766 63.7242 1.51731 63.7242H10.6208C11.4584 63.7242 12.1382 63.0444 12.1382 62.2069C12.1382 61.3693 11.4582 60.6896 10.6207 60.6896Z" fill="#161616"/>
<path d="M7.58622 66.7587H1.51731C0.679766 66.7587 0 67.4384 0 68.276C0 69.1135 0.679766 69.7933 1.51731 69.7933H7.58622C8.42377 69.7933 9.10353 69.1135 9.10353 68.276C9.10353 67.4384 8.42377 66.7587 7.58622 66.7587Z" fill="#161616"/>
<path fill-rule="evenodd" clip-rule="evenodd" d="M39.9504 0H81.4288C85.0519 0 87.9999 2.948 87.9998 6.57113V81.429C87.9998 85.0522 85.0518 88.0002 81.4286 88.0002H45.2713C44.4338 88.0002 43.754 87.3204 43.754 86.4829C43.754 85.6453 44.4338 84.9655 45.2713 84.9655C47.0798 84.9655 48.5515 83.4953 48.5515 81.6869V42.7286C48.5515 40.946 47.1026 39.4742 45.3213 39.45C43.7298 39.4257 42.4826 38.2013 42.4826 36.6597V28.8277C42.4826 27.9902 43.1624 27.3104 43.9999 27.3104H47.0346V15.1724H34.8966C34.059 15.1724 33.3793 14.4927 33.3793 13.6551V6.57113C33.3793 2.948 36.3273 0 39.9504 0ZM81.4288 84.9655C83.3784 84.9655 84.9655 83.3785 84.9655 81.4289V6.57113C84.9655 4.62155 83.3784 3.03445 81.4288 3.03445H39.9504C38.0008 3.03445 36.4137 4.62155 36.4137 6.57113V12.1378H48.5517C49.3893 12.1378 50.069 12.8176 50.069 13.6551V28.8276C50.069 29.6651 49.3893 30.3449 48.5517 30.3449H45.5173V36.4184C48.8779 36.5473 51.5862 39.3467 51.5862 42.7271V81.6853C51.5862 82.8869 51.2493 84.0098 50.6666 84.9655H81.4288Z" fill="#161616"/>
<path d="M10.6207 12.1379C9.78316 12.1379 9.10339 12.8177 9.10339 13.6553V18.207C9.10339 19.0446 9.78316 19.7243 10.6207 19.7243C11.4583 19.7243 12.138 19.0446 12.138 18.207V13.6551C12.138 12.8175 11.4583 12.1379 10.6207 12.1379Z" fill="#161616"/>
<path d="M18.2069 12.1379C17.3693 12.1379 16.6896 12.8177 16.6896 13.6553V18.207C16.6896 19.0446 17.3693 19.7243 18.2069 19.7243C19.0444 19.7243 19.7242 19.0446 19.7242 18.207V13.6551C19.7242 12.8175 19.0444 12.1379 18.2069 12.1379Z" fill="#161616"/>
<path d="M25.7931 12.1379C24.9555 12.1379 24.2758 12.8177 24.2758 13.6553V18.207C24.2758 19.0446 24.9555 19.7243 25.7931 19.7243C26.6306 19.7243 27.3104 19.0446 27.3104 18.207V13.6551C27.3104 12.8175 26.6306 12.1379 25.7931 12.1379Z" fill="#161616"/>
<path d="M33.3794 12.1379C32.5418 12.1379 31.8621 12.8177 31.8621 13.6553V18.207C31.8621 19.0446 32.5418 19.7243 33.3794 19.7243C34.2169 19.7243 34.8967 19.0446 34.8967 18.207V13.6551C34.8965 12.8175 34.2169 12.1379 33.3794 12.1379Z" fill="#161616"/>
<path d="M40.9656 12.1379C40.128 12.1379 39.4482 12.8177 39.4482 13.6553V18.207C39.4482 19.0446 40.128 19.7243 40.9656 19.7243C41.8031 19.7243 42.4829 19.0446 42.4829 18.207V13.6551C42.4827 12.8175 41.8031 12.1379 40.9656 12.1379Z" fill="#161616"/>
<path d="M59.1725 6.06885C58.3349 6.06885 57.6552 6.74861 57.6552 7.58616V80.4137C57.6552 81.2513 58.3349 81.931 59.1725 81.931C60.01 81.931 60.6898 81.2513 60.6898 80.4137V7.58616C60.6896 6.74861 60.01 6.06885 59.1725 6.06885Z" fill="#161616"/>
<path fill-rule="evenodd" clip-rule="evenodd" d="M66.7587 18.2068C66.7587 14.8599 69.4805 12.1379 72.8276 12.1379C76.1747 12.1379 78.8965 14.8599 78.8965 18.2068C78.8965 21.5538 76.1747 24.2758 72.8276 24.2758C69.4807 24.2758 66.7587 21.5538 66.7587 18.2068ZM69.7931 18.2068C69.7931 19.8804 71.154 21.2413 72.8276 21.2413C74.5011 21.2413 75.862 19.8804 75.862 18.2068C75.862 16.5333 74.5011 15.1724 72.8276 15.1724C71.154 15.1724 69.7931 16.5333 69.7931 18.2068Z" fill="#161616"/>
<path fill-rule="evenodd" clip-rule="evenodd" d="M66.7587 34.8964C66.7587 31.5495 69.4805 28.8275 72.8276 28.8275C76.1747 28.8275 78.8965 31.5495 78.8965 34.8964C78.8965 38.2433 76.1747 40.9653 72.8276 40.9653C69.4807 40.9653 66.7587 38.2433 66.7587 34.8964ZM69.7931 34.8966C69.7931 36.5701 71.154 37.931 72.8276 37.931C74.5011 37.931 75.862 36.5701 75.862 34.8966C75.862 33.223 74.5011 31.8621 72.8276 31.8621C71.154 31.8621 69.7931 33.223 69.7931 34.8966Z" fill="#161616"/>
<path fill-rule="evenodd" clip-rule="evenodd" d="M66.7587 51.5862C66.7587 48.2393 69.4805 45.5173 72.8276 45.5173C76.1747 45.5173 78.8965 48.2393 78.8965 51.5862C78.8965 54.9332 76.1747 57.6551 72.8276 57.6551C69.4807 57.6551 66.7587 54.9333 66.7587 51.5862ZM69.7931 51.5862C69.7931 53.2598 71.154 54.6207 72.8276 54.6207C74.5011 54.6207 75.862 53.2598 75.862 51.5862C75.862 49.9127 74.5011 48.5518 72.8276 48.5518C71.154 48.5518 69.7931 49.9127 69.7931 51.5862Z" fill="#161616"/>
<path fill-rule="evenodd" clip-rule="evenodd" d="M66.7587 68.2758C66.7587 64.9289 69.4805 62.2069 72.8276 62.2069C76.1747 62.2069 78.8965 64.9289 78.8965 68.2758C78.8965 71.6227 76.1747 74.3447 72.8276 74.3447C69.4807 74.3447 66.7587 71.6229 66.7587 68.2758ZM69.7931 68.276C69.7931 69.9495 71.154 71.3104 72.8276 71.3104C74.5011 71.3104 75.862 69.9494 75.862 68.276C75.862 66.6024 74.5011 65.2415 72.8276 65.2415C71.154 65.2415 69.7931 66.6024 69.7931 68.276Z" fill="#161616"/>
</svg>
