<svg width="200" height="200" viewBox="0 0 200 200" fill="none" xmlns="http://www.w3.org/2000/svg">
	<path fill-rule="evenodd" clip-rule="evenodd" d="M100 200C155.228 200 200 155.228 200 100C200 44.7715 155.228 0 100 0C44.7715 0 0 44.7715 0 100C0 155.228 44.7715 200 100 200Z" fill="#F8F8FA" />
	<path fill-rule="evenodd" clip-rule="evenodd" d="M100 55.5557C75.4667 55.5557 55.5555 75.4668 55.5555 100C55.5555 124.533 75.4667 144.445 100 144.445C124.533 144.445 144.444 124.533 144.444 100C144.444 75.4668 124.533 55.5557 100 55.5557ZM78.0889 127.911C80 123.911 91.6444 120 100 120C108.356 120 120.044 123.911 121.911 127.911C115.867 132.711 108.267 135.556 100 135.556C91.7333 135.556 84.1333 132.711 78.0889 127.911ZM100 111.111C106.489 111.111 121.911 113.733 128.267 121.467C132.8 115.511 135.556 108.089 135.556 100C135.556 80.4 119.6 64.4444 100 64.4444C80.4 64.4444 64.4445 80.4 64.4445 100C64.4445 108.089 67.2 115.511 71.7333 121.467C78.0889 113.733 93.5111 111.111 100 111.111ZM100 73.3333C91.3778 73.3333 84.4445 80.2667 84.4445 88.8889C84.4445 97.5111 91.3778 104.444 100 104.444C108.622 104.444 115.556 97.5111 115.556 88.8889C115.556 80.2667 108.622 73.3333 100 73.3333ZM93.3334 88.8889C93.3334 92.5778 96.3112 95.5556 100 95.5556C103.689 95.5556 106.667 92.5778 106.667 88.8889C106.667 85.2 103.689 82.2222 100 82.2222C96.3112 82.2222 93.3334 85.2 93.3334 88.8889Z" fill="#D0D4DD" />
</svg>
