<svg width="172" height="301" viewBox="0 0 172 301" fill="none" xmlns="http://www.w3.org/2000/svg">
	<rect width="172" height="301" rx="8" fill="#55439D"/>
	<path d="M67.508 113.216C66.512 113.216 65.546 113.084 64.61 112.82C63.686 112.544 62.942 112.19 62.378 111.758L63.368 109.562C63.908 109.958 64.55 110.276 65.294 110.516C66.038 110.756 66.782 110.876 67.526 110.876C68.354 110.876 68.966 110.756 69.362 110.516C69.758 110.264 69.956 109.934 69.956 109.526C69.956 109.226 69.836 108.98 69.596 108.788C69.368 108.584 69.068 108.422 68.696 108.302C68.336 108.182 67.844 108.05 67.22 107.906C66.26 107.678 65.474 107.45 64.862 107.222C64.25 106.994 63.722 106.628 63.278 106.124C62.846 105.62 62.63 104.948 62.63 104.108C62.63 103.376 62.828 102.716 63.224 102.128C63.62 101.528 64.214 101.054 65.006 100.706C65.81 100.358 66.788 100.184 67.94 100.184C68.744 100.184 69.53 100.28 70.298 100.472C71.066 100.664 71.738 100.94 72.314 101.3L71.414 103.514C70.25 102.854 69.086 102.524 67.922 102.524C67.106 102.524 66.5 102.656 66.104 102.92C65.72 103.184 65.528 103.532 65.528 103.964C65.528 104.396 65.75 104.72 66.194 104.936C66.65 105.14 67.34 105.344 68.264 105.548C69.224 105.776 70.01 106.004 70.622 106.232C71.234 106.46 71.756 106.82 72.188 107.312C72.632 107.804 72.854 108.47 72.854 109.31C72.854 110.03 72.65 110.69 72.242 111.29C71.846 111.878 71.246 112.346 70.442 112.694C69.638 113.042 68.66 113.216 67.508 113.216ZM80.5345 103.172C81.7345 103.172 82.7005 103.532 83.4325 104.252C84.1765 104.972 84.5485 106.04 84.5485 107.456V113H81.7405V107.888C81.7405 107.12 81.5725 106.55 81.2365 106.178C80.9005 105.794 80.4145 105.602 79.7785 105.602C79.0705 105.602 78.5065 105.824 78.0865 106.268C77.6665 106.7 77.4565 107.348 77.4565 108.212V113H74.6485V99.644H77.4565V104.324C77.8285 103.952 78.2785 103.67 78.8065 103.478C79.3345 103.274 79.9105 103.172 80.5345 103.172ZM91.8073 113.144C90.7873 113.144 89.8693 112.934 89.0533 112.514C88.2493 112.082 87.6193 111.488 87.1633 110.732C86.7073 109.976 86.4793 109.118 86.4793 108.158C86.4793 107.198 86.7073 106.34 87.1633 105.584C87.6193 104.828 88.2493 104.24 89.0533 103.82C89.8693 103.388 90.7873 103.172 91.8073 103.172C92.8273 103.172 93.7393 103.388 94.5433 103.82C95.3473 104.24 95.9773 104.828 96.4333 105.584C96.8893 106.34 97.1173 107.198 97.1173 108.158C97.1173 109.118 96.8893 109.976 96.4333 110.732C95.9773 111.488 95.3473 112.082 94.5433 112.514C93.7393 112.934 92.8273 113.144 91.8073 113.144ZM91.8073 110.84C92.5273 110.84 93.1153 110.6 93.5713 110.12C94.0393 109.628 94.2733 108.974 94.2733 108.158C94.2733 107.342 94.0393 106.694 93.5713 106.214C93.1153 105.722 92.5273 105.476 91.8073 105.476C91.0873 105.476 90.4933 105.722 90.0253 106.214C89.5573 106.694 89.3233 107.342 89.3233 108.158C89.3233 108.974 89.5573 109.628 90.0253 110.12C90.4933 110.6 91.0873 110.84 91.8073 110.84ZM104.718 103.172C105.618 103.172 106.434 103.382 107.166 103.802C107.91 104.21 108.492 104.792 108.912 105.548C109.332 106.292 109.542 107.162 109.542 108.158C109.542 109.154 109.332 110.03 108.912 110.786C108.492 111.53 107.91 112.112 107.166 112.532C106.434 112.94 105.618 113.144 104.718 113.144C103.482 113.144 102.51 112.754 101.802 111.974V116.492H98.9942V103.316H101.676V104.432C102.372 103.592 103.386 103.172 104.718 103.172ZM104.232 110.84C104.952 110.84 105.54 110.6 105.996 110.12C106.464 109.628 106.698 108.974 106.698 108.158C106.698 107.342 106.464 106.694 105.996 106.214C105.54 105.722 104.952 105.476 104.232 105.476C103.512 105.476 102.918 105.722 102.45 106.214C101.994 106.694 101.766 107.342 101.766 108.158C101.766 108.974 101.994 109.628 102.45 110.12C102.918 110.6 103.512 110.84 104.232 110.84Z" fill="white"/>
	<path d="M54.8342 264.216C53.8382 264.216 52.8722 264.084 51.9362 263.82C51.0122 263.544 50.2682 263.19 49.7042 262.758L50.6942 260.562C51.2342 260.958 51.8762 261.276 52.6202 261.516C53.3642 261.756 54.1082 261.876 54.8522 261.876C55.6802 261.876 56.2922 261.756 56.6882 261.516C57.0842 261.264 57.2822 260.934 57.2822 260.526C57.2822 260.226 57.1622 259.98 56.9222 259.788C56.6942 259.584 56.3942 259.422 56.0222 259.302C55.6622 259.182 55.1702 259.05 54.5462 258.906C53.5862 258.678 52.8002 258.45 52.1882 258.222C51.5762 257.994 51.0482 257.628 50.6042 257.124C50.1722 256.62 49.9562 255.948 49.9562 255.108C49.9562 254.376 50.1542 253.716 50.5502 253.128C50.9462 252.528 51.5402 252.054 52.3322 251.706C53.1362 251.358 54.1142 251.184 55.2662 251.184C56.0702 251.184 56.8562 251.28 57.6242 251.472C58.3922 251.664 59.0642 251.94 59.6402 252.3L58.7402 254.514C57.5762 253.854 56.4122 253.524 55.2482 253.524C54.4322 253.524 53.8262 253.656 53.4302 253.92C53.0462 254.184 52.8542 254.532 52.8542 254.964C52.8542 255.396 53.0762 255.72 53.5202 255.936C53.9762 256.14 54.6662 256.344 55.5902 256.548C56.5502 256.776 57.3362 257.004 57.9482 257.232C58.5602 257.46 59.0822 257.82 59.5142 258.312C59.9582 258.804 60.1802 259.47 60.1802 260.31C60.1802 261.03 59.9762 261.69 59.5682 262.29C59.1722 262.878 58.5722 263.346 57.7682 263.694C56.9642 264.042 55.9862 264.216 54.8342 264.216ZM68.2207 263.532C67.9447 263.736 67.6027 263.892 67.1947 264C66.7987 264.096 66.3787 264.144 65.9347 264.144C64.7827 264.144 63.8887 263.85 63.2527 263.262C62.6287 262.674 62.3167 261.81 62.3167 260.67V256.692H60.8227V254.532H62.3167V252.174H65.1247V254.532H67.5367V256.692H65.1247V260.634C65.1247 261.042 65.2267 261.36 65.4307 261.588C65.6467 261.804 65.9467 261.912 66.3307 261.912C66.7747 261.912 67.1527 261.792 67.4647 261.552L68.2207 263.532ZM74.1061 264.144C73.0861 264.144 72.1681 263.934 71.3521 263.514C70.5481 263.082 69.9181 262.488 69.4621 261.732C69.0061 260.976 68.7781 260.118 68.7781 259.158C68.7781 258.198 69.0061 257.34 69.4621 256.584C69.9181 255.828 70.5481 255.24 71.3521 254.82C72.1681 254.388 73.0861 254.172 74.1061 254.172C75.1261 254.172 76.0381 254.388 76.8421 254.82C77.6461 255.24 78.2761 255.828 78.7321 256.584C79.1881 257.34 79.4161 258.198 79.4161 259.158C79.4161 260.118 79.1881 260.976 78.7321 261.732C78.2761 262.488 77.6461 263.082 76.8421 263.514C76.0381 263.934 75.1261 264.144 74.1061 264.144ZM74.1061 261.84C74.8261 261.84 75.4141 261.6 75.8701 261.12C76.3381 260.628 76.5721 259.974 76.5721 259.158C76.5721 258.342 76.3381 257.694 75.8701 257.214C75.4141 256.722 74.8261 256.476 74.1061 256.476C73.3861 256.476 72.7921 256.722 72.3241 257.214C71.8561 257.694 71.6221 258.342 71.6221 259.158C71.6221 259.974 71.8561 260.628 72.3241 261.12C72.7921 261.6 73.3861 261.84 74.1061 261.84ZM83.9751 255.594C84.3111 255.126 84.7611 254.772 85.3251 254.532C85.9011 254.292 86.5611 254.172 87.3051 254.172V256.764C86.9931 256.74 86.7831 256.728 86.6751 256.728C85.8711 256.728 85.2411 256.956 84.7851 257.412C84.3291 257.856 84.1011 258.528 84.1011 259.428V264H81.2931V254.316H83.9751V255.594ZM92.828 254.172C94.328 254.172 95.48 254.532 96.284 255.252C97.088 255.96 97.49 257.034 97.49 258.474V264H94.862V262.794C94.334 263.694 93.35 264.144 91.91 264.144C91.166 264.144 90.518 264.018 89.966 263.766C89.426 263.514 89.012 263.166 88.724 262.722C88.436 262.278 88.292 261.774 88.292 261.21C88.292 260.31 88.628 259.602 89.3 259.086C89.984 258.57 91.034 258.312 92.45 258.312H94.682C94.682 257.7 94.496 257.232 94.124 256.908C93.752 256.572 93.194 256.404 92.45 256.404C91.934 256.404 91.424 256.488 90.92 256.656C90.428 256.812 90.008 257.028 89.66 257.304L88.652 255.342C89.18 254.97 89.81 254.682 90.542 254.478C91.286 254.274 92.048 254.172 92.828 254.172ZM92.612 262.254C93.092 262.254 93.518 262.146 93.89 261.93C94.262 261.702 94.526 261.372 94.682 260.94V259.95H92.756C91.604 259.95 91.028 260.328 91.028 261.084C91.028 261.444 91.166 261.732 91.442 261.948C91.73 262.152 92.12 262.254 92.612 262.254ZM110.127 254.316V262.38C110.127 264.156 109.665 265.476 108.741 266.34C107.817 267.204 106.467 267.636 104.691 267.636C103.755 267.636 102.867 267.522 102.027 267.294C101.187 267.066 100.491 266.736 99.9388 266.304L101.055 264.288C101.463 264.624 101.979 264.888 102.603 265.08C103.227 265.284 103.851 265.386 104.475 265.386C105.447 265.386 106.161 265.164 106.617 264.72C107.085 264.288 107.319 263.628 107.319 262.74V262.326C106.587 263.13 105.567 263.532 104.259 263.532C103.371 263.532 102.555 263.34 101.811 262.956C101.079 262.56 100.497 262.008 100.065 261.3C99.6328 260.592 99.4168 259.776 99.4168 258.852C99.4168 257.928 99.6328 257.112 100.065 256.404C100.497 255.696 101.079 255.15 101.811 254.766C102.555 254.37 103.371 254.172 104.259 254.172C105.663 254.172 106.731 254.634 107.463 255.558V254.316H110.127ZM104.817 261.228C105.561 261.228 106.167 261.012 106.635 260.58C107.115 260.136 107.355 259.56 107.355 258.852C107.355 258.144 107.115 257.574 106.635 257.142C106.167 256.698 105.561 256.476 104.817 256.476C104.073 256.476 103.461 256.698 102.981 257.142C102.501 257.574 102.261 258.144 102.261 258.852C102.261 259.56 102.501 260.136 102.981 260.58C103.461 261.012 104.073 261.228 104.817 261.228ZM122.226 259.194C122.226 259.23 122.208 259.482 122.172 259.95H114.846C114.978 260.55 115.29 261.024 115.782 261.372C116.274 261.72 116.886 261.894 117.618 261.894C118.122 261.894 118.566 261.822 118.95 261.678C119.346 261.522 119.712 261.282 120.048 260.958L121.542 262.578C120.63 263.622 119.298 264.144 117.546 264.144C116.454 264.144 115.488 263.934 114.648 263.514C113.808 263.082 113.16 262.488 112.704 261.732C112.248 260.976 112.02 260.118 112.02 259.158C112.02 258.21 112.242 257.358 112.686 256.602C113.142 255.834 113.76 255.24 114.54 254.82C115.332 254.388 116.214 254.172 117.186 254.172C118.134 254.172 118.992 254.376 119.76 254.784C120.528 255.192 121.128 255.78 121.56 256.548C122.004 257.304 122.226 258.186 122.226 259.194ZM117.204 256.296C116.568 256.296 116.034 256.476 115.602 256.836C115.17 257.196 114.906 257.688 114.81 258.312H119.58C119.484 257.7 119.22 257.214 118.788 256.854C118.356 256.482 117.828 256.296 117.204 256.296Z" fill="white"/>
	<path d="M101 71.9375C100.483 71.9375 100.062 72.3575 100.062 72.875C100.062 73.3925 100.483 73.8125 101 73.8125C101.517 73.8125 101.938 73.3925 101.938 72.875C101.938 72.3575 101.517 71.9375 101 71.9375Z" fill="white"/>
	<path fill-rule="evenodd" clip-rule="evenodd" d="M103.812 36.4468V34.8125C103.812 33.2617 102.551 32 101 32H71C69.4492 32 68.1875 33.2617 68.1875 34.8125V36.4468C65.3365 41.7122 63.799 44.4498 62.9699 45.926L62.9699 45.926L62.9699 45.926C62.0208 47.616 62.0002 47.6527 62 47.9365V47.9375V49.8125C62 51.4375 62.9396 52.9487 64.4375 53.8081V79.0625C64.4375 79.5802 64.8573 80 65.375 80H106.625C107.143 80 107.562 79.5802 107.562 79.0625V53.8081C109.045 52.9495 110 51.4204 110 49.8125V47.9375V47.9365C110 47.6487 109.962 47.5813 108.997 45.8632C108.16 44.373 106.625 41.6411 103.812 36.4468ZM107.477 47H101.676L98.5508 37.625H102.321L107.477 47ZM100.062 48.875H94.4375V49.8125C94.4375 51.3633 95.6992 52.625 97.25 52.625C98.8008 52.625 100.062 51.3633 100.062 49.8125V48.875ZM94.2942 47L92.7317 37.625H96.5742L99.6992 47H94.2942ZM71 33.875C70.4831 33.875 70.0625 34.2956 70.0625 34.8125V35.75H101.938V34.8125C101.938 34.2956 101.517 33.875 101 33.875H71ZM92.5625 48.875V49.8125C92.5625 51.3633 91.3008 52.625 89.75 52.625C88.1992 52.625 86.9375 51.3633 86.9375 49.8125V48.875H92.5625ZM86.9375 37.625V47H92.3934L90.8308 37.625H86.9375ZM79.6067 47L81.1692 37.625H85.0625V47H79.6067ZM85.0625 49.8125V48.875H79.4375V49.8125C79.4375 51.3633 80.6992 52.625 82.25 52.625C83.8008 52.625 85.0625 51.3633 85.0625 49.8125ZM72.3007 47L75.4257 37.625H79.2683L77.7058 47H72.3007ZM77.5625 49.8125V48.875H71.9375V49.8125C71.9375 51.3633 73.1992 52.625 74.75 52.625C76.3008 52.625 77.5625 51.3633 77.5625 49.8125ZM69.6792 37.625H73.4492L70.3243 47H64.523L69.6792 37.625ZM63.875 48.875V49.8125C63.875 50.8655 64.626 51.8925 65.7438 52.3679C66.1376 52.5364 66.5606 52.625 66.9688 52.625C68.5879 52.625 70.0625 51.2845 70.0625 49.8125V48.875H63.875ZM81.3125 78.125H71.9375V70.0625H81.3125V78.125ZM71.9375 68.1875H81.3125V60.125H71.9375V68.1875ZM105.688 78.125H83.1875V59.1875C83.1875 58.6698 82.7677 58.25 82.25 58.25H71C70.4823 58.25 70.0625 58.6698 70.0625 59.1875V78.125H66.3125V54.4542C66.5298 54.4837 66.7487 54.5 66.9688 54.5C68.2026 54.5 69.4498 54.0112 70.3904 53.1588C70.5985 52.9704 70.7858 52.7688 70.9539 52.5576C71.8064 53.7333 73.19 54.5 74.75 54.5C76.2818 54.5 77.6441 53.7614 78.5 52.6217C79.3559 53.7614 80.7182 54.5 82.25 54.5C83.7818 54.5 85.1441 53.7614 86 52.6217C86.8559 53.7614 88.2182 54.5 89.75 54.5C91.2818 54.5 92.6441 53.7614 93.5 52.6217C94.3559 53.7614 95.7182 54.5 97.25 54.5C98.81 54.5 100.194 53.7333 101.046 52.5576C101.214 52.7688 101.402 52.9703 101.61 53.1588C102.55 54.0112 103.797 54.5 105.031 54.5C105.251 54.5 105.47 54.4843 105.688 54.4545V78.125ZM106.187 52.3977C107.346 51.934 108.125 50.8951 108.125 49.8125V48.875H101.938V49.8125C101.938 51.2845 103.412 52.625 105.031 52.625C105.419 52.625 105.808 52.5486 106.187 52.3977Z" fill="white"/>
	<path fill-rule="evenodd" clip-rule="evenodd" d="M101.938 68.1875H102.875C103.393 68.1875 103.812 68.6073 103.812 69.125C103.812 69.6427 103.393 70.0625 102.875 70.0625H87.875C87.3573 70.0625 86.9375 69.6427 86.9375 69.125C86.9375 68.6073 87.3573 68.1875 87.875 68.1875H88.8125V59.1875C88.8125 58.6698 89.2323 58.25 89.75 58.25H101C101.518 58.25 101.938 58.6698 101.938 59.1875V68.1875ZM90.6875 68.1875H100.062V60.125H90.6875V68.1875Z" fill="white"/>
	<path d="M97.25 71.9375H89.75C89.2323 71.9375 88.8125 72.3573 88.8125 72.875C88.8125 73.3927 89.2323 73.8125 89.75 73.8125H97.25C97.7677 73.8125 98.1875 73.3927 98.1875 72.875C98.1875 72.3573 97.7677 71.9375 97.25 71.9375Z" fill="white"/>
	<path d="M68.9375 208.838C69.184 208.838 69.426 208.739 69.6003 208.565C69.7747 208.389 69.875 208.148 69.875 207.901C69.875 207.654 69.7747 207.412 69.6003 207.238C69.426 207.064 69.184 206.963 68.9375 206.963C68.691 206.963 68.449 207.064 68.2747 207.238C68.1003 207.412 68 207.654 68 207.901C68 208.148 68.1003 208.39 68.2747 208.565C68.449 208.739 68.691 208.838 68.9375 208.838Z" fill="white"/>
	<path fill-rule="evenodd" clip-rule="evenodd" d="M109.516 195.867L100.948 191.13C100.495 190.879 99.9244 191.044 99.674 191.497C99.4235 191.95 99.5879 192.521 100.041 192.771L108.125 197.241V229.125H104V199.688C104 199.17 103.58 198.75 103.062 198.75H68.9375C68.4197 198.75 68 199.17 68 199.688V204.151C68 204.669 68.4197 205.089 68.9375 205.089C69.4553 205.089 69.875 204.669 69.875 204.151V200.625H102.125V229.125H98.1996V219.75C98.1996 218.716 97.3584 217.875 96.3246 217.875H92.5746V208.5C92.5746 207.466 91.7334 206.625 90.6996 206.625H81.3246C80.2904 206.625 79.4496 207.466 79.4496 208.5V217.875H75.6875C74.6537 217.875 73.8125 218.716 73.8125 219.75V229.125H69.875V211.651C69.875 211.134 69.4553 210.714 68.9375 210.714C68.4197 210.714 68 211.134 68 211.651V229.125H63.875V197.241L86 185.009L93.4769 189.143C93.9299 189.393 94.5005 189.229 94.751 188.776C95.0015 188.323 94.837 187.752 94.384 187.502L86.4537 183.117C86.1714 182.961 85.8286 182.961 85.5463 183.117L62.4838 195.867C62.1853 196.032 62 196.346 62 196.688V230.063C62 230.58 62.4197 231 62.9375 231H109.062C109.58 231 110 230.58 110 230.063V196.688C110 196.346 109.815 196.032 109.516 195.867ZM90.6996 219.75H92.5746V221.625H90.6996V219.75ZM86.9375 210.375V208.5H85.0625V210.375H86.9375ZM81.3246 208.5H83.1875V211.313C83.1875 211.83 83.6072 212.25 84.125 212.25H87.875C88.3928 212.25 88.8125 211.83 88.8125 211.313V208.5H90.6996L90.7007 217.875H90.6996H81.3246V208.5ZM81.3246 221.625V219.75H79.4496V221.625H81.3246ZM75.6875 229.125V219.75H77.5746V222.563C77.5746 223.08 77.9943 223.5 78.5121 223.5H82.2621C82.7795 223.5 83.1996 223.08 83.1996 222.563V219.75H85.0625L85.0636 229.125H85.0625H75.6875ZM86.9496 219.75V229.125H96.3246H96.3257L96.3246 219.75H94.4496V222.563C94.4496 223.08 94.0295 223.5 93.5121 223.5H89.7621C89.2443 223.5 88.8246 223.08 88.8246 222.563V219.75H86.9496Z" fill="white"/>
	<path d="M97.2126 191.074C97.4591 191.074 97.7008 190.973 97.8755 190.799C98.0498 190.624 98.1501 190.383 98.1501 190.136C98.1501 189.889 98.0498 189.648 97.8755 189.473C97.7008 189.299 97.4591 189.199 97.2126 189.199C96.9658 189.199 96.7241 189.299 96.5498 189.473C96.3755 189.648 96.2751 189.889 96.2751 190.136C96.2751 190.383 96.3755 190.624 96.5498 190.799C96.7241 190.973 96.9658 191.074 97.2126 191.074Z" fill="white"/>
	<path fill-rule="evenodd" clip-rule="evenodd" d="M86 196.5C83.8287 196.5 82.0625 194.734 82.0625 192.562C82.0625 190.391 83.8287 188.625 86 188.625C88.1713 188.625 89.9375 190.391 89.9375 192.562C89.9375 194.734 88.1713 196.5 86 196.5ZM86 194.625C87.1375 194.625 88.0625 193.7 88.0625 192.562C88.0625 191.425 87.1375 190.5 86 190.5C84.8625 190.5 83.9375 191.425 83.9375 192.562C83.9375 193.7 84.8625 194.625 86 194.625Z" fill="white"/>
	<rect x="26" y="150" width="120" height="1" fill="#D8D8D8" fill-opacity="0.2"/>
</svg>
