<svg width="172" height="154" viewBox="0 0 172 154" fill="none" xmlns="http://www.w3.org/2000/svg">
	<rect width="172" height="154" rx="8" fill="#55439D"/>
	<rect width="172" height="154" rx="8" fill="#55439D"/>
	<path d="M47.3814 117.216C46.0974 117.216 44.9334 116.94 43.8894 116.388C42.8574 115.824 42.0414 115.05 41.4414 114.066C40.8534 113.07 40.5594 111.948 40.5594 110.7C40.5594 109.452 40.8534 108.336 41.4414 107.352C42.0414 106.356 42.8574 105.582 43.8894 105.03C44.9334 104.466 46.1034 104.184 47.3994 104.184C48.4914 104.184 49.4754 104.376 50.3514 104.76C51.2394 105.144 51.9834 105.696 52.5834 106.416L50.7114 108.144C49.8594 107.16 48.8034 106.668 47.5434 106.668C46.7634 106.668 46.0674 106.842 45.4554 107.19C44.8434 107.526 44.3634 108 44.0154 108.612C43.6794 109.224 43.5114 109.92 43.5114 110.7C43.5114 111.48 43.6794 112.176 44.0154 112.788C44.3634 113.4 44.8434 113.88 45.4554 114.228C46.0674 114.564 46.7634 114.732 47.5434 114.732C48.8034 114.732 49.8594 114.234 50.7114 113.238L52.5834 114.966C51.9834 115.698 51.2394 116.256 50.3514 116.64C49.4634 117.024 48.4734 117.216 47.3814 117.216ZM63.8645 107.316V117H61.2005V115.848C60.8285 116.268 60.3845 116.592 59.8685 116.82C59.3525 117.036 58.7945 117.144 58.1945 117.144C56.9225 117.144 55.9145 116.778 55.1705 116.046C54.4265 115.314 54.0545 114.228 54.0545 112.788V107.316H56.8625V112.374C56.8625 113.934 57.5165 114.714 58.8245 114.714C59.4965 114.714 60.0365 114.498 60.4445 114.066C60.8525 113.622 61.0565 112.968 61.0565 112.104V107.316H63.8645ZM69.7239 117.144C68.9199 117.144 68.1339 117.048 67.3659 116.856C66.5979 116.652 65.9859 116.4 65.5299 116.1L66.4659 114.084C66.8979 114.36 67.4199 114.588 68.0319 114.768C68.6439 114.936 69.2439 115.02 69.8319 115.02C71.0199 115.02 71.6139 114.726 71.6139 114.138C71.6139 113.862 71.4519 113.664 71.1279 113.544C70.8039 113.424 70.3059 113.322 69.6339 113.238C68.8419 113.118 68.1879 112.98 67.6719 112.824C67.1559 112.668 66.7059 112.392 66.3219 111.996C65.9499 111.6 65.7639 111.036 65.7639 110.304C65.7639 109.692 65.9379 109.152 66.2859 108.684C66.6459 108.204 67.1619 107.832 67.8339 107.568C68.5179 107.304 69.3219 107.172 70.2459 107.172C70.9299 107.172 71.6079 107.25 72.2799 107.406C72.9639 107.55 73.5279 107.754 73.9719 108.018L73.0359 110.016C72.1839 109.536 71.2539 109.296 70.2459 109.296C69.6459 109.296 69.1959 109.38 68.8959 109.548C68.5959 109.716 68.4459 109.932 68.4459 110.196C68.4459 110.496 68.6079 110.706 68.9319 110.826C69.2559 110.946 69.7719 111.06 70.4799 111.168C71.2719 111.3 71.9199 111.444 72.4239 111.6C72.9279 111.744 73.3659 112.014 73.7379 112.41C74.1099 112.806 74.2959 113.358 74.2959 114.066C74.2959 114.666 74.1159 115.2 73.7559 115.668C73.3959 116.136 72.8679 116.502 72.1719 116.766C71.4879 117.018 70.6719 117.144 69.7239 117.144ZM82.2744 116.532C81.9984 116.736 81.6564 116.892 81.2484 117C80.8524 117.096 80.4324 117.144 79.9884 117.144C78.8364 117.144 77.9424 116.85 77.3064 116.262C76.6824 115.674 76.3704 114.81 76.3704 113.67V109.692H74.8764V107.532H76.3704V105.174H79.1784V107.532H81.5904V109.692H79.1784V113.634C79.1784 114.042 79.2804 114.36 79.4844 114.588C79.7004 114.804 80.0004 114.912 80.3844 114.912C80.8284 114.912 81.2064 114.792 81.5184 114.552L82.2744 116.532ZM88.1599 117.144C87.1399 117.144 86.2219 116.934 85.4059 116.514C84.6019 116.082 83.9719 115.488 83.5159 114.732C83.0599 113.976 82.8319 113.118 82.8319 112.158C82.8319 111.198 83.0599 110.34 83.5159 109.584C83.9719 108.828 84.6019 108.24 85.4059 107.82C86.2219 107.388 87.1399 107.172 88.1599 107.172C89.1799 107.172 90.0919 107.388 90.8959 107.82C91.6999 108.24 92.3299 108.828 92.7859 109.584C93.2419 110.34 93.4699 111.198 93.4699 112.158C93.4699 113.118 93.2419 113.976 92.7859 114.732C92.3299 115.488 91.6999 116.082 90.8959 116.514C90.0919 116.934 89.1799 117.144 88.1599 117.144ZM88.1599 114.84C88.8799 114.84 89.4679 114.6 89.9239 114.12C90.3919 113.628 90.6259 112.974 90.6259 112.158C90.6259 111.342 90.3919 110.694 89.9239 110.214C89.4679 109.722 88.8799 109.476 88.1599 109.476C87.4399 109.476 86.8459 109.722 86.3779 110.214C85.9099 110.694 85.6759 111.342 85.6759 112.158C85.6759 112.974 85.9099 113.628 86.3779 114.12C86.8459 114.6 87.4399 114.84 88.1599 114.84ZM107.749 107.172C108.961 107.172 109.921 107.532 110.629 108.252C111.349 108.96 111.709 110.028 111.709 111.456V117H108.901V111.888C108.901 111.12 108.739 110.55 108.415 110.178C108.103 109.794 107.653 109.602 107.065 109.602C106.405 109.602 105.883 109.818 105.499 110.25C105.115 110.67 104.923 111.3 104.923 112.14V117H102.115V111.888C102.115 110.364 101.503 109.602 100.279 109.602C99.6308 109.602 99.1148 109.818 98.7308 110.25C98.3468 110.67 98.1548 111.3 98.1548 112.14V117H95.3468V107.316H98.0288V108.432C98.3888 108.024 98.8268 107.712 99.3428 107.496C99.8708 107.28 100.447 107.172 101.071 107.172C101.755 107.172 102.373 107.31 102.925 107.586C103.477 107.85 103.921 108.24 104.257 108.756C104.653 108.252 105.151 107.862 105.751 107.586C106.363 107.31 107.029 107.172 107.749 107.172ZM123.817 112.194C123.817 112.23 123.799 112.482 123.763 112.95H116.437C116.569 113.55 116.881 114.024 117.373 114.372C117.865 114.72 118.477 114.894 119.209 114.894C119.713 114.894 120.157 114.822 120.541 114.678C120.937 114.522 121.303 114.282 121.639 113.958L123.133 115.578C122.221 116.622 120.889 117.144 119.137 117.144C118.045 117.144 117.079 116.934 116.239 116.514C115.399 116.082 114.751 115.488 114.295 114.732C113.839 113.976 113.611 113.118 113.611 112.158C113.611 111.21 113.833 110.358 114.277 109.602C114.733 108.834 115.351 108.24 116.131 107.82C116.923 107.388 117.805 107.172 118.777 107.172C119.725 107.172 120.583 107.376 121.351 107.784C122.119 108.192 122.719 108.78 123.151 109.548C123.595 110.304 123.817 111.186 123.817 112.194ZM118.795 109.296C118.159 109.296 117.625 109.476 117.193 109.836C116.761 110.196 116.497 110.688 116.401 111.312H121.171C121.075 110.7 120.811 110.214 120.379 109.854C119.947 109.482 119.419 109.296 118.795 109.296ZM128.369 108.594C128.705 108.126 129.155 107.772 129.719 107.532C130.295 107.292 130.955 107.172 131.699 107.172V109.764C131.387 109.74 131.177 109.728 131.069 109.728C130.265 109.728 129.635 109.956 129.179 110.412C128.723 110.856 128.495 111.528 128.495 112.428V117H125.687V107.316H128.369V108.594Z" fill="white"/>
	<path d="M91.5286 50.2812C92.0892 50.2812 92.5442 49.8262 92.5442 49.2656C92.5442 48.705 92.0892 48.25 91.5286 48.25C90.9668 48.25 90.513 48.705 90.513 49.2656C90.513 49.8262 90.9668 50.2812 91.5286 50.2812Z" fill="white"/>
	<path d="M81.3723 50.2812C81.9329 50.2812 82.388 49.8262 82.388 49.2656C82.388 48.705 81.9329 48.25 81.3723 48.25C80.8106 48.25 80.3567 48.705 80.3567 49.2656C80.3567 49.8262 80.8106 50.2812 81.3723 50.2812Z" fill="white"/>
	<path d="M83.7353 57.2621C84.5878 57.664 85.5015 57.8679 86.4501 57.8679C87.378 57.8679 88.2738 57.6723 89.1129 57.2867C89.6227 57.0522 89.8457 56.4492 89.6116 55.9394C89.3771 55.43 88.7741 55.2067 88.2643 55.4411C87.6934 55.7034 87.0829 55.8367 86.4501 55.8367C85.803 55.8367 85.1809 55.6982 84.6013 55.4249C84.0939 55.1856 83.4885 55.403 83.2497 55.9105C83.0104 56.4179 83.2278 57.0229 83.7353 57.2621Z" fill="white"/>
	<path fill-rule="evenodd" clip-rule="evenodd" d="M97.0368 63.0388C102.489 63.2463 108.849 67.6262 108.849 73.211V82.9844C108.849 83.5453 108.394 84 107.833 84H65.0664C64.5054 84 64.0508 83.5453 64.0508 82.9844V73.211C64.0508 67.6147 70.423 63.2459 75.863 63.0388L78.6655 60.5208C75.3218 58.0536 73.293 54.0891 73.293 49.875V43.1719C73.293 36.994 78.2576 32 84.4291 32H88.4916C94.6715 32 99.6992 37.0119 99.6992 43.1719V49.875C99.6992 54.0962 97.643 58.0682 94.2553 60.5399L97.0368 63.0388ZM88.694 77.2969H84.2002L83.1045 81.9688H89.7588L88.694 77.2969ZM88.7812 75.2656H84.136L83.3568 72.838L86.4505 71.2912L89.6104 72.8718L88.7812 75.2656ZM82.9208 62.5937L86.4501 68.2396L89.9738 62.6021C88.8336 62.9155 87.6514 63.0777 86.4604 63.0777C85.2579 63.0777 84.0669 62.9123 82.9208 62.5937ZM87.9037 69.7471L92.7799 61.9447L95.4098 64.3076L92.0634 71.8276L87.9037 69.7471ZM88.4916 34.0312H84.4291C79.4085 34.0312 75.3242 38.1314 75.3242 43.1719V43.9241L77.1341 41.2719C77.3055 41.0204 77.5808 40.8593 77.8839 40.8328C78.1866 40.8062 78.4861 40.9165 78.6988 41.1343C80.765 43.2457 83.1556 44.1875 86.4505 44.1875C89.7457 44.1875 92.136 43.2457 94.2006 41.1343C94.4124 40.9177 94.7092 40.807 95.0115 40.8324C95.3134 40.8578 95.5883 41.0164 95.7609 41.2652L97.668 44.0114V43.1719C97.668 38.1314 93.5515 34.0312 88.4916 34.0312ZM75.3242 49.875V47.5276L78.145 43.394C80.4047 45.3162 83.0751 46.2188 86.4505 46.2188C89.8294 46.2188 92.5018 45.3142 94.7619 43.3881L97.668 47.5728V49.875C97.668 55.9572 92.6966 61.0469 86.4604 61.0469C80.2444 61.0469 75.3242 55.9731 75.3242 49.875ZM84.9969 69.7471L80.1199 61.9451L77.49 64.3076L80.8364 71.8276L84.9969 69.7471ZM66.082 73.211C66.082 69.0271 71.1681 65.4145 75.6126 65.086L79.4125 73.624C79.5252 73.8771 79.7366 74.0735 79.9977 74.1671C80.2587 74.2607 80.5464 74.2433 80.7947 74.1195L81.5183 73.7573L82.3423 76.3233L81.0181 81.9688H66.082V73.211ZM91.842 81.9688H106.818V73.211C106.818 69.0271 101.732 65.4149 97.2871 65.086L93.4872 73.624C93.3746 73.8771 93.1631 74.0735 92.9021 74.1671C92.6434 74.2599 92.355 74.2444 92.105 74.1195L91.4425 73.7878L90.559 76.3388L91.842 81.9688Z" fill="white"/>
	<path d="M99.6536 77.2969H95.5911C95.0301 77.2969 94.5755 77.7515 94.5755 78.3125C94.5755 78.8735 95.0301 79.3281 95.5911 79.3281H99.6536C100.215 79.3281 100.669 78.8735 100.669 78.3125C100.669 77.7515 100.215 77.2969 99.6536 77.2969Z" fill="white"/>
	<path d="M103.66 77.2969C104.221 77.2969 104.676 77.7519 104.676 78.3125C104.676 78.8731 104.221 79.3281 103.66 79.3281C103.1 79.3281 102.645 78.8731 102.645 78.3125C102.645 77.7519 103.1 77.2969 103.66 77.2969Z" fill="white"/>
</svg>
