<svg width="172" height="154" fill="none" xmlns="http://www.w3.org/2000/svg">
	<rect width="172" height="154" rx="8" fill="#55439D" />
	<path d="M56.866 111.924H54.85V117h-2.898v-12.6h2.898v5.094h2.088l3.312-5.094h3.078l-4.122 6.084L63.454 117h-3.312l-3.276-5.076zm17.246-4.608l-4.373 10.278c-.445 1.116-.996 1.902-1.657 2.358-.647.456-1.433.684-2.357.684a4.916 4.916 0 01-1.494-.234c-.492-.156-.894-.372-1.206-.648l1.026-1.998a2.438 2.438 0 001.584.612c.383 0 .695-.096.935-.288.24-.18.457-.486.649-.918l.035-.09-4.194-9.756h2.898l2.719 6.57 2.735-6.57h2.7zm7.061-.144c.9 0 1.716.21 2.448.63.744.408 1.326.99 1.746 1.746.42.744.63 1.614.63 2.61 0 .996-.21 1.872-.63 2.628a4.521 4.521 0 01-1.746 1.746c-.732.408-1.548.612-2.448.612-1.236 0-2.208-.39-2.916-1.17v4.518H75.45v-13.176h2.682v1.116c.696-.84 1.71-1.26 3.042-1.26zm-.486 7.668c.72 0 1.308-.24 1.764-.72.468-.492.702-1.146.702-1.962 0-.816-.234-1.464-.702-1.944-.456-.492-1.044-.738-1.764-.738s-1.314.246-1.782.738c-.456.48-.684 1.128-.684 1.944 0 .816.228 1.47.684 1.962.468.48 1.062.72 1.782.72zm12.516-4.428c1.26.012 2.226.3 2.898.864.672.552 1.008 1.338 1.008 2.358 0 1.068-.378 1.902-1.134 2.502-.744.588-1.794.882-3.15.882l-4.86-.018v-9.684h2.79v3.096h2.448zm-.63 4.608c.54.012.954-.102 1.242-.342.288-.24.432-.6.432-1.08 0-.468-.144-.81-.432-1.026-.276-.216-.69-.33-1.242-.342l-1.818-.018v2.808h1.818zm15.705-2.826c0 .036-.018.288-.054.756h-7.326c.132.6.444 1.074.936 1.422.492.348 1.104.522 1.836.522.504 0 .948-.072 1.332-.216a3.345 3.345 0 001.098-.72l1.494 1.62c-.912 1.044-2.244 1.566-3.996 1.566-1.092 0-2.058-.21-2.898-.63-.84-.432-1.488-1.026-1.944-1.782-.456-.756-.684-1.614-.684-2.574 0-.948.222-1.8.666-2.556a4.724 4.724 0 011.854-1.782c.792-.432 1.674-.648 2.646-.648.948 0 1.806.204 2.574.612a4.393 4.393 0 011.8 1.764c.444.756.666 1.638.666 2.646zm-5.022-2.898c-.636 0-1.17.18-1.602.54-.432.36-.696.852-.792 1.476h4.77c-.096-.612-.36-1.098-.792-1.458-.432-.372-.96-.558-1.584-.558zm12.88-2.124c.9 0 1.716.21 2.448.63.744.408 1.326.99 1.746 1.746.42.744.63 1.614.63 2.61 0 .996-.21 1.872-.63 2.628a4.521 4.521 0 01-1.746 1.746c-.732.408-1.548.612-2.448.612-1.236 0-2.208-.39-2.916-1.17v4.518h-2.808v-13.176h2.682v1.116c.696-.84 1.71-1.26 3.042-1.26zm-.486 7.668c.72 0 1.308-.24 1.764-.72.468-.492.702-1.146.702-1.962 0-.816-.234-1.464-.702-1.944-.456-.492-1.044-.738-1.764-.738s-1.314.246-1.782.738c-.456.48-.684 1.128-.684 1.944 0 .816.228 1.47.684 1.962.468.48 1.062.72 1.782.72zM65.19 76.794a1.019 1.019 0 10-.001-2.038 1.019 1.019 0 000 2.038zM105.945 76.794a1.019 1.019 0 100-2.037 1.019 1.019 0 000 2.037z" fill="#fff" />
	<path fill-rule="evenodd" clip-rule="evenodd" d="M104.926 39.094a3.074 3.074 0 012.446 1.223l8.151 10.869c.396.53.61 1.173.611 1.834v17.66a3.056 3.056 0 01-3.056 3.057h-1.376a6.054 6.054 0 01-1.212 6.114h4.625a1.019 1.019 0 110 2.038h-55.02a1.019 1.019 0 010-2.038h.55a6.054 6.054 0 01-1.213-6.114h-1.375A3.057 3.057 0 0155 70.681v-3.057a.925.925 0 01.03-.14.91.91 0 010-.108l1.721-6.885h-.732a1.019 1.019 0 110-2.037h1.242l4.585-18.34h-1.752a1.019 1.019 0 110-2.038h2.261l.44-1.761A3.057 3.057 0 0165.763 34h27.956a3.057 3.057 0 013.057 3.057v2.037h8.151zm7.133 23.435h2.038v-2.038h-2.038v2.038zm-7.133-21.397c.321 0 .623.151.815.408l8.152 10.869c.132.176.203.39.204.61v5.435h-2.038a2.038 2.038 0 00-2.038 2.038v2.037c0 1.126.912 2.038 2.038 2.038h2.038v2.038H96.775V41.132h8.151zm-36.68 18.34c0 .563-.456 1.02-1.02 1.02h-8.373l-1.529 6.113h37.413V37.057c0-.563-.456-1.02-1.019-1.02H65.762c-.468 0-.876.319-.99.773l-.316 1.266h6.846a1.019 1.019 0 010 2.037h-7.355l-4.585 18.34h7.865c.563 0 1.019.457 1.019 1.02zm-7.133 16.303a4.076 4.076 0 118.152 0 4.076 4.076 0 01-8.152 0zm9.833-2.038a6.053 6.053 0 01-1.213 6.114h31.668a6.054 6.054 0 01-1.213-6.114H70.946zm30.924 2.038a4.075 4.075 0 118.15-.001 4.075 4.075 0 01-8.15.001zm11.208-4.076a1.02 1.02 0 001.019-1.018v-2.038h-57.06v2.038c0 .562.457 1.019 1.02 1.019h2.588a6.086 6.086 0 019.088 0h31.668a6.086 6.086 0 019.089 0h2.588z" fill="#fff" />
	<path fill-rule="evenodd" clip-rule="evenodd" d="M110.021 56.416h-9.17a2.038 2.038 0 01-2.038-2.038v-9.17c0-1.126.912-2.038 2.038-2.038h2.547a2.046 2.046 0 011.63.815l6.623 8.83c.264.354.407.783.408 1.224v.339a2.038 2.038 0 01-2.038 2.038zm-6.623-11.208h-2.547v9.17h9.17v-.34l-6.623-8.83z" fill="#fff" />
	<path d="M101.87 58.454h-2.038a1.019 1.019 0 000 2.037h2.038a1.02 1.02 0 000-2.037zM56.019 40.114a1.019 1.019 0 100-2.038 1.019 1.019 0 000 2.038zM75.378 40.114h5.095a1.019 1.019 0 000-2.038h-5.095a1.019 1.019 0 100 2.038zM86.586 60.491a1.019 1.019 0 100-2.037 1.019 1.019 0 000 2.037zM71.302 60.491H82.51a1.019 1.019 0 100-2.037H71.302a1.019 1.019 0 100 2.037zM57.038 79.85h-1.02a1.019 1.019 0 000 2.038h1.02a1.019 1.019 0 000-2.037zM82.714 56.008a1.019 1.019 0 101.63-1.222l-9.17-12.227a1.019 1.019 0 10-1.63 1.223l9.17 12.227z" fill="#fff" />
	<path fill-rule="evenodd" clip-rule="evenodd" d="M77.416 53.359a3.057 3.057 0 11-6.114 0 3.057 3.057 0 016.114 0zm-2.038 0a1.019 1.019 0 10-2.038 0 1.019 1.019 0 002.038 0zM83.53 48.265a3.057 3.057 0 110-6.114 3.057 3.057 0 010 6.114zm1.018-3.057a1.019 1.019 0 10-2.038 0 1.019 1.019 0 002.038 0z" fill="#fff" />
	<path d="M78.435 63.548c0 .563.456 1.02 1.019 1.02H92.7a1.019 1.019 0 000-2.039H79.454c-.563 0-1.02.456-1.02 1.02zM75.378 62.53H73.34a1.019 1.019 0 000 2.037h2.038a1.019 1.019 0 100-2.038z" fill="#fff" />
</svg>
