<svg width="88" height="88" viewBox="0 0 88 88" fill="none" xmlns="http://www.w3.org/2000/svg">
<path fill-rule="evenodd" clip-rule="evenodd" d="M27.49 21.1842C29.6119 23.3663 30.8 26.2897 30.8 29.3333V35.1999H32.2667V38.1333H22V43.9999H19.0667V38.1333H14.6667V85.0666H32.2667V87.9999H1.46667C0.656706 87.9999 0 87.3432 0 86.5333V36.6666C0 35.8566 0.656706 35.1999 1.46667 35.1999H7.33333V29.3333C7.3276 25.1402 9.56413 21.2645 13.1971 19.1704C16.8301 17.0772 21.3053 17.0857 24.9305 19.1926C29.4837 16.5386 35.2501 17.2591 39.0106 20.9529L36.9574 23.0469C34.4559 20.592 30.7341 19.8601 27.49 21.1842ZM7.33333 76.3081C7.81387 76.3081 8.26576 76.5344 8.55365 76.919L11.7333 81.6936V41.5063L8.55365 46.2759C8.28151 46.6841 7.82389 46.929 7.33333 46.929C6.84277 46.929 6.38516 46.6841 6.11302 46.2759L2.93333 41.5063V81.6936L6.11302 76.919C6.40091 76.5344 6.8528 76.3081 7.33333 76.3081ZM4.20664 85.0666L7.33333 80.373L10.46 85.0666H4.20664ZM4.20664 38.1333L7.33333 42.8269L10.46 38.1333H4.20664ZM10.2667 35.1999V29.3333C10.2631 26.4042 11.719 23.6657 14.1496 22.03C16.5795 20.3951 19.6646 20.0778 22.3767 21.1842C20.2548 23.3663 19.0667 26.2897 19.0667 29.3333V35.1999H10.2667ZM24.9333 22.7934C23.0685 24.4563 22.0014 26.8354 22 29.3333V35.1999H27.8667V29.3333C27.8652 26.8354 26.7982 24.4563 24.9333 22.7934Z" fill="#161616"/>
<path fill-rule="evenodd" clip-rule="evenodd" d="M46.9333 19.0667C46.9354 19.2937 46.8853 19.5178 46.7865 19.7219L38.1333 37.0126V85.0667H46.9333V88H36.6666C35.8567 88 35.2 87.3433 35.2 86.5333V36.6667C35.2 36.4389 35.2522 36.2148 35.3539 36.0114L44 18.7208V1.46667C44 0.656706 44.6567 0 45.4666 0H54.2666C55.0766 0 55.7333 0.656706 55.7333 1.46667V18.7208L64.3722 36.0114L61.7468 37.3219L52.9468 19.7219C52.8479 19.5178 52.7978 19.2937 52.8 19.0667V8.8H46.9333V19.0667ZM52.8 5.86667V2.93333H46.9333V5.86667H52.8Z" fill="#161616"/>
<path fill-rule="evenodd" clip-rule="evenodd" d="M82.1333 46.5444L87.793 56.4487C87.9291 56.6758 88.0007 56.9357 88 57.2V86.5333C88 87.3433 87.3433 88 86.5333 88H51.3333C50.5233 88 49.8666 87.3433 49.8666 86.5333V57.2C49.8652 56.9429 49.9318 56.6894 50.06 56.4666L55.7333 46.5444V41.0666C55.7333 40.2567 56.39 39.6 57.2 39.6H80.6666C81.4766 39.6 82.1333 40.2567 82.1333 41.0666V46.5444ZM77.3272 55.7333H84.006L80.6666 49.8903L77.3272 55.7333ZM58.6666 42.5333H79.2V45.4666H58.6666V42.5333ZM78.1436 48.4H58.0507L53.8563 55.7333H73.9492L78.1436 48.4ZM73.3333 85.0666H52.8V58.6666H73.3333V85.0666ZM76.2666 58.6666V85.0666H85.0666V58.6666H76.2666Z" fill="#161616"/>
</svg>
