<svg width="88" height="88" viewBox="0 0 88 88" fill="none" xmlns="http://www.w3.org/2000/svg">
<path fill-rule="evenodd" clip-rule="evenodd" d="M78.1719 57.0753C78.2612 57.1956 78.3508 57.3319 78.4359 57.4743C79.9554 60.0204 79.2543 63.3613 76.839 65.0821L59.0585 79.7737C57.2251 81.2917 54.9048 82.1306 52.523 82.1335H16.1334C15.3239 82.1335 14.6668 81.478 14.6668 80.6669V63.0669C14.6668 62.6314 14.8603 62.2192 15.1948 61.939L22.3668 55.9697C23.6648 54.8874 25.3119 54.2815 27.003 54.2669H46.0828C48.8533 54.1993 51.2396 56.4052 51.3305 59.2344C51.3319 59.249 51.3334 59.384 51.3334 59.4001C51.3334 62.2309 49.0306 64.5335 46.2 64.5335H36.6666C35.8585 64.5335 35.2 65.1906 35.2 66.0001C35.2 66.8096 35.8585 67.4667 36.6666 67.4667H53.7972L70.1946 55.7583C71.4325 54.8693 72.9534 54.5159 74.4539 54.7638C75.9616 55.0118 77.2831 55.833 78.1719 57.0753ZM57.1897 77.5133L75.0553 62.7572C76.3165 61.8536 76.6613 60.2213 75.9189 58.9788C75.8808 58.9158 75.8412 58.8542 75.7972 58.7941C75.3559 58.1781 74.7134 57.7792 73.9786 57.6575C73.2423 57.5403 72.5076 57.7089 71.9032 58.143L55.1217 70.1272C54.8694 70.3045 54.5717 70.3999 54.2666 70.3999H36.6666C34.2408 70.3999 32.2666 68.4258 32.2666 65.9999C32.2666 63.5741 34.2408 61.5999 36.6666 61.5999H46.2C47.4129 61.5999 48.4 60.6129 48.4 59.3999C48.3603 58.1165 47.3454 57.1968 46.1296 57.1984L27.016 57.1998C26.0128 57.2085 25.0257 57.5724 24.2454 58.2221L17.6 63.7544V79.1999H52.5212C54.2197 79.197 55.8785 78.5987 57.1897 77.5133Z" fill="#161616"/>
<path d="M16.0894 60.1334H0V63.0668H14.6226V85.0668H0V88H16.0894C16.8989 88 17.556 87.3445 17.556 86.5334V61.6C17.556 60.789 16.8989 60.1334 16.0894 60.1334Z" fill="#161616"/>
<path fill-rule="evenodd" clip-rule="evenodd" d="M2.93341 77.7334C2.93341 75.3075 4.90757 73.3334 7.33341 73.3334C9.75925 73.3334 11.7334 75.3075 11.7334 77.7334C11.7334 80.1592 9.75925 82.1334 7.33341 82.1334C4.90757 82.1334 2.93341 80.1592 2.93341 77.7334ZM5.8668 77.7334C5.8668 78.5429 6.52525 79.2 7.33341 79.2C8.14157 79.2 8.80002 78.5429 8.80002 77.7334C8.80002 76.9238 8.14157 76.2668 7.33341 76.2668C6.52525 76.2668 5.8668 76.9238 5.8668 77.7334Z" fill="#161616"/>
<path fill-rule="evenodd" clip-rule="evenodd" d="M1.46661 45.4666H86.5334C87.3445 45.4666 88 46.1223 87.9998 46.9332C87.9998 52.593 83.3931 57.1998 77.7332 57.1998H10.2666C4.60539 57.1998 0 52.593 0 46.9332C0 46.1221 0.657078 45.4666 1.46661 45.4666ZM10.2666 54.2666H77.7334C81.2754 54.2666 84.238 51.7424 84.9185 48.3999H3.08137C3.762 51.7424 6.72461 54.2666 10.2666 54.2666Z" fill="#161616"/>
<path fill-rule="evenodd" clip-rule="evenodd" d="M5.86664 45.4668C5.86664 24.4406 22.9739 7.33337 44 7.33337C65.0276 7.33337 82.1334 24.4404 82.1332 45.4668V46.9334C82.1332 47.7444 81.4777 48.4 80.6666 48.4H7.33325C6.52372 48.4 5.86664 47.7444 5.86664 46.9334V45.4668ZM44 10.2666C24.5916 10.2666 8.80003 26.0581 8.80003 45.4666H79.2C79.2 26.0581 63.4085 10.2666 44 10.2666Z" fill="#161616"/>
<path d="M44 13.2C35.7632 13.2044 27.9209 16.3166 21.9194 21.9589L23.9288 24.0958C29.3848 18.9653 36.5141 16.1376 44.0015 16.1333L44 13.2Z" fill="#161616"/>
<rect x="39.6" width="8.8" height="2.93339" fill="#161616"/>
<rect x="42.5334" y="1.46655" width="2.93339" height="7.33339" fill="#161616"/>
</svg>
