<svg width="56" height="56" fill="none" xmlns="http://www.w3.org/2000/svg"><rect width="56" height="56" rx="8" fill="#55439D"/><path d="M32.67 29.13C34.04 30.06 35 31.32 35 33v3h4v-3c0-2.18-3.57-3.47-6.33-3.87zM31 28c2.21 0 4-1.79 4-4s-1.79-4-4-4c-.47 0-.91.1-1.33.24a5.98 5.98 0 010 7.52c.42.14.86.24 1.33.24z" fill="#fff"/><path fill-rule="evenodd" clip-rule="evenodd" d="M29 24c0 2.21-1.79 4-4 4s-4-1.79-4-4 1.79-4 4-4 4 1.79 4 4zm-2 0c0-1.1-.9-2-2-2s-2 .9-2 2 .9 2 2 2 2-.9 2-2zM17 33c0-2.66 5.33-4 8-4s8 1.34 8 4v3H17v-3zm2 .01V34h12v-1c-.2-.71-3.3-2-6-2s-5.8 1.29-6 2.01z" fill="#fff"/></svg>