<svg width="56" height="56" viewBox="0 0 56 56" fill="none" xmlns="http://www.w3.org/2000/svg">
	<rect width="56" height="56" rx="8" fill="#55439D" />
	<path fill-rule="evenodd" clip-rule="evenodd" d="M35.35 26.04C34.67 22.59 31.64 20 28 20C25.11 20 22.6 21.64 21.35 24.04C18.34 24.36 16 26.91 16 30C16 33.31 18.69 36 22 36H35C37.76 36 40 33.76 40 31C40 28.36 37.95 26.22 35.35 26.04ZM35 34H22C19.79 34 18 32.21 18 30C18 27.95 19.53 26.24 21.56 26.03L22.63 25.92L23.13 24.97C24.08 23.14 25.94 22 28 22C30.62 22 32.88 23.86 33.39 26.43L33.69 27.93L35.22 28.04C36.78 28.14 38 29.45 38 31C38 32.65 36.65 34 35 34ZM26.55 26H29.45V29H32L28 33L24 29H26.55V26Z" fill="white" />
</svg>
