<svg width="172" height="154" fill="none" xmlns="http://www.w3.org/2000/svg">
	<rect width="172" height="154" rx="8" fill="#55439D" />
	<path d="M41.438 104.4V117H38.54v-10.224h-5.688V117h-2.898v-12.6h11.484zm7.443 12.744c-1.02 0-1.938-.21-2.754-.63a4.829 4.829 0 01-1.89-1.782c-.456-.756-.684-1.614-.684-2.574 0-.96.228-1.818.684-2.574a4.702 4.702 0 011.89-1.764c.816-.432 1.734-.648 2.754-.648s1.932.216 2.736.648a4.702 4.702 0 011.89 1.764c.456.756.684 1.614.684 2.574 0 .96-.228 1.818-.684 2.574a4.829 4.829 0 01-1.89 1.782c-.804.42-1.716.63-2.736.63zm0-2.304c.72 0 1.308-.24 1.764-.72.468-.492.702-1.146.702-1.962 0-.816-.234-1.464-.702-1.944-.456-.492-1.044-.738-1.764-.738s-1.314.246-1.782.738c-.468.48-.702 1.128-.702 1.944 0 .816.234 1.47.702 1.962.468.48 1.062.72 1.782.72zm11.508-1.512H58.93V117h-2.807v-9.684h2.808v3.762h1.512l2.628-3.762h2.987l-3.384 4.644 3.619 5.04H62.98l-2.591-3.672zm16.44-6.012l-4.375 10.278c-.444 1.116-.996 1.902-1.656 2.358-.648.456-1.434.684-2.358.684a4.916 4.916 0 01-1.494-.234c-.492-.156-.894-.372-1.206-.648l1.026-1.998a2.438 2.438 0 001.584.612c.384 0 .696-.096.936-.288.24-.18.456-.486.648-.918l.036-.09-4.194-9.756h2.898l2.718 6.57 2.736-6.57h2.7zm10.984 0V117h-2.808v-7.38h-4.032V117h-2.79v-9.684h9.63zm6.454-.144c1.5 0 2.652.36 3.456 1.08.804.708 1.206 1.782 1.206 3.222V117h-2.628v-1.206c-.528.9-1.512 1.35-2.952 1.35-.744 0-1.392-.126-1.944-.378-.54-.252-.954-.6-1.242-1.044a2.717 2.717 0 01-.432-1.512c0-.9.336-1.608 1.008-2.124.684-.516 1.734-.774 3.15-.774h2.232c0-.612-.186-1.08-.558-1.404-.372-.336-.93-.504-1.674-.504a4.81 4.81 0 00-1.53.252 3.904 3.904 0 00-1.26.648l-1.008-1.962c.528-.372 1.158-.66 1.89-.864a8.606 8.606 0 012.286-.306zm-.216 8.082c.48 0 .906-.108 1.278-.324.372-.228.636-.558.792-.99v-.99h-1.926c-1.152 0-1.728.378-1.728 1.134 0 .36.138.648.414.864.288.204.678.306 1.17.306zm15.454-5.634h-3.276V117h-2.79v-7.38h-3.276v-2.304h9.342v2.304zm10.506 2.574c0 .036-.018.288-.054.756h-7.326c.132.6.444 1.074.936 1.422.492.348 1.104.522 1.836.522.504 0 .948-.072 1.332-.216a3.345 3.345 0 001.098-.72l1.494 1.62c-.912 1.044-2.244 1.566-3.996 1.566-1.092 0-2.058-.21-2.898-.63-.84-.432-1.488-1.026-1.944-1.782-.456-.756-.684-1.614-.684-2.574 0-.948.222-1.8.666-2.556a4.726 4.726 0 011.854-1.782c.792-.432 1.674-.648 2.646-.648.948 0 1.806.204 2.574.612a4.393 4.393 0 011.8 1.764c.444.756.666 1.638.666 2.646zm-5.022-2.898c-.636 0-1.17.18-1.602.54-.432.36-.696.852-.792 1.476h4.77c-.096-.612-.36-1.098-.792-1.458-.432-.372-.96-.558-1.584-.558zm16.375-1.98V117h-2.808v-7.38h-3.06l-.09 1.71c-.048 1.272-.168 2.328-.36 3.168-.192.84-.504 1.5-.936 1.98-.432.48-1.032.72-1.8.72-.408 0-.894-.072-1.458-.216l.144-2.304c.192.024.33.036.414.036.42 0 .732-.15.936-.45.216-.312.36-.702.432-1.17.072-.48.126-1.11.162-1.89l.144-3.888h8.28zm7.938 3.096c1.26.012 2.226.3 2.898.864.672.552 1.008 1.338 1.008 2.358 0 1.068-.378 1.902-1.134 2.502-.744.588-1.794.882-3.15.882l-4.86-.018v-9.684h2.79v3.096h2.448zm-.63 4.608c.54.012.954-.102 1.242-.342.288-.24.432-.6.432-1.08 0-.468-.144-.81-.432-1.026-.276-.216-.69-.33-1.242-.342l-1.818-.018v2.808h1.818zM91.529 50.281a1.016 1.016 0 10-.001-2.032 1.016 1.016 0 000 2.032zM81.372 50.281a1.016 1.016 0 100-2.032 1.016 1.016 0 000 2.032zM83.735 57.262a6.32 6.32 0 002.715.606c.928 0 1.824-.196 2.663-.581a1.016 1.016 0 00-.849-1.846 4.315 4.315 0 01-1.814.396c-.647 0-1.269-.139-1.849-.412a1.015 1.015 0 10-.866 1.837z" fill="#fff" />
	<path fill-rule="evenodd" clip-rule="evenodd" d="M97.037 63.039c5.452.207 11.812 4.587 11.812 10.172v9.773c0 .561-.455 1.016-1.016 1.016H65.066a1.016 1.016 0 01-1.015-1.016v-9.773c0-5.596 6.372-9.965 11.812-10.172l2.802-2.518a13.273 13.273 0 01-5.372-10.646v-6.703C73.293 36.994 78.258 32 84.429 32h4.063c6.18 0 11.207 5.012 11.207 11.172v6.703c0 4.221-2.056 8.193-5.444 10.665l2.782 2.499zm-8.343 14.258H84.2l-1.096 4.672h6.655l-1.065-4.672zm.087-2.031h-4.645l-.78-2.428 3.095-1.547 3.16 1.58-.83 2.395zm-5.86-12.672l3.53 5.646 3.523-5.638a13.22 13.22 0 01-7.053-.008zm4.983 7.153l4.876-7.802 2.63 2.363-3.347 7.52-4.16-2.08zm.588-35.716h-4.063c-5.02 0-9.105 4.1-9.105 9.14v.753l1.81-2.652a1.014 1.014 0 011.565-.138c2.066 2.112 4.457 3.053 7.752 3.053s5.685-.941 7.75-3.053a1.014 1.014 0 011.56.131l1.907 2.746v-.84c0-5.04-4.117-9.14-9.176-9.14zM75.324 49.875v-2.347l2.821-4.134c2.26 1.922 4.93 2.825 8.306 2.825 3.378 0 6.05-.905 8.31-2.83l2.907 4.184v2.302c0 6.082-4.971 11.172-11.208 11.172-6.216 0-11.136-5.074-11.136-11.172zm9.673 19.872l-4.877-7.802-2.63 2.363 3.346 7.52 4.16-2.08zm-18.915 3.464c0-4.184 5.086-7.796 9.53-8.125l3.8 8.538a1.016 1.016 0 001.383.496l.723-.363.824 2.566-1.324 5.646H66.082V73.21zm25.76 8.758h14.976V73.21c0-4.184-5.086-7.796-9.53-8.125l-3.8 8.538a1.016 1.016 0 01-1.383.496l-.663-.332-.883 2.55 1.283 5.63z" fill="#fff" />
	<path d="M99.654 77.297H95.59a1.016 1.016 0 100 2.031h4.063a1.015 1.015 0 100-2.031zM103.66 77.297a1.016 1.016 0 110 2.032 1.016 1.016 0 010-2.032z" fill="#fff" />
</svg>
