<svg width="172" height="154" fill="none" xmlns="http://www.w3.org/2000/svg">
	<rect width="172" height="154" rx="8" fill="#55439D" />
	<path d="M43.16 104.4V117h-2.898v-10.224h-5.688V117h-2.898v-12.6H43.16zm12.196 2.916V117h-2.808v-7.38h-3.06l-.09 1.71c-.048 1.272-.168 2.328-.36 3.168-.192.84-.504 1.5-.936 1.98-.432.48-1.032.72-1.8.72-.408 0-.894-.072-1.458-.216l.144-2.304c.192.024.33.036.414.036.42 0 .732-.15.936-.45.216-.312.36-.702.432-1.17.072-.48.126-1.11.162-1.89l.144-3.888h8.28zm6.462-.144c1.5 0 2.652.36 3.456 1.08.804.708 1.206 1.782 1.206 3.222V117h-2.628v-1.206c-.528.9-1.512 1.35-2.952 1.35-.744 0-1.392-.126-1.944-.378-.54-.252-.954-.6-1.242-1.044a2.717 2.717 0 01-.432-1.512c0-.9.336-1.608 1.008-2.124.684-.516 1.734-.774 3.15-.774h2.232c0-.612-.186-1.08-.558-1.404-.372-.336-.93-.504-1.674-.504a4.81 4.81 0 00-1.53.252 3.904 3.904 0 00-1.26.648l-1.008-1.962c.528-.372 1.158-.66 1.89-.864a8.606 8.606 0 012.286-.306zm-.216 8.082c.48 0 .906-.108 1.278-.324.372-.228.636-.558.792-.99v-.99h-1.926c-1.152 0-1.728.378-1.728 1.134 0 .36.138.648.414.864.288.204.678.306 1.17.306zm15.453-5.634H73.78V117h-2.79v-7.38h-3.276v-2.304h9.342v2.304zm14.467 2.502c0 1.5-.504 2.688-1.512 3.564-.996.864-2.424 1.362-4.284 1.494v3.312h-2.574v-3.312c-1.86-.132-3.294-.624-4.302-1.476-.996-.864-1.494-2.058-1.494-3.582 0-1.5.492-2.664 1.476-3.492.996-.828 2.436-1.308 4.32-1.44v-3.546h2.574v3.546c1.86.132 3.288.618 4.284 1.458 1.008.84 1.512 1.998 1.512 3.474zm-11.448 0c0 .864.246 1.53.738 1.998.492.468 1.272.762 2.34.882v-5.634c-1.068.108-1.848.39-2.34.846-.492.444-.738 1.08-.738 1.908zm5.652 2.88c1.068-.12 1.848-.414 2.34-.882.504-.468.756-1.134.756-1.998 0-.828-.252-1.464-.756-1.908-.492-.456-1.272-.738-2.34-.846v5.634zm12.233 2.142c-1.02 0-1.938-.21-2.754-.63a4.829 4.829 0 01-1.89-1.782c-.456-.756-.684-1.614-.684-2.574 0-.96.228-1.818.684-2.574a4.702 4.702 0 011.89-1.764c.816-.432 1.734-.648 2.754-.648s1.932.216 2.736.648a4.702 4.702 0 011.89 1.764c.456.756.684 1.614.684 2.574 0 .96-.228 1.818-.684 2.574a4.829 4.829 0 01-1.89 1.782c-.804.42-1.716.63-2.736.63zm0-2.304c.72 0 1.308-.24 1.764-.72.468-.492.702-1.146.702-1.962 0-.816-.234-1.464-.702-1.944-.456-.492-1.044-.738-1.764-.738s-1.314.246-1.782.738c-.468.48-.702 1.128-.702 1.944 0 .816.234 1.47.702 1.962.468.48 1.062.72 1.782.72zm12.948-7.668c.9 0 1.716.21 2.448.63.744.408 1.326.99 1.746 1.746.42.744.63 1.614.63 2.61 0 .996-.21 1.872-.63 2.628a4.521 4.521 0 01-1.746 1.746c-.732.408-1.548.612-2.448.612-1.236 0-2.208-.39-2.916-1.17v4.518h-2.808v-13.176h2.682v1.116c.696-.84 1.71-1.26 3.042-1.26zm-.486 7.668c.72 0 1.308-.24 1.764-.72.468-.492.702-1.146.702-1.962 0-.816-.234-1.464-.702-1.944-.456-.492-1.044-.738-1.764-.738s-1.314.246-1.782.738c-.456.48-.684 1.128-.684 1.944 0 .816.228 1.47.684 1.962.468.48 1.062.72 1.782.72zm16.728 2.16v-5.796l-2.898 4.86h-1.188l-2.826-4.878V117h-2.538v-9.684h2.934l3.096 5.598 3.294-5.598h2.628l.036 9.684h-2.538zm8.989-9.828c1.5 0 2.652.36 3.456 1.08.804.708 1.206 1.782 1.206 3.222V117h-2.628v-1.206c-.528.9-1.512 1.35-2.952 1.35-.744 0-1.392-.126-1.944-.378-.54-.252-.954-.6-1.242-1.044a2.717 2.717 0 01-.432-1.512c0-.9.336-1.608 1.008-2.124.684-.516 1.734-.774 3.15-.774h2.232c0-.612-.186-1.08-.558-1.404-.372-.336-.93-.504-1.674-.504a4.81 4.81 0 00-1.53.252 3.904 3.904 0 00-1.26.648l-1.008-1.962c.528-.372 1.158-.66 1.89-.864a8.606 8.606 0 012.286-.306zm-.216 8.082c.48 0 .906-.108 1.278-.324.372-.228.636-.558.792-.99v-.99h-1.926c-1.152 0-1.728.378-1.728 1.134 0 .36.138.648.414.864.288.204.678.306 1.17.306zM79.992 39.31a1.008 1.008 0 01-.937-.627 1.015 1.015 0 01.549-1.327 1.024 1.024 0 011.233.374 1.053 1.053 0 01.15.366 1.021 1.021 0 010 .397 1.028 1.028 0 01-.277.52 1.023 1.023 0 01-.718.296z" fill="#fff" />
	<path fill-rule="evenodd" clip-rule="evenodd" d="M95.582 32H75.605A4.61 4.61 0 0071 36.605v42.79A4.61 4.61 0 0075.605 84h19.977a4.61 4.61 0 004.605-4.605v-42.79A4.61 4.61 0 0095.582 32zm-19.977 2.031h19.977a2.577 2.577 0 012.574 2.574v.674H84.849a1.015 1.015 0 100 2.031h13.307v36.363H73.03V39.31h2.677a1.016 1.016 0 000-2.031h-2.677v-.674a2.577 2.577 0 012.574-2.574zM95.582 81.97a2.577 2.577 0 002.574-2.574v-1.69H73.03v1.69a2.577 2.577 0 002.574 2.574h19.977z" fill="#fff" />
	<path fill-rule="evenodd" clip-rule="evenodd" d="M76.307 54.914h7.167c.56 0 1.016-.454 1.016-1.015v-7.167c0-.561-.455-1.016-1.016-1.016h-7.167c-.561 0-1.016.455-1.016 1.016v7.167c0 .56.455 1.015 1.016 1.015zm6.151-2.03h-5.136v-5.136h5.136v5.135zM87.713 54.914h7.167c.561 0 1.016-.454 1.016-1.015v-7.167c0-.561-.455-1.016-1.016-1.016h-7.167c-.561 0-1.016.455-1.016 1.016v7.167c0 .56.455 1.015 1.016 1.015zm6.152-2.03h-5.136v-5.136h5.136v5.135zM76.307 66.22h7.167c.56 0 1.016-.456 1.016-1.017v-7.167c0-.56-.455-1.016-1.016-1.016h-7.167c-.561 0-1.016.456-1.016 1.016v7.167c0 .561.455 1.016 1.016 1.016zm6.151-2.032h-5.136v-5.136h5.136v5.136zM87.713 66.22h7.167c.561 0 1.016-.456 1.016-1.017v-7.167c0-.56-.455-1.016-1.016-1.016h-7.167c-.561 0-1.016.456-1.016 1.016v7.167c0 .561.455 1.016 1.016 1.016zm6.152-2.032h-5.136v-5.136h5.136v5.136z" fill="#fff" />
	<path d="M86.846 80.852h-2.505a1.016 1.016 0 110-2.031h2.505a1.016 1.016 0 010 2.031zM88.945 70.695h-6.703a1.016 1.016 0 110-2.03h6.703a1.016 1.016 0 010 2.03z" fill="#fff" />
</svg>
